<?xml version="1.0" standalone="no"?>
<!DOCTYPE svg PUBLIC "-//W3C//DTD SVG 1.1//EN" "http://www.w3.org/Graphics/SVG/1.1/DTD/svg11.dtd" >
<svg xmlns="http://www.w3.org/2000/svg" xmlns:xlink="http://www.w3.org/1999/xlink" version="1.1">
<metadata>
Created by FontForge 20170731 at Mon Jul  4 11:31:44 2016
 By Aleksey,,,
Copyright (c) 2012 Christian Schwartz for Commercial Type.
</metadata>
<defs>
<font id="GraphikLCG-Light" horiz-adv-x="604" >
  <font-face 
    font-family="Graphik LCG"
    font-weight="300"
    font-stretch="normal"
    units-per-em="1000"
    panose-1="2 11 4 3 3 2 2 6 2 3"
    ascent="818"
    descent="-182"
    x-height="523"
    cap-height="715"
    bbox="-224 -212 1069 1091"
    underline-thickness="50"
    underline-position="-200"
    unicode-range="U+000D-FB02"
  />
<missing-glyph horiz-adv-x="504" 
 />
    <glyph glyph-name="f_f" unicode="ff" horiz-adv-x="615" 
d="M105 478h-79v45h79v86q0 79 39.5 119t108.5 40q34 0 58 -9v-45q-27 9 -56 9q-97 0 -97 -109v-91h226v94q0 79 39.5 119t108.5 40q33 0 57 -9v-45q-27 9 -56 9q-45 0 -70.5 -27t-25.5 -82v-99h145v-45h-145v-478h-53v478h-226v-478h-53v478z" />
    <glyph glyph-name=".notdef" horiz-adv-x="504" 
 />
    <glyph glyph-name=".null" horiz-adv-x="0" 
 />
    <glyph glyph-name="nonmarkingreturn" horiz-adv-x="333" 
 />
    <glyph glyph-name="NULL" horiz-adv-x="0" 
 />
    <glyph glyph-name="NULL" horiz-adv-x="0" 
 />
    <glyph glyph-name="CR" unicode="&#xd;" horiz-adv-x="251" 
 />
    <glyph glyph-name="space" unicode=" " horiz-adv-x="251" 
 />
    <glyph glyph-name="exclam" unicode="!" horiz-adv-x="275" 
d="M136 -5q-18 0 -30.5 12.5t-12.5 29.5q0 18 12.5 30.5t30.5 12.5q17 0 29.5 -12.5t12.5 -30.5q0 -17 -12.5 -29.5t-29.5 -12.5zM107 715h59l-8 -536h-42z" />
    <glyph glyph-name="quotedbl" unicode="&#x22;" horiz-adv-x="309" 
d="M58 715h58l-9 -209h-40zM189 715h58l-9 -209h-40z" />
    <glyph glyph-name="numbersign" unicode="#" horiz-adv-x="496" 
d="M286 295h-120l-28 -196h-45l28 196h-90v45h97l23 157h-92v45h98l26 173h45l-26 -173h120l26 173h45l-26 -173h93v-45h-99l-23 -157h94v-45h-101l-28 -196h-45zM173 340h120l23 157h-120z" />
    <glyph glyph-name="dollar" unicode="$" horiz-adv-x="610" 
d="M283 -7q-114 6 -171.5 63.5t-68.5 148.5h54q20 -157 186 -167v314q-110 18 -161.5 61.5t-51.5 122.5q0 80 59 131.5t154 55.5v90h40v-91q89 -6 142 -52t64 -127h-51q-24 124 -155 134v-283q120 -19 173 -62t53 -137q0 -84 -62.5 -141.5t-163.5 -61.5v-127h-40v128z
M495 191q0 70 -38 104t-134 50v-308q78 4 125 46.5t47 107.5zM122 540q0 -58 34.5 -90.5t126.5 -49.5v277q-75 -3 -118 -39t-43 -98z" />
    <glyph glyph-name="percent" unicode="%" horiz-adv-x="770" 
d="M197 440q47 0 77 31.5t30 87.5q0 54 -30 86.5t-77 32.5q-46 0 -76.5 -32.5t-30.5 -88.5q0 -55 30 -86t77 -31zM197 398q-63 0 -110 44.5t-47 114.5t46.5 116.5t110.5 46.5q65 0 110.5 -46t45.5 -115q0 -71 -46 -116t-110 -45zM585 715h50l-455 -715h-51zM568 36
q47 0 77 31.5t30 87.5q0 54 -29.5 86t-77.5 32q-46 0 -76.5 -32.5t-30.5 -87.5t30 -86t77 -31zM568 -7q-63 0 -109.5 45t-46.5 115q0 71 46 117t110 46q65 0 111 -46t46 -115q0 -72 -46.5 -117t-110.5 -45z" />
    <glyph glyph-name="ampersand" unicode="&#x26;" horiz-adv-x="667" 
d="M504 146l125 -146h-66l-91 106q-86 -113 -210 -113q-96 0 -154.5 54t-58.5 139q0 77 45.5 126.5t127.5 90.5q-38 48 -55.5 84t-17.5 76q0 70 47 113t115 43q65 0 106.5 -41.5t41.5 -102.5q0 -113 -162 -183l177 -208l96 178h51zM264 38q105 0 179 103l-195 231
q-145 -70 -145 -181q0 -70 42.5 -111.5t118.5 -41.5zM201 563q0 -33 17 -64t55 -77q68 32 101.5 67t33.5 87q0 45 -27 72.5t-72 27.5q-47 0 -77.5 -30t-30.5 -83z" />
    <glyph glyph-name="quotesingle" unicode="'" horiz-adv-x="178" 
d="M58 715h58l-9 -209h-40z" />
    <glyph glyph-name="parenleft" unicode="(" horiz-adv-x="303" 
d="M220 -148q-165 194 -165 460q0 263 165 461h54q-163 -201 -163 -461q0 -259 163 -460h-54z" />
    <glyph glyph-name="parenright" unicode=")" horiz-adv-x="303" 
d="M26 -146q163 201 163 460q0 260 -163 461h53q165 -199 165 -461q0 -266 -165 -460h-53z" />
    <glyph glyph-name="asterisk" unicode="*" horiz-adv-x="421" 
d="M88 450l90 117l-132 40l15 44l128 -51l-4 143h48l-4 -143l128 51l14 -44l-132 -40l90 -117l-37 -27l-84 122l-83 -122z" />
    <glyph glyph-name="plus" unicode="+" horiz-adv-x="514" 
d="M231 319h-195v46h195v209h48v-209h195v-46h-195v-209h-48v209z" />
    <glyph glyph-name="comma" unicode="," horiz-adv-x="233" 
d="M33 -99l77 183l52 -24l-93 -177z" />
    <glyph glyph-name="hyphen" unicode="-" horiz-adv-x="337" 
d="M62 302h209v-50h-209v50z" />
    <glyph glyph-name="period" unicode="." horiz-adv-x="233" 
d="M114 -5q-17 0 -29.5 12.5t-12.5 29.5q0 18 12.5 30.5t29.5 12.5q18 0 30.5 -12.5t12.5 -30.5q0 -17 -12.5 -29.5t-30.5 -12.5z" />
    <glyph glyph-name="slash" unicode="/" horiz-adv-x="395" 
d="M304 776h50l-291 -924h-50z" />
    <glyph glyph-name="zero" unicode="0" horiz-adv-x="663" 
d="M332 39q106 0 160 74t54 217v60q0 133 -57.5 210t-159.5 77q-103 0 -159 -75t-56 -214v-61q0 -141 57 -214.5t161 -73.5zM332 -8q-128 0 -201.5 89.5t-73.5 245.5v60q0 157 72 246.5t200 89.5q127 0 200.5 -90t73.5 -243v-61q0 -157 -71 -247t-200 -90z" />
    <glyph glyph-name="one" unicode="1" horiz-adv-x="372" 
d="M191 657l-164 -114v52l172 120h47v-715h-55v657z" />
    <glyph glyph-name="two" unicode="2" horiz-adv-x="541" 
d="M20 13l287 297q58 61 85 112.5t27 107.5q0 71 -41 109t-111 38q-149 0 -171 -170h-52q8 100 68.5 158t154.5 58q95 0 151.5 -51.5t56.5 -143.5q0 -119 -136 -253l-231 -229h377v-46h-465v13z" />
    <glyph glyph-name="three" unicode="3" horiz-adv-x="571" 
d="M276 -8q-106 0 -170.5 60.5t-68.5 149.5h51q6 -72 54 -118t135 -46q86 0 132.5 42t46.5 118q0 72 -41 112.5t-122 40.5h-52v47h48q74 0 109.5 37.5t35.5 98.5q0 63 -38.5 102.5t-108.5 39.5q-73 0 -119 -41t-53 -108h-50q6 83 68 139.5t154 56.5t146.5 -54t54.5 -134
q0 -58 -31.5 -98.5t-85.5 -58.5q66 -15 104 -61t38 -119q0 -96 -65 -151t-172 -55z" />
    <glyph glyph-name="four" unicode="4" horiz-adv-x="599" 
d="M402 161h-369v17l346 537h78v-508h99v-46h-99v-161h-55v161zM402 207v467l-295 -467h295z" />
    <glyph glyph-name="five" unicode="5" horiz-adv-x="565" 
d="M268 -8q-104 0 -162.5 54t-67.5 138h54q9 -65 52 -105.5t124 -40.5q86 0 134 51.5t48 142.5q0 83 -48.5 135t-123.5 52q-113 0 -177 -78h-21v374h390v-48h-343v-262q60 60 160 60q95 0 157.5 -64t62.5 -169q0 -110 -67 -175t-172 -65z" />
    <glyph glyph-name="six" unicode="6" 
d="M309 -8q-128 0 -188.5 82.5t-60.5 218.5v52q0 189 73 283.5t196 94.5q82 0 135.5 -41t65.5 -122h-53q-23 116 -151 116q-98 0 -153.5 -76t-57.5 -238v-29q23 57 79 89.5t121 32.5q109 0 171.5 -64.5t62.5 -164.5q0 -105 -65.5 -169.5t-174.5 -64.5zM309 37q83 0 133 51.5
t50 135.5q0 85 -48 135.5t-136 50.5q-79 0 -133 -48.5t-54 -128.5q0 -85 49.5 -140.5t138.5 -55.5z" />
    <glyph glyph-name="seven" unicode="7" horiz-adv-x="508" 
d="M415 669h-387v46h457v-9l-279 -706h-57z" />
    <glyph glyph-name="eight" unicode="8" horiz-adv-x="587" 
d="M292 -8q-98 0 -169 55t-71 152q0 73 43 121t114 67q-57 16 -92 56.5t-35 99.5q0 80 62.5 130t147.5 50q84 0 146.5 -50t62.5 -128q0 -60 -33.5 -100t-91.5 -58q72 -19 113.5 -66t41.5 -120q0 -99 -69 -154t-170 -55zM292 39q83 0 132.5 42.5t49.5 121.5q0 75 -51 117
t-129 42t-131.5 -43t-53.5 -118q0 -78 52 -120t131 -42zM295 407q66 0 108 36.5t42 101.5q0 58 -43.5 95.5t-109.5 37.5q-67 0 -110.5 -37t-43.5 -98q0 -63 46.5 -99.5t110.5 -36.5z" />
    <glyph glyph-name="nine" unicode="9" horiz-adv-x="603" 
d="M281 -7q-89 0 -146.5 44t-72.5 127h54q30 -125 166 -125q100 0 152 70t52 230v38q-23 -55 -80 -86t-123 -31q-107 0 -170 64t-63 166q0 105 65.5 169t175.5 64q123 0 186 -79t63 -216v-82q0 -353 -259 -353zM290 305q80 0 134.5 47.5t54.5 124.5q0 87 -49.5 144.5
t-138.5 57.5q-84 0 -134 -51.5t-50 -135.5q0 -85 48 -136t135 -51z" />
    <glyph glyph-name="colon" unicode=":" horiz-adv-x="241" 
d="M118 -5q-17 0 -29.5 12.5t-12.5 29.5q0 18 12.5 30.5t29.5 12.5q18 0 30.5 -12.5t12.5 -30.5q0 -17 -12.5 -29.5t-30.5 -12.5zM118 320q-17 0 -29.5 12t-12.5 30t12.5 30t29.5 12q18 0 30.5 -12t12.5 -30t-12.5 -30t-30.5 -12z" />
    <glyph glyph-name="semicolon" unicode=";" horiz-adv-x="241" 
d="M23 -99l77 183l53 -24l-94 -177zM123 320q-17 0 -29.5 12t-12.5 30t12.5 30t29.5 12q18 0 30.5 -12t12.5 -30t-12.5 -30t-30.5 -12z" />
    <glyph glyph-name="less" unicode="&#x3c;" horiz-adv-x="500" 
d="M51 315v14l384 211v-52l-306 -166l306 -166v-52z" />
    <glyph glyph-name="equal" unicode="=" horiz-adv-x="488" 
d="M40 259h404v-46h-404v46zM40 426h404v-46h-404v46z" />
    <glyph glyph-name="greater" unicode="&#x3e;" horiz-adv-x="500" 
d="M61 156l306 166l-306 166v52l384 -211v-14l-384 -211v52z" />
    <glyph glyph-name="question" unicode="?" horiz-adv-x="481" 
d="M188 236q0 38 15.5 71.5t32 52.5t52.5 55q31 31 44 45.5t27 43t14 57.5q0 53 -33 85t-97 32q-66 0 -107.5 -40t-47.5 -110h-51q6 88 62.5 141.5t144.5 53.5q89 0 136.5 -46t47.5 -114q0 -12 -1.5 -23.5t-3.5 -20.5t-7.5 -19.5t-8 -17t-11 -17.5t-11.5 -15.5t-14 -16
t-14 -15t-16 -16t-16 -15.5q-34 -34 -48 -49.5t-27.5 -44.5t-13.5 -61v-53h-48v57zM211 -5q-18 0 -30.5 12.5t-12.5 29.5q0 18 12.5 30.5t30.5 12.5q17 0 29.5 -12.5t12.5 -30.5q0 -17 -12.5 -29.5t-29.5 -12.5z" />
    <glyph glyph-name="at" unicode="@" horiz-adv-x="913" 
d="M460 -147q-129 0 -225 58.5t-142.5 150t-46.5 200.5q0 119 59 217.5t156.5 153.5t210.5 55q176 0 284.5 -104.5t108.5 -261.5q0 -127 -53.5 -189.5t-122.5 -62.5q-103 0 -114 101q-20 -44 -61.5 -76t-92.5 -32q-71 0 -115 47t-44 127q0 98 57.5 165t136.5 67
q52 0 86.5 -26t44.5 -67l9 84h53l-28 -240q-15 -110 68 -110q55 0 92 53t37 157q0 145 -92.5 235t-253.5 90q-158 0 -267 -109t-109 -273q0 -99 40 -181t124.5 -134t199.5 -52q173 0 272 104h50q-39 -64 -125 -105.5t-197 -41.5zM430 105q59 0 103 53t44 132q0 65 -31 100.5
t-86 35.5q-59 0 -101.5 -53t-42.5 -136q0 -62 31 -97t83 -35z" />
    <glyph glyph-name="A" unicode="A" horiz-adv-x="658" 
d="M290 715h74l257 -715h-56l-79 219h-322l-78 -219h-53zM180 264h290l-145 405z" />
    <glyph glyph-name="B" unicode="B" horiz-adv-x="608" 
d="M92 715h203q100 0 158.5 -44t58.5 -137v-4q0 -120 -122 -155q157 -29 157 -174v-4q0 -96 -59 -146.5t-163 -50.5h-233v715zM324 45q169 0 169 152v4q0 148 -188 148h-158v-304h177zM296 393q161 0 161 138v4q0 135 -163 135h-147v-277h149z" />
    <glyph glyph-name="C" unicode="C" horiz-adv-x="729" 
d="M385 -8q-152 0 -242 99t-90 262v8q0 157 95.5 260t236.5 103q114 0 194 -58.5t95 -165.5h-56q-35 179 -232 179q-121 0 -198.5 -88t-77.5 -229v-8q0 -145 74 -230t202 -85q98 0 162.5 49.5t81.5 141.5h52q-20 -114 -99.5 -176t-197.5 -62z" />
    <glyph glyph-name="D" unicode="D" horiz-adv-x="690" 
d="M274 46q148 0 225 84.5t77 225.5v8q0 139 -76 222t-227 83h-125v-623h126zM92 715h186q171 0 263.5 -97.5t92.5 -253.5v-9q0 -157 -91.5 -256t-266.5 -99h-184v715z" />
    <glyph glyph-name="E" unicode="E" horiz-adv-x="570" 
d="M92 715h411v-46h-355v-279h288v-46h-288v-298h373v-46h-429v715z" />
    <glyph glyph-name="F" unicode="F" horiz-adv-x="544" 
d="M92 715h407v-46h-351v-284h276v-46h-276v-339h-56v715z" />
    <glyph glyph-name="G" unicode="G" horiz-adv-x="760" 
d="M396 -8q-159 0 -251 100.5t-92 260.5v8q0 156 97 259.5t244 103.5q109 0 188.5 -53.5t98.5 -159.5h-56q-38 168 -230 168q-128 0 -206.5 -88.5t-78.5 -228.5v-8q0 -145 75 -230.5t211 -85.5q123 0 187 69.5t66 190.5v4h-220v47h274v-41q0 -151 -83 -233.5t-224 -82.5z
" />
    <glyph glyph-name="H" unicode="H" horiz-adv-x="721" 
d="M92 715h56v-333h421v333h56v-715h-56v335h-421v-335h-56v715z" />
    <glyph glyph-name="I" unicode="I" horiz-adv-x="254" 
d="M97 715h56v-715h-56v715z" />
    <glyph glyph-name="J" unicode="J" horiz-adv-x="405" 
d="M137 -7q-58 0 -100 20v47q48 -21 97 -21q129 0 129 144v532h56v-534q0 -95 -49.5 -141.5t-132.5 -46.5z" />
    <glyph glyph-name="K" unicode="K" horiz-adv-x="603" 
d="M92 715h56v-352l347 353h64l-346 -349l363 -367h-68l-360 361v-361h-56v715z" />
    <glyph glyph-name="L" unicode="L" horiz-adv-x="534" 
d="M92 715h56v-669h347v-46h-403v715z" />
    <glyph glyph-name="M" unicode="M" horiz-adv-x="855" 
d="M92 715h80l252 -614l253 614h78v-715h-55v645l-269 -645h-18l-269 645v-645h-52v715z" />
    <glyph glyph-name="N" unicode="N" horiz-adv-x="717" 
d="M92 715h76l400 -638v638h53v-715h-66l-409 653v-653h-54v715z" />
    <glyph glyph-name="O" unicode="O" horiz-adv-x="805" 
d="M403 39q127 0 207.5 89.5t80.5 227.5v8q0 133 -80.5 223t-209.5 90q-130 0 -210.5 -89t-80.5 -226v-8q0 -136 84 -225.5t209 -89.5zM403 -8q-151 0 -250.5 104.5t-99.5 256.5v8q0 153 99 257.5t249 104.5t249 -104t99 -256v-8q0 -153 -98.5 -258t-247.5 -105z" />
    <glyph glyph-name="P" unicode="P" horiz-adv-x="572" 
d="M92 715h189q111 0 177.5 -49t66.5 -152v-4q0 -106 -65.5 -155t-177.5 -49h-134v-306h-56v715zM286 351q183 0 183 159v4q0 83 -48 119t-137 36h-136v-318h138z" />
    <glyph glyph-name="Q" unicode="Q" horiz-adv-x="805" 
d="M579 40q-79 -48 -176 -48q-151 0 -250.5 104.5t-99.5 256.5v8q0 153 99 257.5t249 104.5t249 -104t99 -256v-8q0 -88 -34.5 -162.5t-96.5 -125.5l88 -94l-34 -33zM403 39q81 0 143 37l-101 110l34 33l106 -116q106 89 106 253v8q0 133 -80.5 223t-209.5 90
q-130 0 -210.5 -89t-80.5 -226v-8q0 -136 84 -225.5t209 -89.5z" />
    <glyph glyph-name="R" unicode="R" horiz-adv-x="610" 
d="M92 715h196q111 0 177 -46.5t66 -145.5v-4q0 -161 -185 -189l227 -330h-62l-224 326h-139v-326h-56v715zM291 371q184 0 184 148v4q0 78 -47.5 112t-136.5 34h-143v-298h143z" />
    <glyph glyph-name="S" unicode="S" horiz-adv-x="606" 
d="M308 -8q-125 0 -189 58.5t-77 154.5h55q20 -167 211 -167q83 0 134 43t51 110q0 74 -42 107.5t-150 49.5q-120 18 -175.5 61.5t-55.5 126.5t62.5 135t162.5 52q99 0 158.5 -46.5t71.5 -133.5h-51q-13 68 -56.5 101t-122.5 33q-83 0 -128 -36t-45 -101q0 -61 40 -94
t148 -48q126 -19 181.5 -63t55.5 -140q0 -86 -66.5 -144.5t-172.5 -58.5z" />
    <glyph glyph-name="T" unicode="T" horiz-adv-x="563" 
d="M252 669h-222v46h499v-46h-222v-669h-55v669z" />
    <glyph glyph-name="U" unicode="U" horiz-adv-x="686" 
d="M338 -7q-122 0 -189 67.5t-67 195.5v459h55v-453q0 -222 202 -222q105 0 155.5 55.5t50.5 179.5v440h56v-448q0 -131 -66.5 -202.5t-196.5 -71.5z" />
    <glyph glyph-name="V" unicode="V" horiz-adv-x="641" 
d="M29 715h55l239 -660l232 660h52l-253 -715h-66z" />
    <glyph glyph-name="W" unicode="W" horiz-adv-x="924" 
d="M33 715h56l164 -630l189 630h39l182 -632l173 632h51l-196 -715h-54l-176 616l-186 -616h-53z" />
    <glyph glyph-name="X" unicode="X" horiz-adv-x="650" 
d="M293 370l-226 345h61l200 -303l198 303h58l-228 -346l244 -369h-63l-217 328l-217 -328h-57z" />
    <glyph glyph-name="Y" unicode="Y" horiz-adv-x="582" 
d="M268 318l-245 397h62l212 -350l202 350h56l-231 -398v-317h-56v318z" />
    <glyph glyph-name="Z" unicode="Z" horiz-adv-x="591" 
d="M27 11l443 658h-407v46h485v-10l-437 -657h431v-48h-515v11z" />
    <glyph glyph-name="bracketleft" unicode="[" horiz-adv-x="344" 
d="M93 776h206v-43h-153v-838h153v-43h-206v924z" />
    <glyph glyph-name="backslash" unicode="\" horiz-adv-x="395" 
d="M37 776h50l291 -924h-50z" />
    <glyph glyph-name="bracketright" unicode="]" horiz-adv-x="344" 
d="M42 -105h152v838h-152v43h205v-924h-205v43z" />
    <glyph glyph-name="asciicircum" unicode="^" horiz-adv-x="482" 
d="M213 715h53l167 -293h-55l-139 245l-140 -245h-53z" />
    <glyph glyph-name="underscore" unicode="_" horiz-adv-x="393" 
d="M-1 -107h391v-44h-391v44z" />
    <glyph glyph-name="grave" unicode="`" horiz-adv-x="404" 
d="M92 752h65l68 -147h-41z" />
    <glyph glyph-name="a" unicode="a" horiz-adv-x="533" 
d="M221 -8q-81 0 -129 38.5t-48 110.5q0 84 68 121t177 37h109v47q0 74 -31.5 107t-100.5 33q-130 0 -147 -111h-52q8 77 64.5 116.5t136.5 39.5q86 0 134.5 -44.5t48.5 -140.5v-346h-53v80q-57 -88 -177 -88zM225 35q73 0 123 38.5t50 95.5v89h-107q-59 0 -99.5 -9
t-67.5 -36t-27 -72q0 -106 128 -106z" />
    <glyph glyph-name="b" unicode="b" horiz-adv-x="616" 
d="M334 -8q-72 0 -124.5 37t-74.5 90v-119h-53v773h53v-372q23 53 78 91.5t121 38.5q101 0 168 -72t67 -192v-8q0 -121 -65.5 -194t-169.5 -73zM330 37q85 0 134.5 58t49.5 162v8q0 104 -53 162.5t-132 58.5q-81 0 -138 -59t-57 -162v-8q0 -103 55.5 -161.5t140.5 -58.5z
" />
    <glyph glyph-name="c" unicode="c" horiz-adv-x="560" 
d="M293 -8q-107 0 -178.5 73.5t-71.5 190.5v8q0 118 72 192.5t178 74.5q85 0 147 -45t71 -129h-52q-9 63 -54.5 96t-111.5 33q-84 0 -139.5 -60.5t-55.5 -161.5v-8q0 -101 55 -160t140 -59q68 0 116.5 38t57.5 106h49q-10 -84 -72 -136.5t-151 -52.5z" />
    <glyph glyph-name="d" unicode="d" horiz-adv-x="616" 
d="M278 -8q-103 0 -169 70.5t-66 191.5v8q0 120 69 194.5t174 74.5q134 0 191 -124v366h53v-773h-53v121q-24 -53 -77 -91t-122 -38zM283 37q84 0 139.5 58.5t55.5 162.5v8q0 105 -51.5 162.5t-135.5 57.5q-86 0 -139.5 -59.5t-53.5 -162.5v-8q0 -104 52 -161.5t133 -57.5z
" />
    <glyph glyph-name="e" unicode="e" horiz-adv-x="558" 
d="M291 -8q-113 0 -180.5 73t-67.5 191v8q0 118 67.5 192.5t172.5 74.5q100 0 164.5 -65.5t64.5 -189.5v-19h-414q2 -107 51 -163.5t142 -56.5q136 0 164 109h53q-17 -74 -74 -114t-143 -40zM457 300q-4 94 -49.5 140t-124.5 46q-77 0 -126 -50t-57 -136h357z" />
    <glyph glyph-name="f" unicode="f" horiz-adv-x="337" 
d="M105 478h-79v45h79v94q0 79 39.5 119t108.5 40q34 0 58 -9v-45q-27 9 -56 9q-97 0 -97 -109v-99h146v-45h-146v-478h-53v478z" />
    <glyph glyph-name="g" unicode="g" horiz-adv-x="616" 
d="M288 -188q-107 0 -165 44.5t-69 113.5h54q25 -113 179 -113q89 0 139.5 43.5t50.5 136.5v107q-24 -52 -77 -89.5t-121 -37.5q-102 0 -169 69t-67 181v7q0 111 69 184t174 73q136 0 191 -121v113h53v-488q0 -112 -66 -167.5t-176 -55.5zM284 62q82 0 138 56.5t56 151.5v8
q0 97 -51.5 152.5t-135.5 55.5q-86 0 -139.5 -56.5t-53.5 -153.5v-8q0 -95 53 -150.5t133 -55.5z" />
    <glyph glyph-name="h" unicode="h" horiz-adv-x="587" 
d="M82 773h53v-352q19 46 68.5 78t116.5 32q87 0 136.5 -51t49.5 -158v-322h-53v325q0 160 -145 160q-70 0 -121.5 -45t-51.5 -123v-317h-53v773z" />
    <glyph glyph-name="i" unicode="i" horiz-adv-x="225" 
d="M84 523h53v-523h-53v523zM110 635q-16 0 -27 11t-11 27q0 15 11 26t27 11t26.5 -11t10.5 -26q0 -16 -10.5 -27t-26.5 -11z" />
    <glyph glyph-name="j" unicode="j" horiz-adv-x="225" 
d="M7 -143q43 4 60 25.5t17 65.5v575h53v-571q0 -70 -29.5 -103.5t-100.5 -36.5v45zM110 635q-16 0 -27 11t-11 27q0 15 11 26t27 11t26.5 -11t10.5 -26q0 -16 -10.5 -27t-26.5 -11z" />
    <glyph glyph-name="k" unicode="k" horiz-adv-x="491" 
d="M82 773h53v-496l255 246h63l-255 -244l272 -279h-66l-269 277v-277h-53v773z" />
    <glyph glyph-name="l" unicode="l" horiz-adv-x="226" 
d="M84 773h54v-773h-54v773z" />
    <glyph glyph-name="m" unicode="m" horiz-adv-x="908" 
d="M82 523h53v-99q19 46 64.5 76.5t106.5 30.5q128 0 160 -117q24 55 74.5 86t111.5 31q81 0 128 -49t47 -155v-327h-53v330q0 82 -33 118.5t-98 36.5t-113.5 -44.5t-48.5 -121.5v-319h-53v330q0 82 -33 118.5t-98 36.5t-113.5 -44.5t-48.5 -121.5v-319h-53v523z" />
    <glyph glyph-name="n" unicode="n" horiz-adv-x="587" 
d="M82 523h53v-102q19 46 68.5 78t116.5 32q87 0 136.5 -51t49.5 -158v-322h-53v325q0 160 -145 160q-70 0 -121.5 -45t-51.5 -123v-317h-53v523z" />
    <glyph glyph-name="o" unicode="o" horiz-adv-x="595" 
d="M296 37q86 0 141.5 60t55.5 160v8q0 102 -55.5 161.5t-141.5 59.5t-142 -60.5t-56 -160.5v-8q0 -99 55.5 -159.5t142.5 -60.5zM295 -8q-107 0 -179.5 75t-72.5 190v8q0 116 73 191t180 75q108 0 180 -74t72 -191v-8q0 -116 -73 -191t-180 -75z" />
    <glyph glyph-name="p" unicode="p" horiz-adv-x="616" 
d="M82 523h53v-122q23 53 78 91.5t121 38.5q101 0 168 -72t67 -192v-8q0 -121 -65.5 -194t-169.5 -73q-72 0 -124.5 37t-74.5 90v-301h-53v705zM330 37q85 0 134.5 58t49.5 162v8q0 104 -53 162.5t-132 58.5q-81 0 -138 -59t-57 -162v-8q0 -103 55.5 -161.5t140.5 -58.5z
" />
    <glyph glyph-name="q" unicode="q" horiz-adv-x="616" 
d="M477 121q-24 -53 -77 -91t-122 -38q-103 0 -169 70.5t-66 191.5v8q0 120 69 194.5t174 74.5q134 0 191 -124v116h53v-705h-53v303zM283 37q84 0 139.5 58.5t55.5 162.5v8q0 105 -51.5 162.5t-135.5 57.5q-86 0 -139.5 -59.5t-53.5 -162.5v-8q0 -104 52 -161.5t133 -57.5z
" />
    <glyph glyph-name="r" unicode="r" horiz-adv-x="352" 
d="M82 523h53v-110q51 113 177 117v-50q-177 -9 -177 -190v-290h-53v523z" />
    <glyph glyph-name="s" unicode="s" horiz-adv-x="469" 
d="M239 -9q-91 0 -143.5 44.5t-57.5 120.5h51q15 -120 150 -120q65 0 99 27t34 76q0 48 -29.5 69.5t-107.5 36.5q-99 19 -139.5 49.5t-40.5 96.5q0 63 51 101.5t121 38.5q164 0 182 -142h-51q-19 97 -132 97q-55 0 -88.5 -25.5t-33.5 -67.5q0 -44 31 -65.5t112 -35.5
q94 -18 135 -47.5t41 -101.5q0 -68 -48 -110t-136 -42z" />
    <glyph glyph-name="t" unicode="t" horiz-adv-x="342" 
d="M230 -7q-62 0 -95 34.5t-33 98.5v352h-77v45h77v119h53v-119h137v-45h-137v-348q0 -92 78 -92q36 0 66 11v-45q-27 -11 -69 -11z" />
    <glyph glyph-name="u" unicode="u" horiz-adv-x="583" 
d="M261 -8q-86 0 -135 48.5t-49 151.5v331h53v-328q0 -82 36 -119.5t107 -37.5q68 0 119.5 44.5t51.5 122.5v318h53v-523h-53v100q-19 -45 -68.5 -76.5t-114.5 -31.5z" />
    <glyph glyph-name="v" unicode="v" horiz-adv-x="522" 
d="M25 523h58l178 -470l177 470h54l-197 -523h-69z" />
    <glyph glyph-name="w" unicode="w" horiz-adv-x="780" 
d="M29 523h57l140 -458l143 458h45l138 -458l141 458h54l-165 -523h-61l-130 438l-139 -438h-60z" />
    <glyph glyph-name="x" unicode="x" horiz-adv-x="515" 
d="M223 270l-182 253h63l151 -213l149 213h59l-179 -249l198 -274h-63l-166 234l-166 -234h-58z" />
    <glyph glyph-name="y" unicode="y" horiz-adv-x="512" 
d="M232 45l-207 478h57l179 -417l167 417h54l-290 -705h-55z" />
    <glyph glyph-name="z" unicode="z" horiz-adv-x="478" 
d="M24 9l340 469h-310v45h393v-10l-337 -466h330v-47h-416v9z" />
    <glyph glyph-name="braceleft" unicode="{" horiz-adv-x="367" 
d="M321 -148q-107 0 -154.5 46.5t-26.5 152.5l22 114q11 56 -18 92.5t-102 36.5v40q73 0 102 36.5t18 92.5l-22 114q-21 106 26.5 152.5t154.5 46.5v-42q-83 0 -114.5 -34t-16.5 -122l23 -120q21 -117 -94 -144q115 -27 94 -144l-23 -120q-15 -88 16.5 -122t114.5 -34v-42z
" />
    <glyph glyph-name="bar" unicode="|" horiz-adv-x="245" 
d="M98 776h45v-924h-45v924z" />
    <glyph glyph-name="braceright" unicode="}" horiz-adv-x="367" 
d="M42 -106q81 0 114 34.5t16 121.5l-22 120q-21 117 94 144q-115 27 -94 144l22 120q17 87 -16 121.5t-114 34.5v42q108 0 154.5 -46.5t26.5 -152.5l-23 -114q-11 -56 18 -92.5t103 -36.5v-40q-74 0 -103 -36.5t-18 -92.5l23 -114q20 -106 -26.5 -152.5t-154.5 -46.5v42z
" />
    <glyph glyph-name="asciitilde" unicode="~" horiz-adv-x="442" 
d="M46 232q5 51 31.5 80.5t65.5 29.5q35 0 83 -30t67 -30q22 0 37 17t17 45h44q-5 -52 -31 -81t-63 -29t-85 30t-67 30q-21 0 -36 -17t-19 -45h-44z" />
    <glyph glyph-name="uni00A0" unicode="&#xa0;" horiz-adv-x="284" 
 />
    <glyph glyph-name="exclamdown" unicode="&#xa1;" horiz-adv-x="276" 
d="M136 602q18 0 30.5 -12t12.5 -29q0 -18 -12.5 -30.5t-30.5 -12.5q-17 0 -29.5 12.5t-12.5 30.5q0 17 12.5 29t29.5 12zM165 -117h-59l8 536h42z" />
    <glyph glyph-name="cent" unicode="&#xa2;" horiz-adv-x="557" 
d="M270 -7q-101 8 -164 78.5t-63 184.5v8q0 114 64.5 185.5t162.5 80.5v99h40v-99q79 -4 135.5 -49t65.5 -124h-52q-9 58 -49 90t-100 38v-447q62 4 104.5 41.5t52.5 101.5h49q-10 -79 -67 -130.5t-139 -57.5v-128h-40v128zM98 256q0 -96 47.5 -154t124.5 -64v447
q-77 -9 -124.5 -67t-47.5 -154v-8z" />
    <glyph glyph-name="sterling" unicode="&#xa3;" horiz-adv-x="593" 
d="M49 368h71q-24 83 -24 151q0 91 61 147.5t155 56.5t148 -49.5t63 -133.5h-54q-12 69 -48 102.5t-109 33.5q-71 0 -115 -43.5t-44 -113.5q0 -61 23 -151h229v-41h-218q19 -71 19 -137q0 -42 -18 -81q34 -6 106.5 -37.5t106.5 -31.5q97 0 103 104h48q-5 -70 -43.5 -111
t-102.5 -41q-49 0 -128.5 36.5t-109.5 36.5q-34 0 -54 -18.5t-24 -46.5h-48q5 37 28.5 68t65.5 40q20 38 20 83q0 55 -24 136h-83v41z" />
    <glyph glyph-name="yen" unicode="&#xa5;" horiz-adv-x="552" 
d="M73 344h171l-216 371h60l195 -340l183 340h54l-203 -371h171v-39h-180v-97h180v-39h-180v-169h-54v169h-181v39h181v97h-181v39z" />
    <glyph glyph-name="brokenbar" unicode="&#xa6;" horiz-adv-x="248" 
d="M98 297h45v-445h-45v445zM98 776h45v-409h-45v409z" />
    <glyph glyph-name="section" unicode="&#xa7;" horiz-adv-x="539" 
d="M266 -137q-81 0 -131 40t-54 113h55q11 -107 129 -107q59 0 89.5 29t30.5 78q0 51 -33 78t-121 49q-92 24 -138.5 60t-46.5 104q0 51 35 86.5t93 50.5q-36 22 -53 51t-17 77q0 67 49.5 109.5t119.5 42.5q77 0 121 -38t49 -108h-54q-6 50 -32 75t-83 25q-54 0 -86 -28.5
t-32 -76.5q0 -50 30 -75.5t116 -49.5q96 -28 141.5 -62.5t45.5 -103.5q0 -50 -32.5 -85.5t-89.5 -50.5q70 -40 70 -129q0 -67 -48 -110.5t-123 -43.5zM325 169q111 25 111 110q0 47 -34 72t-111 47l-77 23q-52 -9 -83.5 -37.5t-31.5 -72.5q0 -48 34.5 -72t113.5 -47z" />
    <glyph glyph-name="dieresis" unicode="&#xa8;" horiz-adv-x="404" 
d="M117 636q-16 0 -26.5 11t-10.5 26t10.5 25.5t26.5 10.5q15 0 25.5 -10.5t10.5 -25.5t-10.5 -26t-25.5 -11zM283 636q-15 0 -25.5 11t-10.5 26t10.5 25.5t25.5 10.5q16 0 26.5 -10.5t10.5 -25.5t-10.5 -26t-26.5 -11z" />
    <glyph glyph-name="copyright" unicode="&#xa9;" horiz-adv-x="848" 
d="M424 151q-90 0 -142.5 55.5t-52.5 149.5v7q0 90 55.5 147.5t138.5 57.5q69 0 115.5 -34.5t55.5 -98.5h-52q-16 91 -119 91q-62 0 -101 -44.5t-39 -118.5v-6q0 -76 37.5 -119.5t103.5 -43.5q51 0 84 25.5t41 73.5h49q-9 -68 -56 -105t-118 -37zM421 23q137 0 234 96
t97 240q0 143 -95 238t-234 95t-235 -96t-96 -239q0 -144 97 -239t232 -95zM421 -9q-154 0 -260 105.5t-106 260.5q0 153 107 260t261 107q155 0 260.5 -106t105.5 -259q0 -156 -106.5 -262t-261.5 -106z" />
    <glyph glyph-name="ordfeminine" unicode="&#xaa;" horiz-adv-x="422" 
d="M176 302q-63 0 -101 30t-38 87q0 125 194 125h81v33q0 54 -23.5 79t-75.5 25q-92 0 -108 -80h-50q6 59 51.5 90.5t109.5 31.5q146 0 146 -146v-268h-50v60q-43 -67 -136 -67zM184 342q54 0 91 28t37 72v65h-79q-145 0 -145 -87q0 -78 96 -78z" />
    <glyph glyph-name="guillemotleft" unicode="&#xab;" horiz-adv-x="452" 
d="M54 261l135 178h54l-132 -178l132 -178h-54zM212 261l135 178h54l-132 -178l132 -178h-54z" />
    <glyph glyph-name="uni00AD" unicode="&#xad;" horiz-adv-x="337" 
d="M62 302h209v-50h-209v50z" />
    <glyph glyph-name="registered" unicode="&#xae;" horiz-adv-x="518" 
d="M183 621h75q83 0 83 -67v-1q0 -49 -51 -61l65 -99h-41l-61 93h-33v-93h-37v228zM257 514q48 0 48 38v1q0 39 -48 39h-37v-78h37zM257 310q81 0 136 55t55 138q0 84 -54.5 139t-136.5 55t-136.5 -55.5t-54.5 -139.5t55 -138t136 -54zM257 282q-93 0 -157.5 63.5
t-64.5 156.5t64.5 157.5t157.5 64.5q94 0 158 -64t64 -157t-64.5 -157t-157.5 -64z" />
    <glyph glyph-name="macron" unicode="&#xaf;" horiz-adv-x="404" 
d="M79 689h242v-42h-242v42z" />
    <glyph glyph-name="degree" unicode="&#xb0;" horiz-adv-x="411" 
d="M204 466q45 0 74.5 31.5t29.5 77.5t-29.5 78t-74.5 32t-75.5 -32t-30.5 -78t30.5 -77.5t75.5 -31.5zM204 427q-64 0 -108.5 43.5t-44.5 104.5q0 62 44.5 105.5t108.5 43.5q63 0 107.5 -43.5t44.5 -105.5q0 -61 -44.5 -104.5t-107.5 -43.5z" />
    <glyph glyph-name="plusminus" unicode="&#xb1;" horiz-adv-x="514" 
d="M231 330h-195v45h195v199h48v-199h195v-45h-195v-199h-48v199zM36 45h438v-45h-438v45z" />
    <glyph glyph-name="twosuperior" unicode="&#xb2;" horiz-adv-x="291" 
d="M15 381l130 131q33 35 47.5 58.5t14.5 49.5q0 30 -18 47t-48 17q-64 0 -75 -78h-41q3 54 34.5 83.5t82.5 29.5t80 -26.5t29 -71.5q0 -33 -16.5 -61t-55.5 -66l-90 -87h166v-35h-240v9z" />
    <glyph glyph-name="threesuperior" unicode="&#xb3;" horiz-adv-x="312" 
d="M153 368q-59 0 -93 29t-36 76h41q4 -32 25.5 -51.5t61.5 -19.5q78 0 78 67q0 30 -19 47.5t-54 17.5h-27v33h25q33 0 49.5 16t16.5 43t-17.5 43t-49.5 16q-34 0 -53.5 -18t-23.5 -48h-40q3 44 34.5 72t83.5 28q50 0 79.5 -25.5t29.5 -65.5q0 -56 -59 -75q31 -7 50.5 -29
t19.5 -56q0 -48 -32.5 -74t-89.5 -26z" />
    <glyph glyph-name="acute" unicode="&#xb4;" horiz-adv-x="404" 
d="M243 752h65l-92 -147h-41z" />
    <glyph glyph-name="mu" unicode="&#xb5;" horiz-adv-x="584" 
d="M83 523h53v-337q0 -148 147 -148q68 0 117 44.5t49 122.5v318h53v-523h-53v100q-19 -46 -64.5 -76t-108.5 -30q-104 0 -140 77v-253h-53v705z" />
    <glyph glyph-name="paragraph" unicode="&#xb6;" horiz-adv-x="563" 
d="M271 353h-14q-96 0 -154 45.5t-58 131.5q0 90 58.5 137.5t153.5 47.5h208v-815h-46v777h-103v-777h-45v453z" />
    <glyph glyph-name="periodcentered" unicode="&#xb7;" horiz-adv-x="233" 
d="M114 281q-17 0 -29.5 12.5t-12.5 30.5q0 17 12.5 29.5t29.5 12.5q18 0 30.5 -12.5t12.5 -29.5q0 -18 -12.5 -30.5t-30.5 -12.5z" />
    <glyph glyph-name="cedilla" unicode="&#xb8;" horiz-adv-x="404" 
d="M210 -212q-41 0 -66.5 21t-29.5 57h44q3 -18 16 -30t34 -12q23 0 36.5 12t13.5 32q0 39 -45 39q-17 0 -36 -8l-26 21l45 80h43l-35 -61q39 9 70 -10.5t31 -62.5q0 -37 -27 -57.5t-68 -20.5z" />
    <glyph glyph-name="onesuperior" unicode="&#xb9;" horiz-adv-x="221" 
d="M109 668l-88 -61v41l96 67h37v-343h-45v296z" />
    <glyph glyph-name="ordmasculine" unicode="&#xba;" horiz-adv-x="479" 
d="M238 344q64 0 105 45.5t41 120.5v6q0 75 -41 119.5t-105 44.5t-105.5 -45.5t-41.5 -119.5v-6q0 -74 41.5 -119.5t105.5 -45.5zM237 302q-85 0 -141.5 58t-56.5 149v6q0 92 57 149.5t142 57.5t141.5 -57t56.5 -149v-6q0 -94 -56.5 -151t-142.5 -57z" />
    <glyph glyph-name="guillemotright" unicode="&#xbb;" horiz-adv-x="452" 
d="M179 261l-132 178h54l135 -178l-135 -178h-54zM337 261l-132 178h54l135 -178l-135 -178h-54z" />
    <glyph glyph-name="onequarter" unicode="&#xbc;" horiz-adv-x="665" 
d="M112 668l-88 -61v41l96 67h37v-343h-45v296zM561 715h45l-516 -715h-45zM543 74h-178v15l164 254h57v-235h47v-34h-47v-74h-43v74zM544 108v201l-128 -201h128z" />
    <glyph glyph-name="onehalf" unicode="&#xbd;" horiz-adv-x="669" 
d="M113 668l-88 -61v41l96 67h37v-343h-45v296zM545 715h45l-516 -715h-45zM389 9l130 131q33 35 47.5 58.5t14.5 49.5q0 30 -18 47t-48 17q-64 0 -75 -78h-41q3 54 34.5 83.5t82.5 29.5t80 -26.5t29 -71.5q0 -33 -16.5 -61t-55.5 -66l-90 -87h166v-35h-240v9z" />
    <glyph glyph-name="threequarters" unicode="&#xbe;" horiz-adv-x="679" 
d="M156 368q-59 0 -93 29t-36 76h41q4 -32 25.5 -51.5t61.5 -19.5q78 0 78 67q0 30 -19 47.5t-54 17.5h-27v33h25q33 0 49.5 16t16.5 43t-17.5 43t-49.5 16q-34 0 -53.5 -18t-23.5 -48h-40q3 44 34.5 72t83.5 28q50 0 79.5 -25.5t29.5 -65.5q0 -56 -59 -75q31 -7 50.5 -29
t19.5 -56q0 -48 -32.5 -74t-89.5 -26zM602 715h45l-516 -715h-45zM553 74h-178v15l164 254h57v-235h47v-34h-47v-74h-43v74zM554 108v201l-128 -201h128z" />
    <glyph glyph-name="questiondown" unicode="&#xbf;" horiz-adv-x="481" 
d="M288 362q0 -38 -15.5 -71.5t-32 -52.5t-52.5 -55q-31 -31 -44 -45.5t-27 -43t-14 -57.5q0 -53 33 -85t97 -32q66 0 107.5 40t47.5 110h51q-6 -88 -62.5 -141.5t-144.5 -53.5q-89 0 -136.5 46t-47.5 114q0 12 1.5 23.5t3.5 20.5t7.5 19.5t8 17t11 17.5t11.5 15.5t14 16
t14 15t16 16t16 15.5q34 34 48 49.5t27.5 44.5t13.5 61v53h48v-57zM265 602q18 0 30.5 -12t12.5 -29q0 -18 -12.5 -30.5t-30.5 -12.5q-17 0 -29.5 12.5t-12.5 30.5q0 17 12.5 29t29.5 12z" />
    <glyph glyph-name="Agrave" unicode="&#xc0;" horiz-adv-x="658" 
d="M290 715h74l257 -715h-56l-79 219h-322l-78 -219h-53zM180 264h290l-145 405zM220 893h66l64 -122h-42z" />
    <glyph glyph-name="Aacute" unicode="&#xc1;" horiz-adv-x="658" 
d="M290 715h74l257 -715h-56l-79 219h-322l-78 -219h-53zM180 264h290l-145 405zM359 893h66l-88 -122h-42z" />
    <glyph glyph-name="Acircumflex" unicode="&#xc2;" horiz-adv-x="658" 
d="M290 715h74l257 -715h-56l-79 219h-322l-78 -219h-53zM180 264h290l-145 405zM299 893h50l108 -122h-42l-92 78l-93 -78h-41z" />
    <glyph glyph-name="Atilde" unicode="&#xc3;" horiz-adv-x="658" 
d="M290 715h74l257 -715h-56l-79 219h-322l-78 -219h-53zM180 264h290l-145 405zM385 774q-26 0 -67 26.5t-56 26.5q-38 0 -46 -54h-41q6 47 29.5 73t57.5 26q25 0 65.5 -26.5t57.5 -26.5q38 0 46 54h40q-6 -47 -29.5 -73t-56.5 -26z" />
    <glyph glyph-name="Adieresis" unicode="&#xc4;" horiz-adv-x="658" 
d="M290 715h74l257 -715h-56l-79 219h-322l-78 -219h-53zM180 264h290l-145 405zM233 788q-16 0 -26.5 11t-10.5 26t11 25.5t26 10.5t25.5 -11t10.5 -25q0 -15 -10.5 -26t-25.5 -11zM413 788q-15 0 -25.5 11t-10.5 26q0 14 10.5 25t25.5 11t25.5 -11t10.5 -25
q0 -15 -10.5 -26t-25.5 -11z" />
    <glyph glyph-name="Aring" unicode="&#xc5;" horiz-adv-x="658" 
d="M290 715h74l257 -715h-56l-79 219h-322l-78 -219h-53zM180 264h290l-145 405zM323 786q26 0 43.5 18.5t17.5 45.5t-17.5 45.5t-43.5 18.5t-43.5 -18.5t-17.5 -45.5t17.5 -45.5t43.5 -18.5zM323 754q-39 0 -68.5 28.5t-29.5 67.5t29.5 67t68.5 28q40 0 69 -28t29 -67
t-29 -67.5t-69 -28.5z" />
    <glyph glyph-name="AE" unicode="&#xc6;" horiz-adv-x="950" 
d="M392 715h491v-46h-355v-279h288v-46h-288v-298h373v-46h-429v220h-276l-110 -220h-57zM218 264h254v405h-51z" />
    <glyph glyph-name="Ccedilla" unicode="&#xc7;" horiz-adv-x="729" 
d="M371 -212q-41 0 -66.5 21t-29.5 57h44q3 -18 16 -30t34 -12q23 0 36.5 12t13.5 32q0 39 -45 39q-17 0 -36 -8l-26 21l41 73q-139 10 -219.5 107.5t-80.5 252.5v8q0 157 95.5 260t236.5 103q114 0 194 -58.5t95 -165.5h-56q-35 179 -232 179q-121 0 -198.5 -88t-77.5 -229
v-8q0 -145 74 -230t202 -85q98 0 162.5 49.5t81.5 141.5h52q-19 -111 -96 -173.5t-191 -64.5l-30 -53q39 9 70 -10.5t31 -62.5q0 -37 -27 -57.5t-68 -20.5z" />
    <glyph glyph-name="Egrave" unicode="&#xc8;" horiz-adv-x="570" 
d="M92 715h411v-46h-355v-279h288v-46h-288v-298h373v-46h-429v715zM196 893h66l64 -122h-42z" />
    <glyph glyph-name="Eacute" unicode="&#xc9;" horiz-adv-x="570" 
d="M92 715h411v-46h-355v-279h288v-46h-288v-298h373v-46h-429v715zM335 893h66l-88 -122h-42z" />
    <glyph glyph-name="Ecircumflex" unicode="&#xca;" horiz-adv-x="570" 
d="M92 715h411v-46h-355v-279h288v-46h-288v-298h373v-46h-429v715zM275 893h50l108 -122h-42l-92 78l-93 -78h-41z" />
    <glyph glyph-name="Edieresis" unicode="&#xcb;" horiz-adv-x="570" 
d="M92 715h411v-46h-355v-279h288v-46h-288v-298h373v-46h-429v715zM209 788q-16 0 -26.5 11t-10.5 26t11 25.5t26 10.5t25.5 -11t10.5 -25q0 -15 -10.5 -26t-25.5 -11zM389 788q-15 0 -25.5 11t-10.5 26q0 14 10.5 25t25.5 11t25.5 -11t10.5 -25q0 -15 -10.5 -26t-25.5 -11
z" />
    <glyph glyph-name="Igrave" unicode="&#xcc;" horiz-adv-x="254" 
d="M97 715h56v-715h-56v715zM22 893h66l64 -122h-42z" />
    <glyph glyph-name="Iacute" unicode="&#xcd;" horiz-adv-x="254" 
d="M97 715h56v-715h-56v715zM161 893h66l-88 -122h-42z" />
    <glyph glyph-name="Icircumflex" unicode="&#xce;" horiz-adv-x="254" 
d="M97 715h56v-715h-56v715zM101 893h50l108 -122h-42l-92 78l-93 -78h-41z" />
    <glyph glyph-name="Idieresis" unicode="&#xcf;" horiz-adv-x="254" 
d="M97 715h56v-715h-56v715zM35 788q-16 0 -26.5 11t-10.5 26t11 25.5t26 10.5t25.5 -11t10.5 -25q0 -15 -10.5 -26t-25.5 -11zM215 788q-15 0 -25.5 11t-10.5 26q0 14 10.5 25t25.5 11t25.5 -11t10.5 -25q0 -15 -10.5 -26t-25.5 -11z" />
    <glyph glyph-name="Eth" unicode="&#xd0;" horiz-adv-x="701" 
d="M28 381h75v334h185q171 0 263.5 -97.5t92.5 -253.5v-9q0 -157 -91 -256t-267 -99h-183v337h-75v44zM284 46q148 0 225.5 84.5t77.5 225.5v8q0 139 -76 222t-228 83h-124v-288h208v-44h-208v-291h125z" />
    <glyph glyph-name="Ntilde" unicode="&#xd1;" horiz-adv-x="717" 
d="M92 715h76l400 -638v638h53v-715h-66l-409 653v-653h-54v715zM429 774q-26 0 -67 26.5t-56 26.5q-38 0 -46 -54h-41q6 47 29.5 73t57.5 26q25 0 65.5 -26.5t57.5 -26.5q38 0 46 54h40q-6 -47 -29.5 -73t-56.5 -26z" />
    <glyph glyph-name="Ograve" unicode="&#xd2;" horiz-adv-x="805" 
d="M403 39q127 0 207.5 89.5t80.5 227.5v8q0 133 -80.5 223t-209.5 90q-130 0 -210.5 -89t-80.5 -226v-8q0 -136 84 -225.5t209 -89.5zM403 -8q-151 0 -250.5 104.5t-99.5 256.5v8q0 153 99 257.5t249 104.5t249 -104t99 -256v-8q0 -153 -98.5 -258t-247.5 -105zM297 893h66
l64 -122h-42z" />
    <glyph glyph-name="Oacute" unicode="&#xd3;" horiz-adv-x="805" 
d="M403 39q127 0 207.5 89.5t80.5 227.5v8q0 133 -80.5 223t-209.5 90q-130 0 -210.5 -89t-80.5 -226v-8q0 -136 84 -225.5t209 -89.5zM403 -8q-151 0 -250.5 104.5t-99.5 256.5v8q0 153 99 257.5t249 104.5t249 -104t99 -256v-8q0 -153 -98.5 -258t-247.5 -105zM436 893h66
l-88 -122h-42z" />
    <glyph glyph-name="Ocircumflex" unicode="&#xd4;" horiz-adv-x="805" 
d="M403 39q127 0 207.5 89.5t80.5 227.5v8q0 133 -80.5 223t-209.5 90q-130 0 -210.5 -89t-80.5 -226v-8q0 -136 84 -225.5t209 -89.5zM403 -8q-151 0 -250.5 104.5t-99.5 256.5v8q0 153 99 257.5t249 104.5t249 -104t99 -256v-8q0 -153 -98.5 -258t-247.5 -105zM376 893h50
l108 -122h-42l-92 78l-93 -78h-41z" />
    <glyph glyph-name="Otilde" unicode="&#xd5;" horiz-adv-x="805" 
d="M403 39q127 0 207.5 89.5t80.5 227.5v8q0 133 -80.5 223t-209.5 90q-130 0 -210.5 -89t-80.5 -226v-8q0 -136 84 -225.5t209 -89.5zM403 -8q-151 0 -250.5 104.5t-99.5 256.5v8q0 153 99 257.5t249 104.5t249 -104t99 -256v-8q0 -153 -98.5 -258t-247.5 -105zM462 774
q-26 0 -67 26.5t-56 26.5q-38 0 -46 -54h-41q6 47 29.5 73t57.5 26q25 0 65.5 -26.5t57.5 -26.5q38 0 46 54h40q-6 -47 -29.5 -73t-56.5 -26z" />
    <glyph glyph-name="Odieresis" unicode="&#xd6;" horiz-adv-x="805" 
d="M403 39q127 0 207.5 89.5t80.5 227.5v8q0 133 -80.5 223t-209.5 90q-130 0 -210.5 -89t-80.5 -226v-8q0 -136 84 -225.5t209 -89.5zM403 -8q-151 0 -250.5 104.5t-99.5 256.5v8q0 153 99 257.5t249 104.5t249 -104t99 -256v-8q0 -153 -98.5 -258t-247.5 -105zM310 788
q-16 0 -26.5 11t-10.5 26t10.5 25.5t26.5 10.5q15 0 25.5 -11t10.5 -25q0 -15 -10.5 -26t-25.5 -11zM490 788q-15 0 -25.5 11t-10.5 26q0 14 10.5 25t25.5 11t25.5 -11t10.5 -25q0 -15 -10.5 -26t-25.5 -11z" />
    <glyph glyph-name="multiply" unicode="&#xd7;" horiz-adv-x="487" 
d="M45 174l161 160l-161 161l31 32l161 -161l161 161l31 -32l-161 -161l161 -160l-31 -31l-161 160l-161 -160z" />
    <glyph glyph-name="Oslash" unicode="&#xd8;" horiz-adv-x="805" 
d="M41 5l97 107q-85 99 -85 241v8q0 153 99 257.5t249 104.5q125 0 221 -78l85 94l29 -30l-84 -92q97 -103 97 -254v-8q0 -153 -98.5 -258t-247.5 -105q-140 0 -236 90l-96 -106zM403 39q127 0 207.5 89.5t80.5 227.5v8q0 129 -73 216l-417 -461q82 -80 202 -80zM110 354
q0 -120 63 -203l416 458q-76 68 -188 68q-130 0 -210.5 -89t-80.5 -226v-8z" />
    <glyph glyph-name="Ugrave" unicode="&#xd9;" horiz-adv-x="686" 
d="M338 -7q-122 0 -189 67.5t-67 195.5v459h55v-453q0 -222 202 -222q105 0 155.5 55.5t50.5 179.5v440h56v-448q0 -131 -66.5 -202.5t-196.5 -71.5zM238 893h66l64 -122h-42z" />
    <glyph glyph-name="Uacute" unicode="&#xda;" horiz-adv-x="686" 
d="M338 -7q-122 0 -189 67.5t-67 195.5v459h55v-453q0 -222 202 -222q105 0 155.5 55.5t50.5 179.5v440h56v-448q0 -131 -66.5 -202.5t-196.5 -71.5zM377 893h66l-88 -122h-42z" />
    <glyph glyph-name="Ucircumflex" unicode="&#xdb;" horiz-adv-x="686" 
d="M338 -7q-122 0 -189 67.5t-67 195.5v459h55v-453q0 -222 202 -222q105 0 155.5 55.5t50.5 179.5v440h56v-448q0 -131 -66.5 -202.5t-196.5 -71.5zM317 893h50l108 -122h-42l-92 78l-93 -78h-41z" />
    <glyph glyph-name="Udieresis" unicode="&#xdc;" horiz-adv-x="686" 
d="M338 -7q-122 0 -189 67.5t-67 195.5v459h55v-453q0 -222 202 -222q105 0 155.5 55.5t50.5 179.5v440h56v-448q0 -131 -66.5 -202.5t-196.5 -71.5zM251 788q-16 0 -26.5 11t-10.5 26t11 25.5t26 10.5t25.5 -11t10.5 -25q0 -15 -10.5 -26t-25.5 -11zM431 788
q-15 0 -25.5 11t-10.5 26q0 14 10.5 25t25.5 11t25.5 -11t10.5 -25q0 -15 -10.5 -26t-25.5 -11z" />
    <glyph glyph-name="Yacute" unicode="&#xdd;" horiz-adv-x="582" 
d="M268 318l-245 397h62l212 -350l202 350h56l-231 -398v-317h-56v318zM328 893h66l-88 -122h-42z" />
    <glyph glyph-name="Thorn" unicode="&#xde;" horiz-adv-x="572" 
d="M92 715h56v-144h133q112 0 178 -47t66 -149v-4q0 -104 -66 -151.5t-178 -47.5h-133v-172h-56v715zM284 217q185 0 185 154v4q0 81 -47.5 115.5t-137.5 34.5h-136v-308h136z" />
    <glyph glyph-name="germandbls" unicode="&#xdf;" horiz-adv-x="574" 
d="M320 -7q-52 0 -94 16v46q37 -17 92 -17q67 0 111.5 39.5t44.5 130.5v7q0 88 -61.5 145t-154.5 55v46q78 -2 118.5 41t40.5 101v4q0 58 -35 91.5t-101 33.5q-68 0 -107 -42.5t-39 -115.5v-574h-53v572q0 91 56.5 147.5t142.5 56.5t136.5 -47t50.5 -122v-4q0 -56 -34 -100
t-94 -62q80 -16 134.5 -78t54.5 -148v-6q0 -113 -60 -164.5t-149 -51.5z" />
    <glyph glyph-name="agrave" unicode="&#xe0;" horiz-adv-x="533" 
d="M221 -8q-81 0 -129 38.5t-48 110.5q0 84 68 121t177 37h109v47q0 74 -31.5 107t-100.5 33q-130 0 -147 -111h-52q8 77 64.5 116.5t136.5 39.5q86 0 134.5 -44.5t48.5 -140.5v-346h-53v80q-57 -88 -177 -88zM225 35q73 0 123 38.5t50 95.5v89h-107q-59 0 -99.5 -9
t-67.5 -36t-27 -72q0 -106 128 -106zM161 752h65l68 -147h-41z" />
    <glyph glyph-name="aacute" unicode="&#xe1;" horiz-adv-x="533" 
d="M221 -8q-81 0 -129 38.5t-48 110.5q0 84 68 121t177 37h109v47q0 74 -31.5 107t-100.5 33q-130 0 -147 -111h-52q8 77 64.5 116.5t136.5 39.5q86 0 134.5 -44.5t48.5 -140.5v-346h-53v80q-57 -88 -177 -88zM225 35q73 0 123 38.5t50 95.5v89h-107q-59 0 -99.5 -9
t-67.5 -36t-27 -72q0 -106 128 -106zM308 752h65l-92 -147h-41z" />
    <glyph glyph-name="acircumflex" unicode="&#xe2;" horiz-adv-x="533" 
d="M221 -8q-81 0 -129 38.5t-48 110.5q0 84 68 121t177 37h109v47q0 74 -31.5 107t-100.5 33q-130 0 -147 -111h-52q8 77 64.5 116.5t136.5 39.5q86 0 134.5 -44.5t48.5 -140.5v-346h-53v80q-57 -88 -177 -88zM225 35q73 0 123 38.5t50 95.5v89h-107q-59 0 -99.5 -9
t-67.5 -36t-27 -72q0 -106 128 -106zM238 740h50l108 -135h-42l-92 90l-93 -90h-41z" />
    <glyph glyph-name="atilde" unicode="&#xe3;" horiz-adv-x="533" 
d="M221 -8q-81 0 -129 38.5t-48 110.5q0 84 68 121t177 37h109v47q0 74 -31.5 107t-100.5 33q-130 0 -147 -111h-52q8 77 64.5 116.5t136.5 39.5q86 0 134.5 -44.5t48.5 -140.5v-346h-53v80q-57 -88 -177 -88zM225 35q73 0 123 38.5t50 95.5v89h-107q-59 0 -99.5 -9
t-67.5 -36t-27 -72q0 -106 128 -106zM330 616q-25 0 -66.5 26.5t-57.5 26.5t-28.5 -14.5t-16.5 -38.5h-41q6 47 29.5 73t57.5 26q26 0 66.5 -26.5t56.5 -26.5q17 0 29.5 14t16.5 39h40q-6 -47 -29.5 -73t-56.5 -26z" />
    <glyph glyph-name="adieresis" unicode="&#xe4;" horiz-adv-x="533" 
d="M221 -8q-81 0 -129 38.5t-48 110.5q0 84 68 121t177 37h109v47q0 74 -31.5 107t-100.5 33q-130 0 -147 -111h-52q8 77 64.5 116.5t136.5 39.5q86 0 134.5 -44.5t48.5 -140.5v-346h-53v80q-57 -88 -177 -88zM225 35q73 0 123 38.5t50 95.5v89h-107q-59 0 -99.5 -9
t-67.5 -36t-27 -72q0 -106 128 -106zM185 636q-16 0 -26.5 11t-10.5 26t10.5 25.5t26.5 10.5q15 0 25.5 -10.5t10.5 -25.5t-10.5 -26t-25.5 -11zM351 636q-15 0 -25.5 11t-10.5 26t10.5 25.5t25.5 10.5q16 0 26.5 -10.5t10.5 -25.5t-10.5 -26t-26.5 -11z" />
    <glyph glyph-name="aring" unicode="&#xe5;" horiz-adv-x="533" 
d="M221 -8q-81 0 -129 38.5t-48 110.5q0 84 68 121t177 37h109v47q0 74 -31.5 107t-100.5 33q-130 0 -147 -111h-52q8 77 64.5 116.5t136.5 39.5q86 0 134.5 -44.5t48.5 -140.5v-346h-53v80q-57 -88 -177 -88zM225 35q73 0 123 38.5t50 95.5v89h-107q-59 0 -99.5 -9
t-67.5 -36t-27 -72q0 -106 128 -106zM268 633q26 0 43.5 18t17.5 45q0 28 -17.5 46t-43.5 18t-43.5 -18t-17.5 -46q0 -27 17.5 -45t43.5 -18zM268 601q-39 0 -68.5 28t-29.5 67t29.5 67.5t68.5 28.5q40 0 69 -28.5t29 -67.5t-29 -67t-69 -28z" />
    <glyph glyph-name="ae" unicode="&#xe6;" horiz-adv-x="901" 
d="M638 -8q-74 0 -128 34.5t-81 96.5q-26 -65 -80 -98t-128 -33q-81 0 -129 37.5t-48 110.5q0 159 243 159h113v46q0 74 -32.5 107.5t-101.5 33.5q-130 0 -147 -111h-52q8 77 65 116.5t136 39.5q139 0 171 -114q62 114 193 114q98 0 160.5 -65.5t62.5 -189.5v-18h-403
q5 -221 187 -221q134 0 159 109h53q-15 -74 -72.5 -114t-140.5 -40zM226 35q74 0 124 40t50 106v77h-112q-91 0 -141 -26t-50 -92q0 -105 129 -105zM801 299q-4 94 -48 140.5t-121 46.5q-75 0 -123 -50.5t-56 -136.5h348z" />
    <glyph glyph-name="ccedilla" unicode="&#xe7;" horiz-adv-x="560" 
d="M274 -212q-41 0 -66.5 21t-29.5 57h44q3 -18 16 -30t34 -12q23 0 36.5 12t13.5 32q0 39 -45 39q-17 0 -36 -8l-26 21l42 75q-95 12 -154.5 83t-59.5 178v8q0 118 72 192.5t178 74.5q85 0 147 -45t71 -129h-52q-9 63 -54.5 96t-111.5 33q-84 0 -139.5 -60.5t-55.5 -161.5
v-8q0 -101 55 -160t140 -59q68 0 116.5 38t57.5 106h49q-10 -83 -70.5 -135t-147.5 -54l-30 -53q39 9 70 -10.5t31 -62.5q0 -37 -27 -57.5t-68 -20.5z" />
    <glyph glyph-name="egrave" unicode="&#xe8;" horiz-adv-x="558" 
d="M291 -8q-113 0 -180.5 73t-67.5 191v8q0 118 67.5 192.5t172.5 74.5q100 0 164.5 -65.5t64.5 -189.5v-19h-414q2 -107 51 -163.5t142 -56.5q136 0 164 109h53q-17 -74 -74 -114t-143 -40zM457 300q-4 94 -49.5 140t-124.5 46q-77 0 -126 -50t-57 -136h357zM175 752h65
l68 -147h-41z" />
    <glyph glyph-name="eacute" unicode="&#xe9;" horiz-adv-x="558" 
d="M291 -8q-113 0 -180.5 73t-67.5 191v8q0 118 67.5 192.5t172.5 74.5q100 0 164.5 -65.5t64.5 -189.5v-19h-414q2 -107 51 -163.5t142 -56.5q136 0 164 109h53q-17 -74 -74 -114t-143 -40zM457 300q-4 94 -49.5 140t-124.5 46q-77 0 -126 -50t-57 -136h357zM322 752h65
l-92 -147h-41z" />
    <glyph glyph-name="ecircumflex" unicode="&#xea;" horiz-adv-x="558" 
d="M291 -8q-113 0 -180.5 73t-67.5 191v8q0 118 67.5 192.5t172.5 74.5q100 0 164.5 -65.5t64.5 -189.5v-19h-414q2 -107 51 -163.5t142 -56.5q136 0 164 109h53q-17 -74 -74 -114t-143 -40zM457 300q-4 94 -49.5 140t-124.5 46q-77 0 -126 -50t-57 -136h357zM258 740h50
l108 -135h-42l-92 90l-93 -90h-41z" />
    <glyph glyph-name="edieresis" unicode="&#xeb;" horiz-adv-x="558" 
d="M291 -8q-113 0 -180.5 73t-67.5 191v8q0 118 67.5 192.5t172.5 74.5q100 0 164.5 -65.5t64.5 -189.5v-19h-414q2 -107 51 -163.5t142 -56.5q136 0 164 109h53q-17 -74 -74 -114t-143 -40zM457 300q-4 94 -49.5 140t-124.5 46q-77 0 -126 -50t-57 -136h357zM199 636
q-16 0 -26.5 11t-10.5 26t10.5 25.5t26.5 10.5q15 0 25.5 -10.5t10.5 -25.5t-10.5 -26t-25.5 -11zM365 636q-15 0 -25.5 11t-10.5 26t10.5 25.5t25.5 10.5q16 0 26.5 -10.5t10.5 -25.5t-10.5 -26t-26.5 -11z" />
    <glyph glyph-name="igrave" unicode="&#xec;" horiz-adv-x="225" 
d="M84 523h53v-523h-53v523zM1 752h65l68 -147h-41z" />
    <glyph glyph-name="iacute" unicode="&#xed;" horiz-adv-x="225" 
d="M84 523h53v-523h-53v523zM154 752h65l-92 -147h-41z" />
    <glyph glyph-name="icircumflex" unicode="&#xee;" horiz-adv-x="225" 
d="M84 523h53v-523h-53v523zM87 740h50l108 -135h-42l-92 90l-93 -90h-41z" />
    <glyph glyph-name="idieresis" unicode="&#xef;" horiz-adv-x="225" 
d="M36 636q-15 0 -25.5 11t-10.5 26t10.5 25.5t25.5 10.5t26 -10.5t11 -25.5t-11 -26t-26 -11zM185 636q-15 0 -26 11t-11 26t11 25.5t26 10.5t25.5 -10.5t10.5 -25.5t-10.5 -26t-25.5 -11zM84 523h53v-523h-53v523z" />
    <glyph glyph-name="eth" unicode="&#xf0;" horiz-adv-x="598" 
d="M140 615l121 70q-53 43 -124 88h71q50 -28 96 -63l98 58l19 -33l-87 -50q214 -188 214 -407v-18q0 -117 -73 -192.5t-180 -75.5t-179.5 75t-72.5 190v8q0 115 71 190.5t168 75.5q112 0 180 -91q-52 114 -171 220l-132 -76zM295 37q86 0 142 60.5t56 160.5v13
q0 98 -56 156.5t-144 58.5q-84 0 -139.5 -60.5t-55.5 -160.5v-8q0 -99 55.5 -159.5t141.5 -60.5z" />
    <glyph glyph-name="ntilde" unicode="&#xf1;" horiz-adv-x="587" 
d="M82 523h53v-102q19 46 68.5 78t116.5 32q87 0 136.5 -51t49.5 -158v-322h-53v325q0 160 -145 160q-70 0 -121.5 -45t-51.5 -123v-317h-53v523zM352 616q-25 0 -66.5 26.5t-57.5 26.5t-28.5 -14.5t-16.5 -38.5h-41q6 47 29.5 73t57.5 26q26 0 66.5 -26.5t56.5 -26.5
q17 0 29.5 14t16.5 39h40q-6 -47 -29.5 -73t-56.5 -26z" />
    <glyph glyph-name="ograve" unicode="&#xf2;" horiz-adv-x="595" 
d="M296 37q86 0 141.5 60t55.5 160v8q0 102 -55.5 161.5t-141.5 59.5t-142 -60.5t-56 -160.5v-8q0 -99 55.5 -159.5t142.5 -60.5zM295 -8q-107 0 -179.5 75t-72.5 190v8q0 116 73 191t180 75q108 0 180 -74t72 -191v-8q0 -116 -73 -191t-180 -75zM188 752h65l68 -147h-41z
" />
    <glyph glyph-name="oacute" unicode="&#xf3;" horiz-adv-x="595" 
d="M296 37q86 0 141.5 60t55.5 160v8q0 102 -55.5 161.5t-141.5 59.5t-142 -60.5t-56 -160.5v-8q0 -99 55.5 -159.5t142.5 -60.5zM295 -8q-107 0 -179.5 75t-72.5 190v8q0 116 73 191t180 75q108 0 180 -74t72 -191v-8q0 -116 -73 -191t-180 -75zM335 752h65l-92 -147h-41z
" />
    <glyph glyph-name="ocircumflex" unicode="&#xf4;" horiz-adv-x="595" 
d="M296 37q86 0 141.5 60t55.5 160v8q0 102 -55.5 161.5t-141.5 59.5t-142 -60.5t-56 -160.5v-8q0 -99 55.5 -159.5t142.5 -60.5zM295 -8q-107 0 -179.5 75t-72.5 190v8q0 116 73 191t180 75q108 0 180 -74t72 -191v-8q0 -116 -73 -191t-180 -75zM271 740h50l108 -135h-42
l-92 90l-93 -90h-41z" />
    <glyph glyph-name="otilde" unicode="&#xf5;" horiz-adv-x="595" 
d="M296 37q86 0 141.5 60t55.5 160v8q0 102 -55.5 161.5t-141.5 59.5t-142 -60.5t-56 -160.5v-8q0 -99 55.5 -159.5t142.5 -60.5zM295 -8q-107 0 -179.5 75t-72.5 190v8q0 116 73 191t180 75q108 0 180 -74t72 -191v-8q0 -116 -73 -191t-180 -75zM357 616q-25 0 -66.5 26.5
t-57.5 26.5t-28.5 -14.5t-16.5 -38.5h-41q6 47 29.5 73t57.5 26q26 0 66 -26.5t57 -26.5t29.5 14t16.5 39h40q-6 -47 -29.5 -73t-56.5 -26z" />
    <glyph glyph-name="odieresis" unicode="&#xf6;" horiz-adv-x="595" 
d="M296 37q86 0 141.5 60t55.5 160v8q0 102 -55.5 161.5t-141.5 59.5t-142 -60.5t-56 -160.5v-8q0 -99 55.5 -159.5t142.5 -60.5zM295 -8q-107 0 -179.5 75t-72.5 190v8q0 116 73 191t180 75q108 0 180 -74t72 -191v-8q0 -116 -73 -191t-180 -75zM212 636q-16 0 -26.5 11
t-10.5 26t10.5 25.5t26.5 10.5q15 0 25.5 -10.5t10.5 -25.5t-10.5 -26t-25.5 -11zM378 636q-15 0 -25.5 11t-10.5 26t10.5 25.5t25.5 10.5q16 0 26.5 -10.5t10.5 -25.5t-10.5 -26t-26.5 -11z" />
    <glyph glyph-name="divide" unicode="&#xf7;" horiz-adv-x="514" 
d="M255 122q-18 0 -30.5 12.5t-12.5 30.5q0 17 12.5 29.5t30.5 12.5q17 0 29.5 -12.5t12.5 -29.5q0 -18 -12.5 -30.5t-29.5 -12.5zM36 365h438v-46h-438v46zM255 477q-18 0 -30.5 12.5t-12.5 30.5q0 17 12.5 29.5t30.5 12.5q17 0 29.5 -12.5t12.5 -29.5q0 -18 -12.5 -30.5
t-29.5 -12.5z" />
    <glyph glyph-name="oslash" unicode="&#xf8;" horiz-adv-x="595" 
d="M31 0l72 80q-60 72 -60 177v8q0 116 73 191t180 75q93 0 162 -58l64 72l29 -25l-66 -73q63 -76 63 -181v-8q0 -116 -73 -191t-180 -75q-97 0 -165 60l-69 -77zM296 37q86 0 141.5 60t55.5 160v8q0 86 -42 144l-289 -321q54 -51 134 -51zM98 257q0 -83 39 -139l288 319
q-52 49 -129 49q-86 0 -142 -60.5t-56 -160.5v-8z" />
    <glyph glyph-name="ugrave" unicode="&#xf9;" horiz-adv-x="583" 
d="M261 -8q-86 0 -135 48.5t-49 151.5v331h53v-328q0 -82 36 -119.5t107 -37.5q68 0 119.5 44.5t51.5 122.5v318h53v-523h-53v100q-19 -45 -68.5 -76.5t-114.5 -31.5zM182 752h65l68 -147h-41z" />
    <glyph glyph-name="uacute" unicode="&#xfa;" horiz-adv-x="583" 
d="M261 -8q-86 0 -135 48.5t-49 151.5v331h53v-328q0 -82 36 -119.5t107 -37.5q68 0 119.5 44.5t51.5 122.5v318h53v-523h-53v100q-19 -45 -68.5 -76.5t-114.5 -31.5zM329 752h65l-92 -147h-41z" />
    <glyph glyph-name="ucircumflex" unicode="&#xfb;" horiz-adv-x="583" 
d="M261 -8q-86 0 -135 48.5t-49 151.5v331h53v-328q0 -82 36 -119.5t107 -37.5q68 0 119.5 44.5t51.5 122.5v318h53v-523h-53v100q-19 -45 -68.5 -76.5t-114.5 -31.5zM265 740h50l108 -135h-42l-92 90l-93 -90h-41z" />
    <glyph glyph-name="udieresis" unicode="&#xfc;" horiz-adv-x="583" 
d="M261 -8q-86 0 -135 48.5t-49 151.5v331h53v-328q0 -82 36 -119.5t107 -37.5q68 0 119.5 44.5t51.5 122.5v318h53v-523h-53v100q-19 -45 -68.5 -76.5t-114.5 -31.5zM206 636q-16 0 -26.5 11t-10.5 26t10.5 25.5t26.5 10.5q15 0 25.5 -10.5t10.5 -25.5t-10.5 -26t-25.5 -11
zM372 636q-15 0 -25.5 11t-10.5 26t10.5 25.5t25.5 10.5q16 0 26.5 -10.5t10.5 -25.5t-10.5 -26t-26.5 -11z" />
    <glyph glyph-name="yacute" unicode="&#xfd;" horiz-adv-x="512" 
d="M232 45l-207 478h57l179 -417l167 417h54l-290 -705h-55zM297 752h65l-92 -147h-41z" />
    <glyph glyph-name="thorn" unicode="&#xfe;" horiz-adv-x="616" 
d="M82 773h53v-372q26 55 79.5 92.5t120.5 37.5q101 0 167.5 -72t66.5 -192v-8q0 -121 -65.5 -194t-169.5 -73q-72 0 -124.5 37t-74.5 90v-301h-53v955zM330 37q85 0 134.5 58t49.5 162v8q0 104 -52.5 162.5t-131.5 58.5q-82 0 -139 -59t-57 -162v-8q0 -103 55.5 -161.5
t140.5 -58.5z" />
    <glyph glyph-name="ydieresis" unicode="&#xff;" horiz-adv-x="512" 
d="M232 45l-207 478h57l179 -417l167 417h54l-290 -705h-55zM176 636q-16 0 -26.5 11t-10.5 26t10.5 25.5t26.5 10.5q15 0 25.5 -10.5t10.5 -25.5t-10.5 -26t-25.5 -11zM342 636q-15 0 -25.5 11t-10.5 26t10.5 25.5t25.5 10.5q16 0 26.5 -10.5t10.5 -25.5t-10.5 -26
t-26.5 -11z" />
    <glyph glyph-name="Amacron" unicode="&#x100;" horiz-adv-x="658" 
d="M290 715h74l257 -715h-56l-79 219h-322l-78 -219h-53zM180 264h290l-145 405zM199 833h248v-42h-248v42z" />
    <glyph glyph-name="amacron" unicode="&#x101;" horiz-adv-x="533" 
d="M221 -8q-81 0 -129 38.5t-48 110.5q0 84 68 121t177 37h109v47q0 74 -31.5 107t-100.5 33q-130 0 -147 -111h-52q8 77 64.5 116.5t136.5 39.5q86 0 134.5 -44.5t48.5 -140.5v-346h-53v80q-57 -88 -177 -88zM225 35q73 0 123 38.5t50 95.5v89h-107q-59 0 -99.5 -9
t-67.5 -36t-27 -72q0 -106 128 -106zM147 689h242v-42h-242v42z" />
    <glyph glyph-name="Abreve" unicode="&#x102;" horiz-adv-x="658" 
d="M290 715h74l257 -715h-56l-79 219h-322l-78 -219h-53zM180 264h290l-145 405zM321 771q-51 0 -87.5 35t-38.5 87h44q4 -36 25.5 -57t56.5 -21t58 21t28 57h43q-4 -52 -40.5 -87t-88.5 -35z" />
    <glyph glyph-name="abreve" unicode="&#x103;" horiz-adv-x="533" 
d="M221 -8q-81 0 -129 38.5t-48 110.5q0 84 68 121t177 37h109v47q0 74 -31.5 107t-100.5 33q-130 0 -147 -111h-52q8 77 64.5 116.5t136.5 39.5q86 0 134.5 -44.5t48.5 -140.5v-346h-53v80q-57 -88 -177 -88zM225 35q73 0 123 38.5t50 95.5v89h-107q-59 0 -99.5 -9
t-67.5 -36t-27 -72q0 -106 128 -106zM266 616q-51 0 -85 33.5t-37 87.5h44q4 -36 24 -56.5t54 -20.5q35 0 56.5 20.5t26.5 56.5h42q-3 -54 -38.5 -87.5t-86.5 -33.5z" />
    <glyph glyph-name="Aogonek" unicode="&#x104;" horiz-adv-x="658" 
d="M581 -182q-44 0 -68.5 20.5t-24.5 54.5q0 62 77 107l-79 219h-322l-78 -219h-53l257 715h74l256 -713q-81 -51 -81 -100q0 -44 49 -44q30 0 51 10v-39q-25 -11 -58 -11zM180 264h290l-145 405z" />
    <glyph glyph-name="aogonek" unicode="&#x105;" horiz-adv-x="533" 
d="M413 -182q-44 0 -68.5 20.5t-24.5 54.5q0 64 78 108v79q-57 -88 -177 -88q-81 0 -129 38.5t-48 110.5q0 84 68 121t177 37h109v47q0 74 -31.5 107t-100.5 33q-130 0 -147 -111h-52q8 77 64.5 116.5t136.5 39.5q86 0 134.5 -44.5t48.5 -140.5v-344q-80 -48 -80 -100
q0 -44 49 -44q29 0 50 10v-39q-24 -11 -57 -11zM225 35q73 0 123 38.5t50 95.5v89h-107q-59 0 -99.5 -9t-67.5 -36t-27 -72q0 -106 128 -106z" />
    <glyph glyph-name="Cacute" unicode="&#x106;" horiz-adv-x="729" 
d="M385 -8q-152 0 -242 99t-90 262v8q0 157 95.5 260t236.5 103q114 0 194 -58.5t95 -165.5h-56q-35 179 -232 179q-121 0 -198.5 -88t-77.5 -229v-8q0 -145 74 -230t202 -85q98 0 162.5 49.5t81.5 141.5h52q-20 -114 -99.5 -176t-197.5 -62zM423 893h66l-88 -122h-42z" />
    <glyph glyph-name="cacute" unicode="&#x107;" horiz-adv-x="560" 
d="M293 -8q-107 0 -178.5 73.5t-71.5 190.5v8q0 118 72 192.5t178 74.5q85 0 147 -45t71 -129h-52q-9 63 -54.5 96t-111.5 33q-84 0 -139.5 -60.5t-55.5 -161.5v-8q0 -101 55 -160t140 -59q68 0 116.5 38t57.5 106h49q-10 -84 -72 -136.5t-151 -52.5zM329 752h65l-92 -147
h-41z" />
    <glyph glyph-name="Ccircumflex" unicode="&#x108;" horiz-adv-x="729" 
d="M385 -8q-152 0 -242 99t-90 262v8q0 157 95.5 260t236.5 103q114 0 194 -58.5t95 -165.5h-56q-35 179 -232 179q-121 0 -198.5 -88t-77.5 -229v-8q0 -145 74 -230t202 -85q98 0 162.5 49.5t81.5 141.5h52q-20 -114 -99.5 -176t-197.5 -62zM363 893h50l108 -122h-42
l-92 78l-93 -78h-41z" />
    <glyph glyph-name="ccircumflex" unicode="&#x109;" horiz-adv-x="560" 
d="M293 -8q-107 0 -178.5 73.5t-71.5 190.5v8q0 118 72 192.5t178 74.5q85 0 147 -45t71 -129h-52q-9 63 -54.5 96t-111.5 33q-84 0 -139.5 -60.5t-55.5 -161.5v-8q0 -101 55 -160t140 -59q68 0 116.5 38t57.5 106h49q-10 -84 -72 -136.5t-151 -52.5zM265 740h50l108 -135
h-42l-92 90l-93 -90h-41z" />
    <glyph glyph-name="Cdotaccent" unicode="&#x10a;" horiz-adv-x="729" 
d="M385 -8q-152 0 -242 99t-90 262v8q0 157 95.5 260t236.5 103q114 0 194 -58.5t95 -165.5h-56q-35 179 -232 179q-121 0 -198.5 -88t-77.5 -229v-8q0 -145 74 -230t202 -85q98 0 162.5 49.5t81.5 141.5h52q-20 -114 -99.5 -176t-197.5 -62zM384 787q-16 0 -27 11t-11 27
q0 15 11 26t27 11t27 -11t11 -26q0 -16 -11 -27t-27 -11z" />
    <glyph glyph-name="cdotaccent" unicode="&#x10b;" horiz-adv-x="560" 
d="M293 -8q-107 0 -178.5 73.5t-71.5 190.5v8q0 118 72 192.5t178 74.5q85 0 147 -45t71 -129h-52q-9 63 -54.5 96t-111.5 33q-84 0 -139.5 -60.5t-55.5 -161.5v-8q0 -101 55 -160t140 -59q68 0 116.5 38t57.5 106h49q-10 -84 -72 -136.5t-151 -52.5zM289 635q-16 0 -27 11
t-11 27q0 15 11 26t27 11t27 -11t11 -26q0 -16 -11 -27t-27 -11z" />
    <glyph glyph-name="Ccaron" unicode="&#x10c;" horiz-adv-x="729" 
d="M385 -8q-152 0 -242 99t-90 262v8q0 157 95.5 260t236.5 103q114 0 194 -58.5t95 -165.5h-56q-35 179 -232 179q-121 0 -198.5 -88t-77.5 -229v-8q0 -145 74 -230t202 -85q98 0 162.5 49.5t81.5 141.5h52q-20 -114 -99.5 -176t-197.5 -62zM252 893h42l93 -77l94 77h41
l-111 -122h-50z" />
    <glyph glyph-name="ccaron" unicode="&#x10d;" horiz-adv-x="560" 
d="M293 -8q-107 0 -178.5 73.5t-71.5 190.5v8q0 118 72 192.5t178 74.5q85 0 147 -45t71 -129h-52q-9 63 -54.5 96t-111.5 33q-84 0 -139.5 -60.5t-55.5 -161.5v-8q0 -101 55 -160t140 -59q68 0 116.5 38t57.5 106h49q-10 -84 -72 -136.5t-151 -52.5zM155 748h42l92 -90
l93 90h41l-110 -135h-50z" />
    <glyph glyph-name="Dcaron" unicode="&#x10e;" horiz-adv-x="690" 
d="M274 46q148 0 225 84.5t77 225.5v8q0 139 -76 222t-227 83h-125v-623h126zM92 715h186q171 0 263.5 -97.5t92.5 -253.5v-9q0 -157 -91.5 -256t-266.5 -99h-184v715zM179 893h42l93 -77l94 77h41l-111 -122h-50z" />
    <glyph glyph-name="dcaron" unicode="&#x10f;" horiz-adv-x="616" 
d="M278 -8q-103 0 -169 70.5t-66 191.5v8q0 120 69 194.5t174 74.5q134 0 191 -124v366h53v-773h-53v121q-24 -53 -77 -91t-122 -38zM283 37q84 0 139.5 58.5t55.5 162.5v8q0 105 -51.5 162.5t-135.5 57.5q-86 0 -139.5 -59.5t-53.5 -162.5v-8q0 -104 52 -161.5t133 -57.5z
M597 773h60l-33 -162h-39z" />
    <glyph glyph-name="Dcroat" unicode="&#x110;" horiz-adv-x="701" 
d="M28 381h75v334h185q171 0 263.5 -97.5t92.5 -253.5v-9q0 -157 -91 -256t-267 -99h-183v337h-75v44zM284 46q148 0 225.5 84.5t77.5 225.5v8q0 139 -76 222t-228 83h-124v-288h208v-44h-208v-291h125z" />
    <glyph glyph-name="dcroat" unicode="&#x111;" horiz-adv-x="616" 
d="M288 664h189v109h53v-109h77v-41h-77v-623h-53v121q-24 -53 -77 -91t-122 -38q-103 0 -169 70.5t-66 191.5v8q0 120 69 194.5t174 74.5q134 0 191 -124v216h-189v41zM283 37q84 0 139.5 58.5t55.5 162.5v8q0 105 -51.5 162.5t-135.5 57.5q-86 0 -139.5 -59.5
t-53.5 -162.5v-8q0 -104 52 -161.5t133 -57.5z" />
    <glyph glyph-name="Emacron" unicode="&#x112;" horiz-adv-x="570" 
d="M92 715h411v-46h-355v-279h288v-46h-288v-298h373v-46h-429v715zM175 833h248v-42h-248v42z" />
    <glyph glyph-name="emacron" unicode="&#x113;" horiz-adv-x="558" 
d="M291 -8q-113 0 -180.5 73t-67.5 191v8q0 118 67.5 192.5t172.5 74.5q100 0 164.5 -65.5t64.5 -189.5v-19h-414q2 -107 51 -163.5t142 -56.5q136 0 164 109h53q-17 -74 -74 -114t-143 -40zM457 300q-4 94 -49.5 140t-124.5 46q-77 0 -126 -50t-57 -136h357zM161 689h242
v-42h-242v42z" />
    <glyph glyph-name="Ebreve" unicode="&#x114;" horiz-adv-x="570" 
d="M92 715h411v-46h-355v-279h288v-46h-288v-298h373v-46h-429v715zM301 771q-51 0 -87.5 35t-38.5 87h44q4 -36 25.5 -57t56.5 -21t58 21t28 57h43q-4 -52 -40.5 -87t-88.5 -35z" />
    <glyph glyph-name="ebreve" unicode="&#x115;" horiz-adv-x="558" 
d="M291 -8q-113 0 -180.5 73t-67.5 191v8q0 118 67.5 192.5t172.5 74.5q100 0 164.5 -65.5t64.5 -189.5v-19h-414q2 -107 51 -163.5t142 -56.5q136 0 164 109h53q-17 -74 -74 -114t-143 -40zM457 300q-4 94 -49.5 140t-124.5 46q-77 0 -126 -50t-57 -136h357zM276 616
q-51 0 -85 33.5t-37 87.5h44q4 -36 24 -56.5t54 -20.5q35 0 56.5 20.5t26.5 56.5h42q-3 -54 -38.5 -87.5t-86.5 -33.5z" />
    <glyph glyph-name="Edotaccent" unicode="&#x116;" horiz-adv-x="570" 
d="M92 715h411v-46h-355v-279h288v-46h-288v-298h373v-46h-429v715zM299 787q-16 0 -27 11t-11 27q0 15 11 26t27 11t27 -11t11 -26q0 -16 -11 -27t-27 -11z" />
    <glyph glyph-name="edotaccent" unicode="&#x117;" horiz-adv-x="558" 
d="M291 -8q-113 0 -180.5 73t-67.5 191v8q0 118 67.5 192.5t172.5 74.5q100 0 164.5 -65.5t64.5 -189.5v-19h-414q2 -107 51 -163.5t142 -56.5q136 0 164 109h53q-17 -74 -74 -114t-143 -40zM457 300q-4 94 -49.5 140t-124.5 46q-77 0 -126 -50t-57 -136h357zM282 635
q-16 0 -27 11t-11 27q0 15 11 26t27 11t27 -11t11 -26q0 -16 -11 -27t-27 -11z" />
    <glyph glyph-name="Eogonek" unicode="&#x118;" horiz-adv-x="570" 
d="M437 -182q-44 0 -69 20.5t-25 54.5q0 63 78 107h-329v715h411v-46h-355v-279h288v-46h-288v-298h373v-46h-51q-75 -49 -75 -98q0 -44 49 -44q29 0 50 10v-39q-24 -11 -57 -11z" />
    <glyph glyph-name="eogonek" unicode="&#x119;" horiz-adv-x="558" 
d="M374 -182q-44 0 -68.5 20.5t-24.5 54.5q0 60 77 108q-33 -9 -67 -9q-113 0 -180.5 73t-67.5 191v8q0 118 67.5 192.5t172.5 74.5q100 0 164.5 -65.5t64.5 -189.5v-19h-414q2 -107 51 -163.5t142 -56.5q136 0 164 109h53q-16 -71 -80 -123q-4 -3 -17 -13.5t-17.5 -14.5
t-15.5 -13.5t-15.5 -15t-12 -14.5t-10.5 -16t-5.5 -16t-2.5 -18q0 -44 49 -44q29 0 50 10v-39q-24 -11 -57 -11zM457 300q-4 94 -49.5 140t-124.5 46q-77 0 -126 -50t-57 -136h357z" />
    <glyph glyph-name="Ecaron" unicode="&#x11a;" horiz-adv-x="570" 
d="M92 715h411v-46h-355v-279h288v-46h-288v-298h373v-46h-429v715zM166 893h42l93 -77l94 77h41l-111 -122h-50z" />
    <glyph glyph-name="ecaron" unicode="&#x11b;" horiz-adv-x="558" 
d="M291 -8q-113 0 -180.5 73t-67.5 191v8q0 118 67.5 192.5t172.5 74.5q100 0 164.5 -65.5t64.5 -189.5v-19h-414q2 -107 51 -163.5t142 -56.5q136 0 164 109h53q-17 -74 -74 -114t-143 -40zM457 300q-4 94 -49.5 140t-124.5 46q-77 0 -126 -50t-57 -136h357zM148 748h42
l92 -90l93 90h41l-110 -135h-50z" />
    <glyph glyph-name="Gcircumflex" unicode="&#x11c;" horiz-adv-x="760" 
d="M396 -8q-159 0 -251 100.5t-92 260.5v8q0 156 97 259.5t244 103.5q109 0 188.5 -53.5t98.5 -159.5h-56q-38 168 -230 168q-128 0 -206.5 -88.5t-78.5 -228.5v-8q0 -145 75 -230.5t211 -85.5q123 0 187 69.5t66 190.5v4h-220v47h274v-41q0 -151 -83 -233.5t-224 -82.5z
M366 893h50l108 -122h-42l-92 78l-93 -78h-41z" />
    <glyph glyph-name="gcircumflex" unicode="&#x11d;" horiz-adv-x="616" 
d="M288 -188q-107 0 -165 44.5t-69 113.5h54q25 -113 179 -113q89 0 139.5 43.5t50.5 136.5v107q-24 -52 -77 -89.5t-121 -37.5q-102 0 -169 69t-67 181v7q0 111 69 184t174 73q136 0 191 -121v113h53v-488q0 -112 -66 -167.5t-176 -55.5zM284 62q82 0 138 56.5t56 151.5v8
q0 97 -51.5 152.5t-135.5 55.5q-86 0 -139.5 -56.5t-53.5 -153.5v-8q0 -95 53 -150.5t133 -55.5zM265 740h50l108 -135h-42l-92 90l-93 -90h-41z" />
    <glyph glyph-name="Gbreve" unicode="&#x11e;" horiz-adv-x="760" 
d="M396 -8q-159 0 -251 100.5t-92 260.5v8q0 156 97 259.5t244 103.5q109 0 188.5 -53.5t98.5 -159.5h-56q-38 168 -230 168q-128 0 -206.5 -88.5t-78.5 -228.5v-8q0 -145 75 -230.5t211 -85.5q123 0 187 69.5t66 190.5v4h-220v47h274v-41q0 -151 -83 -233.5t-224 -82.5z
M388 771q-51 0 -87.5 35t-38.5 87h44q4 -36 25.5 -57t56.5 -21t58 21t28 57h43q-4 -52 -40.5 -87t-88.5 -35z" />
    <glyph glyph-name="gbreve" unicode="&#x11f;" horiz-adv-x="616" 
d="M288 -188q-107 0 -165 44.5t-69 113.5h54q25 -113 179 -113q89 0 139.5 43.5t50.5 136.5v107q-24 -52 -77 -89.5t-121 -37.5q-102 0 -169 69t-67 181v7q0 111 69 184t174 73q136 0 191 -121v113h53v-488q0 -112 -66 -167.5t-176 -55.5zM284 62q82 0 138 56.5t56 151.5v8
q0 97 -51.5 152.5t-135.5 55.5q-86 0 -139.5 -56.5t-53.5 -153.5v-8q0 -95 53 -150.5t133 -55.5zM288 616q-51 0 -85 33.5t-37 87.5h44q4 -36 24 -56.5t54 -20.5q35 0 56.5 20.5t26.5 56.5h42q-3 -54 -38.5 -87.5t-86.5 -33.5z" />
    <glyph glyph-name="Gdotaccent" unicode="&#x120;" horiz-adv-x="760" 
d="M396 -8q-159 0 -251 100.5t-92 260.5v8q0 156 97 259.5t244 103.5q109 0 188.5 -53.5t98.5 -159.5h-56q-38 168 -230 168q-128 0 -206.5 -88.5t-78.5 -228.5v-8q0 -145 75 -230.5t211 -85.5q123 0 187 69.5t66 190.5v4h-220v47h274v-41q0 -151 -83 -233.5t-224 -82.5z
M390 787q-16 0 -27 11t-11 27q0 15 11 26t27 11t27 -11t11 -26q0 -16 -11 -27t-27 -11z" />
    <glyph glyph-name="gdotaccent" unicode="&#x121;" horiz-adv-x="616" 
d="M288 -188q-107 0 -165 44.5t-69 113.5h54q25 -113 179 -113q89 0 139.5 43.5t50.5 136.5v107q-24 -52 -77 -89.5t-121 -37.5q-102 0 -169 69t-67 181v7q0 111 69 184t174 73q136 0 191 -121v113h53v-488q0 -112 -66 -167.5t-176 -55.5zM284 62q82 0 138 56.5t56 151.5v8
q0 97 -51.5 152.5t-135.5 55.5q-86 0 -139.5 -56.5t-53.5 -153.5v-8q0 -95 53 -150.5t133 -55.5zM289 635q-16 0 -27 11t-11 27q0 15 11 26t27 11t27 -11t11 -26q0 -16 -11 -27t-27 -11z" />
    <glyph glyph-name="uni0122" unicode="&#x122;" horiz-adv-x="756" 
d="M396 -8q-159 0 -251 100.5t-92 260.5v8q0 156 97 259.5t244 103.5q109 0 188.5 -53.5t98.5 -159.5h-56q-38 168 -230 168q-128 0 -206.5 -88.5t-78.5 -228.5v-8q0 -145 75 -230.5t211 -85.5q123 0 187 69.5t66 190.5v4h-220v47h274v-41q0 -151 -83 -233.5t-224 -82.5z
M318 -188l58 147l51 -15l-75 -148z" />
    <glyph glyph-name="uni0123" unicode="&#x123;" horiz-adv-x="612" 
d="M288 -188q-107 0 -165 44.5t-69 113.5h54q25 -113 179 -113q89 0 139.5 43.5t50.5 136.5v107q-24 -52 -77 -89.5t-121 -37.5q-102 0 -169 69t-67 181v7q0 111 69 184t174 73q136 0 191 -121v113h53v-488q0 -112 -66 -167.5t-176 -55.5zM284 62q82 0 138 56.5t56 151.5v8
q0 97 -51.5 152.5t-135.5 55.5q-86 0 -139.5 -56.5t-53.5 -153.5v-8q0 -95 53 -150.5t133 -55.5zM260 622l75 148l35 -17l-58 -146z" />
    <glyph glyph-name="Hcircumflex" unicode="&#x124;" horiz-adv-x="721" 
d="M92 715h56v-333h421v333h56v-715h-56v335h-421v-335h-56v715zM334 893h50l108 -122h-42l-92 78l-93 -78h-41z" />
    <glyph glyph-name="hcircumflex" unicode="&#x125;" horiz-adv-x="587" 
d="M82 773h53v-352q19 46 68.5 78t116.5 32q87 0 136.5 -51t49.5 -158v-322h-53v325q0 160 -145 160q-70 0 -121.5 -45t-51.5 -123v-317h-53v773zM276 938h50l108 -122h-42l-92 78l-93 -78h-41z" />
    <glyph glyph-name="Hbar" unicode="&#x126;" horiz-adv-x="721" 
d="M13 554h79v161h56v-161h421v161h56v-161h79v-44h-79v-510h-56v335h-421v-335h-56v510h-79v44zM569 382v128h-421v-128h421z" />
    <glyph glyph-name="hbar" unicode="&#x127;" horiz-adv-x="587" 
d="M4 664h78v109h53v-109h189v-41h-189v-202q19 46 68.5 78t116.5 32q87 0 136.5 -51t49.5 -158v-322h-53v325q0 160 -145 160q-70 0 -121.5 -45t-51.5 -123v-317h-53v623h-78v41z" />
    <glyph glyph-name="Itilde" unicode="&#x128;" horiz-adv-x="254" 
d="M97 715h56v-715h-56v715zM188 774q-26 0 -67 26.5t-56 26.5q-38 0 -46 -54h-41q6 47 29.5 73t57.5 26q25 0 65.5 -26.5t57.5 -26.5q38 0 46 54h40q-6 -47 -29.5 -73t-56.5 -26z" />
    <glyph glyph-name="itilde" unicode="&#x129;" horiz-adv-x="225" 
d="M84 523h53v-523h-53v523zM174 616q-25 0 -66.5 26.5t-57.5 26.5t-28.5 -14.5t-16.5 -38.5h-41q6 47 29.5 73t57.5 26q25 0 66 -26.5t57 -26.5q17 0 29.5 14t16.5 39h40q-6 -47 -29.5 -73t-56.5 -26z" />
    <glyph glyph-name="Imacron" unicode="&#x12a;" horiz-adv-x="254" 
d="M97 715h56v-715h-56v715zM1 833h248v-42h-248v42z" />
    <glyph glyph-name="imacron" unicode="&#x12b;" horiz-adv-x="225" 
d="M24 689h173v-42h-173v42zM84 523h53v-523h-53v523z" />
    <glyph glyph-name="Ibreve" unicode="&#x12c;" horiz-adv-x="254" 
d="M97 715h56v-715h-56v715zM125 771q-51 0 -87.5 35t-38.5 87h44q4 -36 25.5 -57t56.5 -21t58 21t28 57h43q-4 -52 -40.5 -87t-88.5 -35z" />
    <glyph glyph-name="ibreve" unicode="&#x12d;" horiz-adv-x="225" 
d="M84 523h53v-523h-53v523zM110 616q-51 0 -85 33.5t-37 87.5h44q4 -36 24 -56.5t54 -20.5q35 0 56.5 20.5t26.5 56.5h42q-3 -54 -38.5 -87.5t-86.5 -33.5z" />
    <glyph glyph-name="Iogonek" unicode="&#x12e;" horiz-adv-x="254" 
d="M124 -182q-44 0 -69 20.5t-25 54.5q0 56 67 106v716h56v-713q-71 -48 -71 -100q0 -44 49 -44q29 0 50 10v-39q-24 -11 -57 -11z" />
    <glyph glyph-name="iogonek" unicode="&#x12f;" horiz-adv-x="225" 
d="M113 -182q-44 0 -68.5 20.5t-24.5 54.5q0 56 64 105v525h53v-521q-66 -51 -66 -100q0 -44 49 -44q29 0 50 10v-39q-24 -11 -57 -11zM110 635q-16 0 -27 11t-11 27q0 15 11 26t27 11t26.5 -11t10.5 -26q0 -16 -10.5 -27t-26.5 -11z" />
    <glyph glyph-name="Idotaccent" unicode="&#x130;" horiz-adv-x="254" 
d="M97 715h56v-715h-56v715zM125 787q-16 0 -27 11t-11 27q0 15 11 26t27 11t27 -11t11 -26q0 -16 -11 -27t-27 -11z" />
    <glyph glyph-name="dotlessi" unicode="&#x131;" horiz-adv-x="225" 
d="M84 523h53v-523h-53v523z" />
    <glyph glyph-name="IJ" unicode="&#x132;" horiz-adv-x="620" 
d="M97 715h56v-715h-56v715zM351 -7q-58 0 -100 20v47q48 -21 97 -21q129 0 129 144v532h56v-534q0 -95 -49.5 -141.5t-132.5 -46.5z" />
    <glyph glyph-name="ij" unicode="&#x133;" horiz-adv-x="225" 
d="M84 523h53v-523h-53v523zM110 635q-16 0 -27 11t-11 27q0 15 11 26t27 11t26.5 -11t10.5 -26q0 -16 -10.5 -27t-26.5 -11zM228 -143q43 4 60 25.5t17 65.5v575h53v-571q0 -70 -29.5 -103.5t-100.5 -36.5v45zM331 635q-16 0 -27 11t-11 27q0 15 11 26t27 11t26.5 -11
t10.5 -26q0 -16 -10.5 -27t-26.5 -11z" />
    <glyph glyph-name="Jcircumflex" unicode="&#x134;" horiz-adv-x="405" 
d="M137 -7q-58 0 -100 20v47q48 -21 97 -21q129 0 129 144v532h56v-534q0 -95 -49.5 -141.5t-132.5 -46.5zM266 893h50l108 -122h-42l-92 78l-93 -78h-41z" />
    <glyph glyph-name="jcircumflex" unicode="&#x135;" horiz-adv-x="225" 
d="M7 -143q43 4 60 25.5t17 65.5v575h53v-571q0 -70 -29.5 -103.5t-100.5 -36.5v45zM87 740h50l108 -135h-42l-92 90l-93 -90h-41z" />
    <glyph glyph-name="uni0136" unicode="&#x136;" horiz-adv-x="599" 
d="M92 715h56v-352l347 353h64l-346 -349l363 -367h-68l-360 361v-361h-56v715zM240 -188l58 147l51 -15l-75 -148z" />
    <glyph glyph-name="uni0137" unicode="&#x137;" horiz-adv-x="487" 
d="M82 773h53v-496l255 246h63l-255 -244l272 -279h-66l-269 277v-277h-53v773zM183 -188l58 147l51 -15l-75 -148z" />
    <glyph glyph-name="Lacute" unicode="&#x139;" horiz-adv-x="534" 
d="M92 715h56v-669h347v-46h-403v715zM159 893h66l-88 -122h-42z" />
    <glyph glyph-name="lacute" unicode="&#x13a;" horiz-adv-x="226" 
d="M84 773h54v-773h-54v773zM148 938h66l-88 -122h-42z" />
    <glyph glyph-name="uni013B" unicode="&#x13b;" horiz-adv-x="530" 
d="M92 715h56v-669h347v-46h-403v715zM217 -188l58 147l51 -15l-75 -148z" />
    <glyph glyph-name="uni013C" unicode="&#x13c;" horiz-adv-x="222" 
d="M84 773h54v-773h-54v773zM38 -188l58 147l51 -15l-75 -148z" />
    <glyph glyph-name="Lcaron" unicode="&#x13d;" horiz-adv-x="534" 
d="M328 715h59l-44 -157h-39zM92 715h56v-669h347v-46h-403v715z" />
    <glyph glyph-name="lcaron" unicode="&#x13e;" horiz-adv-x="226" 
d="M84 773h54v-773h-54v773zM205 773h60l-33 -162h-39z" />
    <glyph glyph-name="Ldot" unicode="&#x13f;" horiz-adv-x="534" 
d="M92 715h56v-669h347v-46h-403v715zM419 333q-17 0 -29.5 12.5t-12.5 30.5q0 17 12.5 29.5t29.5 12.5q18 0 30.5 -12.5t12.5 -29.5q0 -18 -12.5 -30.5t-30.5 -12.5z" />
    <glyph glyph-name="ldot" unicode="&#x140;" horiz-adv-x="283" 
d="M84 773h54v-773h-54v773zM249 330q-17 0 -29.5 12.5t-12.5 30.5q0 17 12.5 29.5t29.5 12.5q18 0 30.5 -12.5t12.5 -29.5q0 -18 -12.5 -30.5t-30.5 -12.5z" />
    <glyph glyph-name="Lslash" unicode="&#x141;" horiz-adv-x="549" 
d="M34 304l73 27v384h56v-364l222 83v-45l-222 -83v-260h347v-46h-403v286l-73 -27v45z" />
    <glyph glyph-name="lslash" unicode="&#x142;" horiz-adv-x="243" 
d="M16 378l77 48v347h53v-313l81 51v-46l-81 -51v-414h-53v380l-77 -48v46z" />
    <glyph glyph-name="Nacute" unicode="&#x143;" horiz-adv-x="717" 
d="M92 715h76l400 -638v638h53v-715h-66l-409 653v-653h-54v715zM403 893h66l-88 -122h-42z" />
    <glyph glyph-name="nacute" unicode="&#x144;" horiz-adv-x="587" 
d="M82 523h53v-102q19 46 68.5 78t116.5 32q87 0 136.5 -51t49.5 -158v-322h-53v325q0 160 -145 160q-70 0 -121.5 -45t-51.5 -123v-317h-53v523zM330 752h65l-92 -147h-41z" />
    <glyph glyph-name="uni0145" unicode="&#x145;" horiz-adv-x="713" 
d="M92 715h76l400 -638v638h53v-715h-66l-409 653v-653h-54v715zM274 -188l58 147l51 -15l-75 -148z" />
    <glyph glyph-name="uni0146" unicode="&#x146;" horiz-adv-x="583" 
d="M82 523h53v-102q19 46 68.5 78t116.5 32q87 0 136.5 -51t49.5 -158v-322h-53v325q0 160 -145 160q-70 0 -121.5 -45t-51.5 -123v-317h-53v523zM218 -188l58 147l51 -15l-75 -148z" />
    <glyph glyph-name="Ncaron" unicode="&#x147;" horiz-adv-x="717" 
d="M92 715h76l400 -638v638h53v-715h-66l-409 653v-653h-54v715zM232 893h42l93 -77l94 77h41l-111 -122h-50z" />
    <glyph glyph-name="ncaron" unicode="&#x148;" horiz-adv-x="587" 
d="M82 523h53v-102q19 46 68.5 78t116.5 32q87 0 136.5 -51t49.5 -158v-322h-53v325q0 160 -145 160q-70 0 -121.5 -45t-51.5 -123v-317h-53v523zM156 748h42l92 -90l93 90h41l-110 -135h-50z" />
    <glyph glyph-name="napostrophe" unicode="&#x149;" horiz-adv-x="594" 
d="M88 523h53v-102q19 46 68.5 78t116.5 32q87 0 136.5 -51t49.5 -158v-322h-53v325q0 160 -145 160q-70 0 -121.5 -45t-51.5 -123v-317h-53v523zM-35 545l75 177l51 -22l-92 -172z" />
    <glyph glyph-name="Eng" unicode="&#x14a;" horiz-adv-x="717" 
d="M439 -190q-65 0 -100 20v47q48 -21 98 -21q128 0 129 139l-420 658v-653h-54v715h76l400 -625v625h53v-713q0 -98 -49 -145t-133 -47z" />
    <glyph glyph-name="eng" unicode="&#x14b;" horiz-adv-x="587" 
d="M366 -143q48 5 67.5 28.5t19.5 73.5v366q0 160 -145 160q-70 0 -121.5 -45t-51.5 -123v-317h-53v523h53v-102q19 46 68.5 78t116.5 32q87 0 136.5 -51t49.5 -158v-359q0 -76 -32.5 -111.5t-107.5 -39.5v45z" />
    <glyph glyph-name="Omacron" unicode="&#x14c;" horiz-adv-x="805" 
d="M403 39q127 0 207.5 89.5t80.5 227.5v8q0 133 -80.5 223t-209.5 90q-130 0 -210.5 -89t-80.5 -226v-8q0 -136 84 -225.5t209 -89.5zM403 -8q-151 0 -250.5 104.5t-99.5 256.5v8q0 153 99 257.5t249 104.5t249 -104t99 -256v-8q0 -153 -98.5 -258t-247.5 -105zM276 833
h248v-42h-248v42z" />
    <glyph glyph-name="omacron" unicode="&#x14d;" horiz-adv-x="595" 
d="M296 37q86 0 141.5 60t55.5 160v8q0 102 -55.5 161.5t-141.5 59.5t-142 -60.5t-56 -160.5v-8q0 -99 55.5 -159.5t142.5 -60.5zM295 -8q-107 0 -179.5 75t-72.5 190v8q0 116 73 191t180 75q108 0 180 -74t72 -191v-8q0 -116 -73 -191t-180 -75zM174 689h242v-42h-242v42z
" />
    <glyph glyph-name="Obreve" unicode="&#x14e;" horiz-adv-x="805" 
d="M403 39q127 0 207.5 89.5t80.5 227.5v8q0 133 -80.5 223t-209.5 90q-130 0 -210.5 -89t-80.5 -226v-8q0 -136 84 -225.5t209 -89.5zM403 -8q-151 0 -250.5 104.5t-99.5 256.5v8q0 153 99 257.5t249 104.5t249 -104t99 -256v-8q0 -153 -98.5 -258t-247.5 -105zM398 771
q-51 0 -87.5 35t-38.5 87h44q4 -36 25.5 -57t56.5 -21t58 21t28 57h43q-4 -52 -40.5 -87t-88.5 -35z" />
    <glyph glyph-name="obreve" unicode="&#x14f;" horiz-adv-x="595" 
d="M296 37q86 0 141.5 60t55.5 160v8q0 102 -55.5 161.5t-141.5 59.5t-142 -60.5t-56 -160.5v-8q0 -99 55.5 -159.5t142.5 -60.5zM295 -8q-107 0 -179.5 75t-72.5 190v8q0 116 73 191t180 75q108 0 180 -74t72 -191v-8q0 -116 -73 -191t-180 -75zM294 616q-51 0 -85 33.5
t-37 87.5h44q4 -36 24 -56.5t54 -20.5q35 0 56.5 20.5t26.5 56.5h42q-3 -54 -38.5 -87.5t-86.5 -33.5z" />
    <glyph glyph-name="Ohungarumlaut" unicode="&#x150;" horiz-adv-x="805" 
d="M403 39q127 0 207.5 89.5t80.5 227.5v8q0 133 -80.5 223t-209.5 90q-130 0 -210.5 -89t-80.5 -226v-8q0 -136 84 -225.5t209 -89.5zM403 -8q-151 0 -250.5 104.5t-99.5 256.5v8q0 153 99 257.5t249 104.5t249 -104t99 -256v-8q0 -153 -98.5 -258t-247.5 -105zM355 893h60
l-65 -122h-40zM487 893h60l-65 -122h-40z" />
    <glyph glyph-name="ohungarumlaut" unicode="&#x151;" horiz-adv-x="595" 
d="M296 37q86 0 141.5 60t55.5 160v8q0 102 -55.5 161.5t-141.5 59.5t-142 -60.5t-56 -160.5v-8q0 -99 55.5 -159.5t142.5 -60.5zM295 -8q-107 0 -179.5 75t-72.5 190v8q0 116 73 191t180 75q108 0 180 -74t72 -191v-8q0 -116 -73 -191t-180 -75zM258 752h60l-69 -147h-40z
M390 752h60l-69 -147h-40z" />
    <glyph glyph-name="OE" unicode="&#x152;" horiz-adv-x="960" 
d="M53 359q0 101 37.5 180t120 127.5t200.5 48.5h482v-46h-340v-279h273v-46h-273v-298h358v-46h-502q-171 0 -263.5 97.5t-92.5 253.5v8zM413 669q-148 0 -225.5 -84.5t-77.5 -225.5v-8q0 -139 76 -222t228 -83h84v623h-85z" />
    <glyph glyph-name="oe" unicode="&#x153;" horiz-adv-x="1007" 
d="M295 -8q-107 0 -179.5 75t-72.5 190v8q0 116 73 191t180 75q78 0 137 -40t87 -111q27 71 82 111t131 40q99 0 163.5 -65.5t64.5 -189.5v-19h-414q2 -107 51.5 -163.5t142.5 -56.5q138 0 163 109h53q-16 -74 -73.5 -114t-143.5 -40q-82 0 -139 40t-82 111
q-28 -70 -87.5 -110.5t-136.5 -40.5zM296 37q86 0 141.5 60t55.5 160v8q0 102 -55.5 161.5t-141.5 59.5t-142 -60.5t-56 -160.5v-8q0 -99 55.5 -159.5t142.5 -60.5zM907 300q-4 93 -50 139.5t-124 46.5q-76 0 -126 -50t-58 -136h358z" />
    <glyph glyph-name="Racute" unicode="&#x154;" horiz-adv-x="610" 
d="M92 715h196q111 0 177 -46.5t66 -145.5v-4q0 -161 -185 -189l227 -330h-62l-224 326h-139v-326h-56v715zM291 371q184 0 184 148v4q0 78 -47.5 112t-136.5 34h-143v-298h143zM330 893h66l-88 -122h-42z" />
    <glyph glyph-name="racute" unicode="&#x155;" horiz-adv-x="352" 
d="M82 523h53v-110q51 113 177 117v-50q-177 -9 -177 -190v-290h-53v523zM233 752h65l-92 -147h-41z" />
    <glyph glyph-name="uni0156" unicode="&#x156;" horiz-adv-x="606" 
d="M92 715h196q111 0 177 -46.5t66 -145.5v-4q0 -161 -185 -189l227 -330h-62l-224 326h-139v-326h-56v715zM291 371q184 0 184 148v4q0 78 -47.5 112t-136.5 34h-143v-298h143zM232 -188l58 147l51 -15l-75 -148z" />
    <glyph glyph-name="uni0157" unicode="&#x157;" horiz-adv-x="348" 
d="M82 523h53v-110q51 113 177 117v-50q-177 -9 -177 -190v-290h-53v523zM35 -188l58 147l51 -15l-75 -148z" />
    <glyph glyph-name="Rcaron" unicode="&#x158;" horiz-adv-x="610" 
d="M92 715h196q111 0 177 -46.5t66 -145.5v-4q0 -161 -185 -189l227 -330h-62l-224 326h-139v-326h-56v715zM291 371q184 0 184 148v4q0 78 -47.5 112t-136.5 34h-143v-298h143zM159 893h42l93 -77l94 77h41l-111 -122h-50z" />
    <glyph glyph-name="rcaron" unicode="&#x159;" horiz-adv-x="352" 
d="M82 523h53v-110q51 113 177 117v-50q-177 -9 -177 -190v-290h-53v523zM59 748h42l92 -90l93 90h41l-110 -135h-50z" />
    <glyph glyph-name="Sacute" unicode="&#x15a;" horiz-adv-x="606" 
d="M308 -8q-125 0 -189 58.5t-77 154.5h55q20 -167 211 -167q83 0 134 43t51 110q0 74 -42 107.5t-150 49.5q-120 18 -175.5 61.5t-55.5 126.5t62.5 135t162.5 52q99 0 158.5 -46.5t71.5 -133.5h-51q-13 68 -56.5 101t-122.5 33q-83 0 -128 -36t-45 -101q0 -61 40 -94
t148 -48q126 -19 181.5 -63t55.5 -140q0 -86 -66.5 -144.5t-172.5 -58.5zM330 893h66l-88 -122h-42z" />
    <glyph glyph-name="sacute" unicode="&#x15b;" horiz-adv-x="469" 
d="M239 -9q-91 0 -143.5 44.5t-57.5 120.5h51q15 -120 150 -120q65 0 99 27t34 76q0 48 -29.5 69.5t-107.5 36.5q-99 19 -139.5 49.5t-40.5 96.5q0 63 51 101.5t121 38.5q164 0 182 -142h-51q-19 97 -132 97q-55 0 -88.5 -25.5t-33.5 -67.5q0 -44 31 -65.5t112 -35.5
q94 -18 135 -47.5t41 -101.5q0 -68 -48 -110t-136 -42zM272 752h65l-92 -147h-41z" />
    <glyph glyph-name="Scircumflex" unicode="&#x15c;" horiz-adv-x="606" 
d="M308 -8q-125 0 -189 58.5t-77 154.5h55q20 -167 211 -167q83 0 134 43t51 110q0 74 -42 107.5t-150 49.5q-120 18 -175.5 61.5t-55.5 126.5t62.5 135t162.5 52q99 0 158.5 -46.5t71.5 -133.5h-51q-13 68 -56.5 101t-122.5 33q-83 0 -128 -36t-45 -101q0 -61 40 -94
t148 -48q126 -19 181.5 -63t55.5 -140q0 -86 -66.5 -144.5t-172.5 -58.5zM270 893h50l108 -122h-42l-92 78l-93 -78h-41z" />
    <glyph glyph-name="scircumflex" unicode="&#x15d;" horiz-adv-x="469" 
d="M239 -9q-91 0 -143.5 44.5t-57.5 120.5h51q15 -120 150 -120q65 0 99 27t34 76q0 48 -29.5 69.5t-107.5 36.5q-99 19 -139.5 49.5t-40.5 96.5q0 63 51 101.5t121 38.5q164 0 182 -142h-51q-19 97 -132 97q-55 0 -88.5 -25.5t-33.5 -67.5q0 -44 31 -65.5t112 -35.5
q94 -18 135 -47.5t41 -101.5q0 -68 -48 -110t-136 -42zM208 740h50l108 -135h-42l-92 90l-93 -90h-41z" />
    <glyph glyph-name="uni015E" unicode="&#x15e;" horiz-adv-x="602" 
d="M277 -212q-41 0 -66.5 21t-29.5 57h44q3 -18 16 -30t34 -12q23 0 36.5 12t13.5 32q0 39 -45 39q-17 0 -36 -8l-26 21l42 75q-195 22 -218 210h55q20 -167 211 -167q83 0 134 43t51 110q0 74 -42 107.5t-150 49.5q-120 18 -175.5 61.5t-55.5 126.5t62.5 135t162.5 52
q99 0 158.5 -46.5t71.5 -133.5h-51q-13 68 -56.5 101t-122.5 33q-83 0 -128 -36t-45 -101q0 -61 40 -94t148 -48q126 -19 181.5 -63t55.5 -140q0 -86 -66.5 -144.5t-172.5 -58.5h-7l-30 -53q39 9 70 -10.5t31 -62.5q0 -37 -27 -57.5t-68 -20.5z" />
    <glyph glyph-name="uni015F" unicode="&#x15f;" horiz-adv-x="465" 
d="M218 -212q-41 0 -66.5 21t-29.5 57h44q3 -18 16 -30t34 -12q23 0 36.5 12t13.5 32q0 39 -45 39q-17 0 -36 -8l-26 21l41 74q-74 9 -115.5 51.5t-46.5 110.5h51q15 -120 150 -120q65 0 99 27t34 76q0 48 -29.5 69.5t-107.5 36.5q-99 19 -139.5 49.5t-40.5 96.5
q0 63 51 101.5t121 38.5q164 0 182 -142h-51q-19 97 -132 97q-55 0 -88.5 -25.5t-33.5 -67.5q0 -44 31 -65.5t112 -35.5q94 -18 135 -47.5t41 -101.5q0 -68 -47.5 -109.5t-133.5 -42.5l-30 -52q39 9 70 -10.5t31 -62.5q0 -37 -27 -57.5t-68 -20.5z" />
    <glyph glyph-name="Scaron" unicode="&#x160;" horiz-adv-x="606" 
d="M308 -8q-125 0 -189 58.5t-77 154.5h55q20 -167 211 -167q83 0 134 43t51 110q0 74 -42 107.5t-150 49.5q-120 18 -175.5 61.5t-55.5 126.5t62.5 135t162.5 52q99 0 158.5 -46.5t71.5 -133.5h-51q-13 68 -56.5 101t-122.5 33q-83 0 -128 -36t-45 -101q0 -61 40 -94
t148 -48q126 -19 181.5 -63t55.5 -140q0 -86 -66.5 -144.5t-172.5 -58.5zM158 893h42l93 -77l94 77h41l-111 -122h-50z" />
    <glyph glyph-name="scaron" unicode="&#x161;" horiz-adv-x="469" 
d="M239 -9q-91 0 -143.5 44.5t-57.5 120.5h51q15 -120 150 -120q65 0 99 27t34 76q0 48 -29.5 69.5t-107.5 36.5q-99 19 -139.5 49.5t-40.5 96.5q0 63 51 101.5t121 38.5q164 0 182 -142h-51q-19 97 -132 97q-55 0 -88.5 -25.5t-33.5 -67.5q0 -44 31 -65.5t112 -35.5
q94 -18 135 -47.5t41 -101.5q0 -68 -48 -110t-136 -42zM98 748h42l92 -90l93 90h41l-110 -135h-50z" />
    <glyph glyph-name="Tcommaaccent" unicode="&#x162;" horiz-adv-x="563" 
d="M252 669h-222v46h499v-46h-222v-669h-55v669zM207 -188l58 147l51 -15l-75 -148z" />
    <glyph glyph-name="tcommaaccent" unicode="&#x163;" horiz-adv-x="342" 
d="M230 -7q-62 0 -95 34.5t-33 98.5v352h-77v45h77v119h53v-119h137v-45h-137v-348q0 -92 78 -92q36 0 66 11v-45q-27 -11 -69 -11zM112 -188l58 147l51 -15l-75 -148z" />
    <glyph glyph-name="Tcaron" unicode="&#x164;" horiz-adv-x="563" 
d="M252 669h-222v46h499v-46h-222v-669h-55v669zM144 893h42l93 -77l94 77h41l-111 -122h-50z" />
    <glyph glyph-name="tcaron" unicode="&#x165;" horiz-adv-x="342" 
d="M230 -7q-62 0 -95 34.5t-33 98.5v352h-77v45h77v119h53v-119h137v-45h-137v-348q0 -92 78 -92q36 0 66 11v-45q-27 -11 -69 -11zM256 773h60l-33 -162h-39z" />
    <glyph glyph-name="Tbar" unicode="&#x166;" horiz-adv-x="563" 
d="M100 408h152v261h-222v46h499v-46h-222v-261h153v-43h-153v-365h-55v365h-152v43z" />
    <glyph glyph-name="tbar" unicode="&#x167;" horiz-adv-x="342" 
d="M25 341h77v137h-77v45h77v119h53v-119h137v-45h-137v-137h137v-39h-137v-172q0 -92 78 -92q36 0 66 11v-45q-27 -11 -69 -11q-62 0 -95 34.5t-33 98.5v176h-77v39z" />
    <glyph glyph-name="Utilde" unicode="&#x168;" horiz-adv-x="686" 
d="M338 -7q-122 0 -189 67.5t-67 195.5v459h55v-453q0 -222 202 -222q105 0 155.5 55.5t50.5 179.5v440h56v-448q0 -131 -66.5 -202.5t-196.5 -71.5zM403 774q-26 0 -67 26.5t-56 26.5q-38 0 -46 -54h-41q6 47 29.5 73t57.5 26q25 0 65.5 -26.5t57.5 -26.5q38 0 46 54h40
q-6 -47 -29.5 -73t-56.5 -26z" />
    <glyph glyph-name="utilde" unicode="&#x169;" horiz-adv-x="583" 
d="M261 -8q-86 0 -135 48.5t-49 151.5v331h53v-328q0 -82 36 -119.5t107 -37.5q68 0 119.5 44.5t51.5 122.5v318h53v-523h-53v100q-19 -45 -68.5 -76.5t-114.5 -31.5zM351 616q-25 0 -66.5 26.5t-57.5 26.5t-28.5 -14.5t-16.5 -38.5h-41q6 47 29.5 73t57.5 26q26 0 66 -26.5
t57 -26.5t29.5 14t16.5 39h40q-6 -47 -29.5 -73t-56.5 -26z" />
    <glyph glyph-name="Umacron" unicode="&#x16a;" horiz-adv-x="686" 
d="M338 -7q-122 0 -189 67.5t-67 195.5v459h55v-453q0 -222 202 -222q105 0 155.5 55.5t50.5 179.5v440h56v-448q0 -131 -66.5 -202.5t-196.5 -71.5zM217 833h248v-42h-248v42z" />
    <glyph glyph-name="umacron" unicode="&#x16b;" horiz-adv-x="583" 
d="M261 -8q-86 0 -135 48.5t-49 151.5v331h53v-328q0 -82 36 -119.5t107 -37.5q68 0 119.5 44.5t51.5 122.5v318h53v-523h-53v100q-19 -45 -68.5 -76.5t-114.5 -31.5zM168 689h242v-42h-242v42z" />
    <glyph glyph-name="Ubreve" unicode="&#x16c;" horiz-adv-x="686" 
d="M338 -7q-122 0 -189 67.5t-67 195.5v459h55v-453q0 -222 202 -222q105 0 155.5 55.5t50.5 179.5v440h56v-448q0 -131 -66.5 -202.5t-196.5 -71.5zM339 771q-51 0 -87.5 35t-38.5 87h44q4 -36 25.5 -57t56.5 -21t58 21t28 57h43q-4 -52 -40.5 -87t-88.5 -35z" />
    <glyph glyph-name="ubreve" unicode="&#x16d;" horiz-adv-x="583" 
d="M261 -8q-86 0 -135 48.5t-49 151.5v331h53v-328q0 -82 36 -119.5t107 -37.5q68 0 119.5 44.5t51.5 122.5v318h53v-523h-53v100q-19 -45 -68.5 -76.5t-114.5 -31.5zM288 616q-51 0 -85 33.5t-37 87.5h44q4 -36 24 -56.5t54 -20.5q35 0 56.5 20.5t26.5 56.5h42
q-3 -54 -38.5 -87.5t-86.5 -33.5z" />
    <glyph glyph-name="Uring" unicode="&#x16e;" horiz-adv-x="686" 
d="M338 -7q-122 0 -189 67.5t-67 195.5v459h55v-453q0 -222 202 -222q105 0 155.5 55.5t50.5 179.5v440h56v-448q0 -131 -66.5 -202.5t-196.5 -71.5zM341 762q26 0 43.5 18.5t17.5 45.5t-17.5 45.5t-43.5 18.5t-43.5 -18.5t-17.5 -45.5t17.5 -45.5t43.5 -18.5zM341 730
q-39 0 -68.5 28.5t-29.5 67.5t29.5 67t68.5 28q40 0 69 -28t29 -67t-29 -67.5t-69 -28.5z" />
    <glyph glyph-name="uring" unicode="&#x16f;" horiz-adv-x="583" 
d="M261 -8q-86 0 -135 48.5t-49 151.5v331h53v-328q0 -82 36 -119.5t107 -37.5q68 0 119.5 44.5t51.5 122.5v318h53v-523h-53v100q-19 -45 -68.5 -76.5t-114.5 -31.5zM288 617q26 0 43.5 18t17.5 45q0 28 -17.5 46t-43.5 18t-43.5 -18t-17.5 -46q0 -27 17.5 -45t43.5 -18z
M288 585q-39 0 -68.5 28t-29.5 67t29.5 67.5t68.5 28.5q40 0 69 -28.5t29 -67.5t-29 -67t-69 -28z" />
    <glyph glyph-name="Uhungarumlaut" unicode="&#x170;" horiz-adv-x="686" 
d="M338 -7q-122 0 -189 67.5t-67 195.5v459h55v-453q0 -222 202 -222q105 0 155.5 55.5t50.5 179.5v440h56v-448q0 -131 -66.5 -202.5t-196.5 -71.5zM296 893h60l-65 -122h-40zM428 893h60l-65 -122h-40z" />
    <glyph glyph-name="uhungarumlaut" unicode="&#x171;" horiz-adv-x="583" 
d="M261 -8q-86 0 -135 48.5t-49 151.5v331h53v-328q0 -82 36 -119.5t107 -37.5q68 0 119.5 44.5t51.5 122.5v318h53v-523h-53v100q-19 -45 -68.5 -76.5t-114.5 -31.5zM252 752h60l-69 -147h-40zM384 752h60l-69 -147h-40z" />
    <glyph glyph-name="Uogonek" unicode="&#x172;" horiz-adv-x="686" 
d="M381 -182q-44 0 -68.5 20.5t-24.5 54.5q0 61 71 101q-3 0 -10 -0.5t-11 -0.5q-122 0 -189 67.5t-67 195.5v459h55v-453q0 -222 202 -222q105 0 155.5 55.5t50.5 179.5v440h56v-448q0 -193 -136 -250q-61 -25 -93.5 -51.5t-32.5 -63.5q0 -44 49 -44q29 0 50 10v-39
q-24 -11 -57 -11z" />
    <glyph glyph-name="uogonek" unicode="&#x173;" horiz-adv-x="583" 
d="M460 -182q-44 0 -68.5 20.5t-24.5 54.5q0 32 22 60t55 47v100q-19 -45 -68.5 -76.5t-114.5 -31.5q-86 0 -135 48.5t-49 151.5v331h53v-328q0 -82 36 -119.5t107 -37.5q68 0 119.5 44.5t51.5 122.5v318h53v-520q-80 -53 -80 -101q0 -44 50 -44q29 0 50 10v-39
q-24 -11 -57 -11z" />
    <glyph glyph-name="Wcircumflex" unicode="&#x174;" horiz-adv-x="924" 
d="M33 715h56l164 -630l189 630h39l182 -632l173 632h51l-196 -715h-54l-176 616l-186 -616h-53zM435 893h50l108 -122h-42l-92 78l-93 -78h-41z" />
    <glyph glyph-name="wcircumflex" unicode="&#x175;" horiz-adv-x="780" 
d="M29 523h57l140 -458l143 458h45l138 -458l141 458h54l-165 -523h-61l-130 438l-139 -438h-60zM364 740h50l108 -135h-42l-92 90l-93 -90h-41z" />
    <glyph glyph-name="Ycircumflex" unicode="&#x176;" horiz-adv-x="582" 
d="M268 318l-245 397h62l212 -350l202 350h56l-231 -398v-317h-56v318zM268 893h50l108 -122h-42l-92 78l-93 -78h-41z" />
    <glyph glyph-name="ycircumflex" unicode="&#x177;" horiz-adv-x="512" 
d="M232 45l-207 478h57l179 -417l167 417h54l-290 -705h-55zM231 740h50l108 -135h-42l-92 90l-93 -90h-41z" />
    <glyph glyph-name="Ydieresis" unicode="&#x178;" horiz-adv-x="582" 
d="M268 318l-245 397h62l212 -350l202 350h56l-231 -398v-317h-56v318zM202 788q-16 0 -26.5 11t-10.5 26t10.5 25.5t26.5 10.5q15 0 25.5 -11t10.5 -25q0 -15 -10.5 -26t-25.5 -11zM382 788q-15 0 -25.5 11t-10.5 26q0 14 10.5 25t25.5 11t25.5 -11t10.5 -25
q0 -15 -10.5 -26t-25.5 -11z" />
    <glyph glyph-name="Zacute" unicode="&#x179;" horiz-adv-x="591" 
d="M27 11l443 658h-407v46h485v-10l-437 -657h431v-48h-515v11zM333 893h66l-88 -122h-42z" />
    <glyph glyph-name="zacute" unicode="&#x17a;" horiz-adv-x="478" 
d="M24 9l340 469h-310v45h393v-10l-337 -466h330v-47h-416v9zM285 752h65l-92 -147h-41z" />
    <glyph glyph-name="Zdotaccent" unicode="&#x17b;" horiz-adv-x="591" 
d="M27 11l443 658h-407v46h485v-10l-437 -657h431v-48h-515v11zM296 787q-16 0 -27 11t-11 27q0 15 11 26t27 11t27 -11t11 -26q0 -16 -11 -27t-27 -11z" />
    <glyph glyph-name="zdotaccent" unicode="&#x17c;" horiz-adv-x="478" 
d="M24 9l340 469h-310v45h393v-10l-337 -466h330v-47h-416v9zM245 635q-16 0 -27 11t-11 27q0 15 11 26t27 11t27 -11t11 -26q0 -16 -11 -27t-27 -11z" />
    <glyph glyph-name="Zcaron" unicode="&#x17d;" horiz-adv-x="591" 
d="M27 11l443 658h-407v46h485v-10l-437 -657h431v-48h-515v11zM161 893h42l93 -77l94 77h41l-111 -122h-50z" />
    <glyph glyph-name="zcaron" unicode="&#x17e;" horiz-adv-x="478" 
d="M24 9l340 469h-310v45h393v-10l-337 -466h330v-47h-416v9zM111 748h42l92 -90l93 90h41l-110 -135h-50z" />
    <glyph glyph-name="uni0192" unicode="&#x192;" horiz-adv-x="384" 
d="M29 403h95l25 163q23 158 161 158q38 0 68 -11v-46q-26 12 -67 12q-93 0 -110 -115l-25 -161h145v-44h-151l-83 -541h-53l83 541h-88v44z" />
    <glyph glyph-name="Aringacute" unicode="&#x1fa;" horiz-adv-x="658" 
d="M290 715h74l257 -715h-56l-79 219h-322l-78 -219h-53zM180 264h290l-145 405zM326 781q26 0 43.5 18.5t17.5 45.5t-17.5 45.5t-43.5 18.5t-43.5 -18.5t-17.5 -45.5t17.5 -45.5t43.5 -18.5zM326 749q-39 0 -68.5 28.5t-29.5 67.5t29.5 67t68.5 28q40 0 69 -28t29 -67
t-29 -67.5t-69 -28.5zM365 1091h66l-88 -122h-42z" />
    <glyph glyph-name="aringacute" unicode="&#x1fb;" horiz-adv-x="533" 
d="M221 -8q-81 0 -129 38.5t-48 110.5q0 84 68 121t177 37h109v47q0 74 -31.5 107t-100.5 33q-130 0 -147 -111h-52q8 77 64.5 116.5t136.5 39.5q86 0 134.5 -44.5t48.5 -140.5v-346h-53v80q-57 -88 -177 -88zM225 35q73 0 123 38.5t50 95.5v89h-107q-59 0 -99.5 -9
t-67.5 -36t-27 -72q0 -106 128 -106zM269 623q26 0 43.5 18t17.5 45q0 28 -17.5 46t-43.5 18t-43.5 -18t-17.5 -46q0 -27 17.5 -45t43.5 -18zM269 591q-39 0 -68.5 28t-29.5 67t29.5 67.5t68.5 28.5q40 0 69 -28.5t29 -67.5t-29 -67t-69 -28zM311 951h66l-88 -122h-42z" />
    <glyph glyph-name="AEacute" unicode="&#x1fc;" horiz-adv-x="950" 
d="M392 715h491v-46h-355v-279h288v-46h-288v-298h373v-46h-429v220h-276l-110 -220h-57zM218 264h254v405h-51zM644 893h66l-88 -122h-42z" />
    <glyph glyph-name="aeacute" unicode="&#x1fd;" horiz-adv-x="901" 
d="M638 -8q-74 0 -128 34.5t-81 96.5q-26 -65 -80 -98t-128 -33q-81 0 -129 37.5t-48 110.5q0 159 243 159h113v46q0 74 -32.5 107.5t-101.5 33.5q-130 0 -147 -111h-52q8 77 65 116.5t136 39.5q139 0 171 -114q62 114 193 114q98 0 160.5 -65.5t62.5 -189.5v-18h-403
q5 -221 187 -221q134 0 159 109h53q-15 -74 -72.5 -114t-140.5 -40zM226 35q74 0 124 40t50 106v77h-112q-91 0 -141 -26t-50 -92q0 -105 129 -105zM801 299q-4 94 -48 140.5t-121 46.5q-75 0 -123 -50.5t-56 -136.5h348zM493 752h65l-92 -147h-41z" />
    <glyph glyph-name="Oslashacute" unicode="&#x1fe;" horiz-adv-x="805" 
d="M41 5l97 107q-85 99 -85 241v8q0 153 99 257.5t249 104.5q125 0 221 -78l85 94l29 -30l-84 -92q97 -103 97 -254v-8q0 -153 -98.5 -258t-247.5 -105q-140 0 -236 90l-96 -106zM403 39q127 0 207.5 89.5t80.5 227.5v8q0 129 -73 216l-417 -461q82 -80 202 -80zM110 354
q0 -120 63 -203l416 458q-76 68 -188 68q-130 0 -210.5 -89t-80.5 -226v-8zM437 893h66l-88 -122h-42z" />
    <glyph glyph-name="oslashacute" unicode="&#x1ff;" horiz-adv-x="595" 
d="M31 0l72 80q-60 72 -60 177v8q0 116 73 191t180 75q93 0 162 -58l64 72l29 -25l-66 -73q63 -76 63 -181v-8q0 -116 -73 -191t-180 -75q-97 0 -165 60l-69 -77zM296 37q86 0 141.5 60t55.5 160v8q0 86 -42 144l-289 -321q54 -51 134 -51zM98 257q0 -83 39 -139l288 319
q-52 49 -129 49q-86 0 -142 -60.5t-56 -160.5v-8zM334 752h65l-92 -147h-41z" />
    <glyph glyph-name="uni0218" unicode="&#x218;" horiz-adv-x="602" 
d="M308 -8q-125 0 -189 58.5t-77 154.5h55q20 -167 211 -167q83 0 134 43t51 110q0 74 -42 107.5t-150 49.5q-120 18 -175.5 61.5t-55.5 126.5t62.5 135t162.5 52q99 0 158.5 -46.5t71.5 -133.5h-51q-13 68 -56.5 101t-122.5 33q-83 0 -128 -36t-45 -101q0 -61 40 -94
t148 -48q126 -19 181.5 -63t55.5 -140q0 -86 -66.5 -144.5t-172.5 -58.5zM220 -188l58 147l51 -15l-75 -148z" />
    <glyph glyph-name="uni0219" unicode="&#x219;" horiz-adv-x="465" 
d="M239 -9q-91 0 -143.5 44.5t-57.5 120.5h51q15 -120 150 -120q65 0 99 27t34 76q0 48 -29.5 69.5t-107.5 36.5q-99 19 -139.5 49.5t-40.5 96.5q0 63 51 101.5t121 38.5q164 0 182 -142h-51q-19 97 -132 97q-55 0 -88.5 -25.5t-33.5 -67.5q0 -44 31 -65.5t112 -35.5
q94 -18 135 -47.5t41 -101.5q0 -68 -48 -110t-136 -42zM161 -188l58 147l51 -15l-75 -148z" />
    <glyph glyph-name="uni021A" unicode="&#x21a;" horiz-adv-x="563" 
d="M252 669h-222v46h499v-46h-222v-669h-55v669zM207 -188l58 147l51 -15l-75 -148z" />
    <glyph glyph-name="uni021B" unicode="&#x21b;" horiz-adv-x="342" 
d="M230 -7q-62 0 -95 34.5t-33 98.5v352h-77v45h77v119h53v-119h137v-45h-137v-348q0 -92 78 -92q36 0 66 11v-45q-27 -11 -69 -11zM112 -188l58 147l51 -15l-75 -148z" />
    <glyph glyph-name="uni0237" unicode="&#x237;" horiz-adv-x="225" 
d="M7 -143q43 4 60 25.5t17 65.5v575h53v-571q0 -70 -29.5 -103.5t-100.5 -36.5v45z" />
    <glyph glyph-name="uni02BC" unicode="&#x2bc;" horiz-adv-x="218" 
d="M46 545l75 177l51 -22l-92 -172z" />
    <glyph glyph-name="circumflex" unicode="&#x2c6;" horiz-adv-x="404" 
d="M176 740h50l108 -135h-42l-92 90l-93 -90h-41z" />
    <glyph glyph-name="caron" unicode="&#x2c7;" horiz-adv-x="404" 
d="M66 748h42l92 -90l93 90h41l-110 -135h-50z" />
    <glyph glyph-name="breve" unicode="&#x2d8;" horiz-adv-x="404" 
d="M199 616q-51 0 -85 33.5t-37 87.5h44q4 -36 24 -56.5t54 -20.5q35 0 56.5 20.5t26.5 56.5h42q-3 -54 -38.5 -87.5t-86.5 -33.5z" />
    <glyph glyph-name="dotaccent" unicode="&#x2d9;" horiz-adv-x="404" 
d="M200 635q-16 0 -27 11t-11 27q0 15 11 26t27 11t27 -11t11 -26q0 -16 -11 -27t-27 -11z" />
    <glyph glyph-name="ring" unicode="&#x2da;" horiz-adv-x="404" 
d="M200 633q26 0 43.5 18t17.5 45q0 28 -17.5 46t-43.5 18t-43.5 -18t-17.5 -46q0 -27 17.5 -45t43.5 -18zM200 601q-39 0 -68.5 28t-29.5 67t29.5 67.5t68.5 28.5q40 0 69 -28.5t29 -67.5t-29 -67t-69 -28z" />
    <glyph glyph-name="ogonek" unicode="&#x2db;" horiz-adv-x="404" 
d="M217 -182q-44 0 -68.5 20.5t-24.5 54.5q0 65 79 107h48q-76 -50 -76 -98q0 -44 49 -44q29 0 50 10v-39q-24 -11 -57 -11z" />
    <glyph glyph-name="tilde" unicode="&#x2dc;" horiz-adv-x="404" 
d="M264 616q-25 0 -66.5 26.5t-57.5 26.5t-28.5 -14.5t-16.5 -38.5h-41q6 47 29.5 73t57.5 26q26 0 66.5 -26.5t56.5 -26.5q17 0 29.5 14t16.5 39h40q-6 -47 -29.5 -73t-56.5 -26z" />
    <glyph glyph-name="hungarumlaut" unicode="&#x2dd;" horiz-adv-x="404" 
d="M161 752h60l-69 -147h-40zM293 752h60l-69 -147h-40z" />
    <glyph glyph-name="uni037E" unicode="&#x37e;" horiz-adv-x="237" 
d="M23 -99l77 183l53 -24l-94 -177zM123 320q-17 0 -29.5 12t-12.5 30t12.5 30t29.5 12q18 0 30.5 -12t12.5 -30t-12.5 -30t-30.5 -12z" />
    <glyph glyph-name="tonos" unicode="&#x384;" horiz-adv-x="400" 
d="M243 752h65l-92 -147h-41z" />
    <glyph glyph-name="dieresistonos" unicode="&#x385;" horiz-adv-x="400" 
d="M208 785h61l-64 -147h-40zM309 636q-15 0 -26 11t-11 26t11 25.5t26 10.5t26 -10.5t11 -25.5t-11 -26t-26 -11zM91 636q-15 0 -26 11t-11 26t11 25.5t26 10.5t26 -10.5t11 -25.5t-11 -26t-26 -11z" />
    <glyph glyph-name="Alphatonos" unicode="&#x386;" horiz-adv-x="654" 
d="M290 715h74l257 -715h-56l-79 219h-322l-78 -219h-53zM180 264h290l-145 405zM93 715h65l-92 -147h-41z" />
    <glyph glyph-name="anoteleia" unicode="&#x387;" horiz-adv-x="229" 
d="M114 281q-17 0 -29.5 12.5t-12.5 30.5q0 17 12.5 29.5t29.5 12.5q18 0 30.5 -12.5t12.5 -29.5q0 -18 -12.5 -30.5t-30.5 -12.5z" />
    <glyph glyph-name="Epsilontonos" unicode="&#x388;" horiz-adv-x="566" 
d="M92 715h411v-46h-355v-279h288v-46h-288v-298h373v-46h-429v715zM-37 715h65l-92 -147h-41z" />
    <glyph glyph-name="Etatonos" unicode="&#x389;" horiz-adv-x="717" 
d="M92 715h56v-333h421v333h56v-715h-56v335h-421v-335h-56v715zM-37 715h65l-92 -147h-41z" />
    <glyph glyph-name="Iotatonos" unicode="&#x38a;" horiz-adv-x="251" 
d="M97 715h56v-715h-56v715zM-37 715h65l-92 -147h-41z" />
    <glyph glyph-name="Omicrontonos" unicode="&#x38c;" horiz-adv-x="801" 
d="M403 39q127 0 207.5 89.5t80.5 227.5v8q0 133 -80.5 223t-209.5 90q-130 0 -210.5 -89t-80.5 -226v-8q0 -136 84 -225.5t209 -89.5zM403 -8q-151 0 -250.5 104.5t-99.5 256.5v8q0 153 99 257.5t249 104.5t249 -104t99 -256v-8q0 -153 -98.5 -258t-247.5 -105zM29 715h65
l-92 -147h-41z" />
    <glyph glyph-name="Upsilontonos" unicode="&#x38e;" horiz-adv-x="578" 
d="M268 318l-245 397h62l212 -350l202 350h56l-231 -398v-317h-56v318zM-72 715h65l-92 -147h-41z" />
    <glyph glyph-name="Omegatonos" unicode="&#x38f;" horiz-adv-x="805" 
d="M110 359q0 -224 215 -333v-26h-270v44h174q-74 40 -125 122t-51 193v8q0 91 40.5 171.5t122 132.5t187.5 52t187 -51.5t121.5 -131.5t40.5 -172v-8q0 -116 -50.5 -195t-124.5 -121h173v-44h-270v26q214 103 214 335v8q0 58 -19 112t-54 98.5t-92 71t-126 26.5
q-92 0 -160.5 -45.5t-100.5 -115t-32 -149.5v-8zM29 715h65l-92 -147h-41z" />
    <glyph glyph-name="iotadieresistonos" unicode="&#x390;" horiz-adv-x="222" 
d="M84 523h54v-523h-54v523zM133 785h61l-64 -147h-40zM234 636q-15 0 -26 11t-11 26t11 25.5t26 10.5t26 -10.5t11 -25.5t-11 -26t-26 -11zM16 636q-15 0 -26 11t-11 26t11 25.5t26 10.5t26 -10.5t11 -25.5t-11 -26t-26 -11z" />
    <glyph glyph-name="Alpha" unicode="&#x391;" horiz-adv-x="654" 
d="M290 715h74l257 -715h-56l-79 219h-322l-78 -219h-53zM180 264h290l-145 405z" />
    <glyph glyph-name="Beta" unicode="&#x392;" 
d="M92 715h203q100 0 158.5 -44t58.5 -137v-4q0 -120 -122 -155q157 -29 157 -174v-4q0 -96 -59 -146.5t-163 -50.5h-233v715zM324 45q169 0 169 152v4q0 148 -188 148h-158v-304h177zM296 393q161 0 161 138v4q0 135 -163 135h-147v-277h149z" />
    <glyph glyph-name="Gamma" unicode="&#x393;" horiz-adv-x="526" 
d="M92 715h404v-46h-348v-669h-56v715z" />
    <glyph glyph-name="uni0394" unicode="&#x394;" horiz-adv-x="658" 
d="M37 11l253 704h79l252 -704v-11h-584v11zM102 48h451l-226 628z" />
    <glyph glyph-name="Epsilon" unicode="&#x395;" horiz-adv-x="566" 
d="M92 715h411v-46h-355v-279h288v-46h-288v-298h373v-46h-429v715z" />
    <glyph glyph-name="Zeta" unicode="&#x396;" horiz-adv-x="587" 
d="M27 11l443 658h-407v46h485v-10l-437 -657h431v-48h-515v11z" />
    <glyph glyph-name="Eta" unicode="&#x397;" horiz-adv-x="717" 
d="M92 715h56v-333h421v333h56v-715h-56v335h-421v-335h-56v715z" />
    <glyph glyph-name="Theta" unicode="&#x398;" horiz-adv-x="801" 
d="M404 -8q-152 0 -251.5 104.5t-99.5 256.5v8q0 154 99 258t250 104q149 0 248 -104t99 -256v-8q0 -153 -98.5 -258t-246.5 -105zM404 39q127 0 207 89.5t80 227.5v8q0 133 -80.5 223t-208.5 90q-130 0 -211 -89t-81 -226v-8q0 -136 84 -225.5t210 -89.5zM253 387h295v-48
h-295v48z" />
    <glyph glyph-name="Iota" unicode="&#x399;" horiz-adv-x="251" 
d="M97 715h56v-715h-56v715z" />
    <glyph glyph-name="Kappa" unicode="&#x39a;" horiz-adv-x="599" 
d="M92 715h56v-352l347 353h64l-346 -349l363 -367h-68l-360 361v-361h-56v715z" />
    <glyph glyph-name="Lambda" unicode="&#x39b;" horiz-adv-x="643" 
d="M614 0h-55l-236 660l-235 -660h-52l256 715h66z" />
    <glyph glyph-name="Mu" unicode="&#x39c;" horiz-adv-x="851" 
d="M92 715h80l252 -614l253 614h78v-715h-55v645l-269 -645h-18l-269 645v-645h-52v715z" />
    <glyph glyph-name="Nu" unicode="&#x39d;" horiz-adv-x="714" 
d="M92 715h76l400 -638v638h53v-715h-66l-409 653v-653h-54v715z" />
    <glyph glyph-name="Xi" unicode="&#x39e;" horiz-adv-x="581" 
d="M527 715v-49h-474v49h474zM472 386v-48h-363v48h363zM45 49h490v-49h-490v49z" />
    <glyph glyph-name="Omicron" unicode="&#x39f;" horiz-adv-x="801" 
d="M403 39q127 0 207.5 89.5t80.5 227.5v8q0 133 -80.5 223t-209.5 90q-130 0 -210.5 -89t-80.5 -226v-8q0 -136 84 -225.5t209 -89.5zM403 -8q-151 0 -250.5 104.5t-99.5 256.5v8q0 153 99 257.5t249 104.5t249 -104t99 -256v-8q0 -153 -98.5 -258t-247.5 -105z" />
    <glyph glyph-name="Pi" unicode="&#x3a0;" horiz-adv-x="707" 
d="M92 715h523v-715h-56v668h-411v-668h-56v715z" />
    <glyph glyph-name="Rho" unicode="&#x3a1;" horiz-adv-x="568" 
d="M92 715h189q111 0 177.5 -49t66.5 -152v-4q0 -106 -65.5 -155t-177.5 -49h-134v-306h-56v715zM286 351q183 0 183 159v4q0 83 -48 119t-137 36h-136v-318h138z" />
    <glyph glyph-name="Sigma" unicode="&#x3a3;" horiz-adv-x="573" 
d="M61 666v49h449v-46h-385l236 -303l-236 -317h403v-49h-470v38l241 324z" />
    <glyph glyph-name="Tau" unicode="&#x3a4;" horiz-adv-x="559" 
d="M252 669h-222v46h499v-46h-222v-669h-55v669z" />
    <glyph glyph-name="Upsilon" unicode="&#x3a5;" horiz-adv-x="578" 
d="M268 318l-245 397h62l212 -350l202 350h56l-231 -398v-317h-56v318z" />
    <glyph glyph-name="Phi" unicode="&#x3a6;" horiz-adv-x="845" 
d="M396 52q-156 6 -249.5 93.5t-93.5 210.5v6q0 125 93.5 212t249.5 91v66h53v-66q156 -4 249.5 -90.5t93.5 -210.5v-6q0 -125 -93 -213.5t-250 -92.5v-68h-53v68zM110 356q0 -107 78 -179t208 -80v525q-136 -6 -211 -78t-75 -182v-6zM735 365q0 106 -75.5 178.5
t-210.5 78.5v-525q134 6 210 78t76 183v7z" />
    <glyph glyph-name="Chi" unicode="&#x3a7;" horiz-adv-x="646" 
d="M293 370l-226 345h61l200 -303l198 303h58l-228 -346l244 -369h-63l-217 328l-217 -328h-57z" />
    <glyph glyph-name="Psi" unicode="&#x3a8;" horiz-adv-x="758" 
d="M351 193q-137 4 -209.5 76.5t-72.5 192.5v253h56v-249q0 -218 226 -228v477h54v-477q118 4 174 62.5t56 180.5v234h54v-245q0 -123 -69.5 -197t-214.5 -80v-193h-54v193z" />
    <glyph glyph-name="uni03A9" unicode="&#x3a9;" horiz-adv-x="805" 
d="M110 359q0 -224 215 -333v-26h-270v44h174q-74 40 -125 122t-51 193v8q0 91 40.5 171.5t122 132.5t187.5 52t187 -51.5t121.5 -131.5t40.5 -172v-8q0 -116 -50.5 -195t-124.5 -121h173v-44h-270v26q214 103 214 335v8q0 58 -19 112t-54 98.5t-92 71t-126 26.5
q-92 0 -160.5 -45.5t-100.5 -115t-32 -149.5v-8z" />
    <glyph glyph-name="Iotadieresis" unicode="&#x3aa;" horiz-adv-x="251" 
d="M97 715h56v-715h-56v715zM35 788q-16 0 -26.5 11t-10.5 26t11 25.5t26 10.5t25.5 -11t10.5 -25q0 -15 -10.5 -26t-25.5 -11zM215 788q-15 0 -25.5 11t-10.5 26q0 14 10.5 25t25.5 11t25.5 -11t10.5 -25q0 -15 -10.5 -26t-25.5 -11z" />
    <glyph glyph-name="Upsilondieresis" unicode="&#x3ab;" horiz-adv-x="578" 
d="M268 318l-245 397h62l212 -350l202 350h56l-231 -398v-317h-56v318zM207 788q-16 0 -26.5 11t-10.5 26t11 25.5t26 10.5t25.5 -11t10.5 -25q0 -15 -10.5 -26t-25.5 -11zM387 788q-15 0 -25.5 11t-10.5 26q0 14 10.5 25t25.5 11t25.5 -11t10.5 -25q0 -15 -10.5 -26
t-25.5 -11z" />
    <glyph glyph-name="alphatonos" unicode="&#x3ac;" horiz-adv-x="602" 
d="M279 37q79 0 134 59t55 162v8q0 105 -50.5 162.5t-131.5 57.5t-134.5 -60t-53.5 -162v-8q0 -103 51.5 -161t129.5 -58zM274 -8q-97 0 -164 71t-67 191v8q0 118 69.5 193.5t169.5 75.5q68 0 114 -34t70 -88v114h54v-523h-54v120q-22 -51 -74.5 -89.5t-117.5 -38.5z
M346 752h65l-92 -147h-41z" />
    <glyph glyph-name="epsilontonos" unicode="&#x3ad;" horiz-adv-x="541" 
d="M161 271q-45 7 -73.5 37.5t-28.5 73.5q0 64 52 106.5t161 42.5t160 -37t62 -105h-53q-8 47 -45 72t-123 25q-160 0 -160 -106q0 -36 29.5 -62t81.5 -26h116v-44h-118q-60 0 -91 -29t-31 -76q0 -106 168 -106q166 0 182 112h51q-11 -77 -72 -117t-160 -40q-107 0 -165 39
t-58 111q0 50 31.5 84.5t83.5 44.5zM325 752h65l-92 -147h-41z" />
    <glyph glyph-name="etatonos" unicode="&#x3ae;" horiz-adv-x="583" 
d="M82 523h53v-102q19 46 68.5 78t116.5 32q87 0 136.5 -51t49.5 -158v-504h-53v507q0 160 -145 160q-70 0 -121.5 -45t-51.5 -123v-317h-53v523zM331 752h65l-92 -147h-41z" />
    <glyph glyph-name="iotatonos" unicode="&#x3af;" horiz-adv-x="222" 
d="M84 523h54v-523h-54v523zM157 752h65l-92 -147h-41z" />
    <glyph glyph-name="upsilondieresistonos" unicode="&#x3b0;" horiz-adv-x="569" 
d="M284 -8q-89 0 -149 55.5t-60 158.5v317h53v-315q0 -83 42 -126.5t115 -43.5q74 0 115 43t41 126v316h54v-319q0 -103 -60.5 -157.5t-150.5 -54.5zM297 785h61l-64 -147h-40zM398 636q-15 0 -26 11t-11 26t11 25.5t26 10.5t26 -10.5t11 -25.5t-11 -26t-26 -11zM180 636
q-15 0 -26 11t-11 26t11 25.5t26 10.5t26 -10.5t11 -25.5t-11 -26t-26 -11z" />
    <glyph glyph-name="alpha" unicode="&#x3b1;" horiz-adv-x="602" 
d="M279 37q79 0 134 59t55 162v8q0 105 -50.5 162.5t-131.5 57.5t-134.5 -60t-53.5 -162v-8q0 -103 51.5 -161t129.5 -58zM274 -8q-97 0 -164 71t-67 191v8q0 118 69.5 193.5t169.5 75.5q68 0 114 -34t70 -88v114h54v-523h-54v120q-22 -51 -74.5 -89.5t-117.5 -38.5z" />
    <glyph glyph-name="beta" unicode="&#x3b2;" horiz-adv-x="590" 
d="M279 433q85 -4 133 42t48 110v4q0 66 -42 104.5t-116 38.5q-80 0 -123 -47.5t-43 -129.5v-330q0 -84 55.5 -136t125.5 -52q77 0 127 45.5t50 129.5v7q0 84 -56.5 127.5t-158.5 40.5v46zM372 413q74 -11 125.5 -61t51.5 -131v-8q0 -102 -66.5 -161.5t-162.5 -59.5
q-59 0 -109.5 31.5t-74.5 82.5v-288h-54v735q0 102 59 162.5t162 60.5q97 0 154 -51.5t57 -133.5v-4q0 -62 -40.5 -111t-101.5 -63z" />
    <glyph glyph-name="gamma" unicode="&#x3b3;" horiz-adv-x="536" 
d="M458 523h55l-217 -516v-189h-53v189l-219 516h57l189 -450z" />
    <glyph glyph-name="delta" unicode="&#x3b4;" horiz-adv-x="586" 
d="M107 773h392v-45h-311l251 -259q50 -53 77 -102t27 -113v-7q0 -109 -72 -182t-179 -73q-106 0 -177.5 73t-71.5 181v6q0 96 68.5 170t166.5 74q47 0 81 -14l-252 259v32zM488 253q0 85 -54.5 142.5t-140.5 57.5t-140.5 -58t-54.5 -143v-6q0 -89 54.5 -149t140.5 -60
t140.5 59t54.5 151v6z" />
    <glyph glyph-name="epsilon" unicode="&#x3b5;" horiz-adv-x="541" 
d="M161 271q-45 7 -73.5 37.5t-28.5 73.5q0 64 52 106.5t161 42.5t160 -37t62 -105h-53q-8 47 -45 72t-123 25q-160 0 -160 -106q0 -36 29.5 -62t81.5 -26h116v-44h-118q-60 0 -91 -29t-31 -76q0 -106 168 -106q166 0 182 112h51q-11 -77 -72 -117t-160 -40q-107 0 -165 39
t-58 111q0 50 31.5 84.5t83.5 44.5z" />
    <glyph glyph-name="zeta" unicode="&#x3b6;" horiz-adv-x="485" 
d="M268 0q-98 0 -161.5 57t-63.5 151q0 229 327 519h-295v46h396v-15q-185 -161 -279 -292.5t-94 -254.5q0 -78 47.5 -121t122.5 -43h81q123 0 123 -93q0 -50 -20 -108h-49q17 59 17 98q0 29 -17 42.5t-55 13.5h-80z" />
    <glyph glyph-name="eta" unicode="&#x3b7;" horiz-adv-x="583" 
d="M82 523h53v-102q19 46 68.5 78t116.5 32q87 0 136.5 -51t49.5 -158v-504h-53v507q0 160 -145 160q-70 0 -121.5 -45t-51.5 -123v-317h-53v523z" />
    <glyph glyph-name="theta" unicode="&#x3b8;" 
d="M542 361q0 -179 -62.5 -274t-177.5 -95t-177 94t-62 273v51q0 178 62 272t176 94q113 0 177 -94t64 -271v-50zM301 731q-89 0 -136.5 -79.5t-47.5 -231.5v-4h370v4q-2 153 -50 232t-136 79zM302 37q183 0 185 322v11h-370v-12q2 -321 185 -321z" />
    <glyph glyph-name="iota" unicode="&#x3b9;" horiz-adv-x="222" 
d="M84 523h54v-523h-54v523z" />
    <glyph glyph-name="kappa" unicode="&#x3ba;" horiz-adv-x="490" 
d="M136 266l266 257h63l-267 -255l276 -268h-65l-273 264v-264h-54v523h54v-257z" />
    <glyph glyph-name="lambda" unicode="&#x3bb;" horiz-adv-x="531" 
d="M171 679q-19 52 -63 52q-20 0 -57 -11v45q30 11 67 11q38 0 61.5 -20t38.5 -63l218 -597q21 -55 58 -55q17 0 35 6v-45q-22 -6 -41 -6q-69 0 -98 80l-135 381l-175 -457h-55l203 521z" />
    <glyph glyph-name="uni03BC" unicode="&#x3bc;" horiz-adv-x="584" 
d="M83 523h53v-337q0 -148 147 -148q68 0 117 44.5t49 122.5v318h53v-523h-53v100q-19 -46 -64.5 -76t-108.5 -30q-104 0 -140 77v-253h-53v705z" />
    <glyph glyph-name="nu" unicode="&#x3bd;" horiz-adv-x="518" 
d="M25 523h58l178 -470l177 470h54l-197 -523h-69z" />
    <glyph glyph-name="xi" unicode="&#x3be;" horiz-adv-x="506" 
d="M359 47q124 0 124 -93q0 -37 -20 -108h-50q17 59 17 98q0 29 -17 42.5t-55 13.5h-67q-110 0 -179 56t-69 153q0 84 48.5 139t120.5 72q-55 18 -85 57.5t-30 93.5q0 55 34.5 98.5t96.5 58.5h-174v45h417v-45h-118q-86 0 -143.5 -42t-57.5 -114q0 -55 41 -93.5t111 -38.5
h122v-46h-129q-90 0 -144.5 -52t-54.5 -133q0 -77 52.5 -119.5t141.5 -42.5h67z" />
    <glyph glyph-name="omicron" unicode="&#x3bf;" horiz-adv-x="591" 
d="M296 37q86 0 141.5 60t55.5 160v8q0 102 -55.5 161.5t-141.5 59.5t-142 -60.5t-56 -160.5v-8q0 -99 55.5 -159.5t142.5 -60.5zM295 -8q-107 0 -179.5 75t-72.5 190v8q0 116 73 191t180 75q108 0 180 -74t72 -191v-8q0 -116 -73 -191t-180 -75z" />
    <glyph glyph-name="pi" unicode="&#x3c0;" horiz-adv-x="588" 
d="M433 478h-278v-478h-53v478h-77v45h538v-45h-77v-478h-53v478z" />
    <glyph glyph-name="rho" unicode="&#x3c1;" horiz-adv-x="592" 
d="M309 37q84 0 134.5 59.5t50.5 160.5v7q0 102 -52.5 162t-136.5 60q-85 0 -138 -60t-53 -161v-8q0 -102 55 -161t140 -59zM310 -8q-69 0 -119.5 36.5t-74.5 90.5v-301h-54v449q0 117 68.5 190.5t174.5 73.5t175 -74t69 -191v-8q0 -121 -67 -193.5t-172 -72.5z" />
    <glyph glyph-name="uni03C2" unicode="&#x3c2;" horiz-adv-x="556" 
d="M98 256q0 -94 51 -151.5t146 -57.5h49q124 0 124 -93q0 -50 -20 -108h-49q16 62 16 98q0 29 -17 42.5t-55 13.5h-49q-112 0 -181.5 69.5t-69.5 186.5v8q0 118 72 192.5t178 74.5q85 0 147 -45t71 -129h-52q-9 63 -54.5 96t-111.5 33q-84 0 -139.5 -60.5t-55.5 -161.5v-8z
" />
    <glyph glyph-name="sigma" unicode="&#x3c3;" horiz-adv-x="607" 
d="M295 -8q-107 0 -179.5 75t-72.5 190v8q0 115 71.5 186.5t182.5 71.5h280v-45h-164q61 -24 98 -79t37 -133v-8q0 -116 -73 -191t-180 -75zM296 37q85 0 141 60.5t56 159.5v8q0 100 -54.5 156.5t-141.5 56.5q-88 0 -143.5 -57.5t-55.5 -155.5v-8q0 -99 55.5 -159.5
t142.5 -60.5z" />
    <glyph glyph-name="tau" unicode="&#x3c4;" horiz-adv-x="462" 
d="M328 -7q-66 0 -98.5 40t-32.5 106v339h-172v45h408v-45h-183v-340q0 -100 81 -100q48 0 78 11v-45q-27 -11 -81 -11z" />
    <glyph glyph-name="upsilon" unicode="&#x3c5;" horiz-adv-x="569" 
d="M284 -8q-89 0 -149 55.5t-60 158.5v317h53v-315q0 -83 42 -126.5t115 -43.5q74 0 115 43t41 126v316h54v-319q0 -103 -60.5 -157.5t-150.5 -54.5z" />
    <glyph glyph-name="phi" unicode="&#x3c6;" horiz-adv-x="737" 
d="M694 265q0 -125 -83.5 -197t-216.5 -74v-176h-53v176q-140 6 -219 77t-79 184v8q0 109 57.5 179t146.5 86v-44q-69 -20 -109 -75.5t-40 -145.5v-8q0 -96 62.5 -153.5t180.5 -63.5v491q22 2 41 2q153 0 232.5 -72t79.5 -186v-8zM639 272q0 99 -62.5 156t-182.5 58v-448
q117 4 181 62.5t64 163.5v8z" />
    <glyph glyph-name="chi" unicode="&#x3c7;" horiz-adv-x="531" 
d="M243 179l-143 272q-18 33 -44 33q-13 0 -34 -8v45q21 7 43 7q27 0 44.5 -11.5t34.5 -42.5l131 -247l161 296h58l-193 -347l141 -265q14 -27 26 -39t31 -12q14 0 32 6v-46q-22 -6 -39 -6q-56 0 -97 78l-126 238l-172 -312h-57z" />
    <glyph glyph-name="psi" unicode="&#x3c8;" horiz-adv-x="727" 
d="M123 246q0 -87 51.5 -142t162.5 -63v482h53v-482q109 8 161.5 63.5t52.5 140.5v278h53v-277q0 -105 -67.5 -172.5t-199.5 -75.5v-180h-53v180q-136 8 -202 76t-66 176v273h54v-277z" />
    <glyph glyph-name="omega" unicode="&#x3c9;" horiz-adv-x="745" 
d="M399 173q0 -64 33 -100t83 -36q65 0 98 52.5t33 145.5v7q0 221 -162 244v45q77 -8 127 -50.5t70 -102t20 -136.5v-8q0 -107 -48 -174.5t-132 -67.5q-59 0 -96.5 29.5t-52.5 80.5q-14 -50 -51 -80t-97 -30q-85 0 -133 67.5t-48 175.5v8q0 118 53.5 197.5t163.5 90.5v-45
q-162 -24 -162 -243v-8q0 -94 33.5 -146t98.5 -52q50 0 82.5 36t32.5 100v178h54v-178z" />
    <glyph glyph-name="iotadieresis" unicode="&#x3ca;" horiz-adv-x="222" 
d="M84 523h54v-523h-54v523zM29 636q-16 0 -26.5 11t-10.5 26t10.5 25.5t26.5 10.5q15 0 25.5 -10.5t10.5 -25.5t-10.5 -26t-25.5 -11zM195 636q-15 0 -25.5 11t-10.5 26t10.5 25.5t25.5 10.5q16 0 26.5 -10.5t10.5 -25.5t-10.5 -26t-26.5 -11z" />
    <glyph glyph-name="upsilondieresis" unicode="&#x3cb;" horiz-adv-x="569" 
d="M284 -8q-89 0 -149 55.5t-60 158.5v317h53v-315q0 -83 42 -126.5t115 -43.5q74 0 115 43t41 126v316h54v-319q0 -103 -60.5 -157.5t-150.5 -54.5zM201 636q-16 0 -26.5 11t-10.5 26t10.5 25.5t26.5 10.5q15 0 25.5 -10.5t10.5 -25.5t-10.5 -26t-25.5 -11zM367 636
q-15 0 -25.5 11t-10.5 26t10.5 25.5t25.5 10.5q16 0 26.5 -10.5t10.5 -25.5t-10.5 -26t-26.5 -11z" />
    <glyph glyph-name="omicrontonos" unicode="&#x3cc;" horiz-adv-x="591" 
d="M296 37q86 0 141.5 60t55.5 160v8q0 102 -55.5 161.5t-141.5 59.5t-142 -60.5t-56 -160.5v-8q0 -99 55.5 -159.5t142.5 -60.5zM295 -8q-107 0 -179.5 75t-72.5 190v8q0 116 73 191t180 75q108 0 180 -74t72 -191v-8q0 -116 -73 -191t-180 -75zM343 752h65l-92 -147h-41z
" />
    <glyph glyph-name="upsilontonos" unicode="&#x3cd;" horiz-adv-x="569" 
d="M284 -8q-89 0 -149 55.5t-60 158.5v317h53v-315q0 -83 42 -126.5t115 -43.5q74 0 115 43t41 126v316h54v-319q0 -103 -60.5 -157.5t-150.5 -54.5zM327 752h65l-92 -147h-41z" />
    <glyph glyph-name="omegatonos" unicode="&#x3ce;" horiz-adv-x="745" 
d="M421 752h65l-92 -147h-41zM399 173q0 -64 33 -100t83 -36q65 0 98 52.5t33 145.5v7q0 221 -162 244v45q77 -8 127 -50.5t70 -102t20 -136.5v-8q0 -107 -48 -174.5t-132 -67.5q-59 0 -96.5 29.5t-52.5 80.5q-14 -50 -51 -80t-97 -30q-85 0 -133 67.5t-48 175.5v8
q0 118 53.5 197.5t163.5 90.5v-45q-162 -24 -162 -243v-8q0 -94 33.5 -146t98.5 -52q50 0 82.5 36t32.5 100v178h54v-178z" />
    <glyph glyph-name="uni0401" unicode="&#x401;" horiz-adv-x="566" 
d="M92 715h411v-46h-355v-279h288v-46h-288v-298h373v-46h-429v715zM209 788q-16 0 -26.5 11t-10.5 26t11 25.5t26 10.5t25.5 -11t10.5 -25q0 -15 -10.5 -26t-25.5 -11zM389 788q-15 0 -25.5 11t-10.5 26q0 14 10.5 25t25.5 11t25.5 -11t10.5 -25q0 -15 -10.5 -26t-25.5 -11
z" />
    <glyph glyph-name="uni0402" unicode="&#x402;" horiz-adv-x="765" 
d="M307 354l9.5 9.5t15.5 14t19.5 15t26 15.5t31.5 12.5t40 10t47 3.5q106 0 161.5 -59t55.5 -166q0 -105 -47.5 -160.5t-126.5 -55.5q-52 0 -90 20v47q44 -21 84 -21q60 0 93 43t33 126q0 181 -169 181q-33 0 -61 -7.5t-49 -21.5t-33 -24t-26 -26l-14 -16v-294h-55v669
h-222v46h514v-46h-237v-315z" />
    <glyph glyph-name="uni0403" unicode="&#x403;" horiz-adv-x="527" 
d="M92 715h397v-48h-341v-667h-56v715zM332 893h66l-88 -122h-42z" />
    <glyph glyph-name="uni0404" unicode="&#x404;" horiz-adv-x="725" 
d="M682 230q-20 -114 -99.5 -176t-197.5 -62q-152 0 -242 99t-90 262v8q0 157 95.5 260t236.5 103q114 0 194 -58.5t95 -165.5h-56q-35 179 -232 179q-115 0 -192 -81t-83 -211h383v-46h-383q2 -139 76.5 -220.5t198.5 -81.5q98 0 162.5 49.5t81.5 141.5h52z" />
    <glyph glyph-name="uni0405" unicode="&#x405;" horiz-adv-x="602" 
d="M308 -8q-125 0 -189 58.5t-77 154.5h55q20 -167 211 -167q83 0 134 43t51 110q0 74 -42 107.5t-150 49.5q-120 18 -175.5 61.5t-55.5 126.5t62.5 135t162.5 52q99 0 158.5 -46.5t71.5 -133.5h-51q-13 68 -56.5 101t-122.5 33q-83 0 -128 -36t-45 -101q0 -61 40 -94
t148 -48q126 -19 181.5 -63t55.5 -140q0 -86 -66.5 -144.5t-172.5 -58.5z" />
    <glyph glyph-name="uni0406" unicode="&#x406;" horiz-adv-x="250" 
d="M97 715h56v-715h-56v715z" />
    <glyph glyph-name="uni0407" unicode="&#x407;" horiz-adv-x="250" 
d="M97 715h56v-715h-56v715zM35 788q-16 0 -26.5 11t-10.5 26t11 25.5t26 10.5t25.5 -11t10.5 -25q0 -15 -10.5 -26t-25.5 -11zM215 788q-15 0 -25.5 11t-10.5 26q0 14 10.5 25t25.5 11t25.5 -11t10.5 -25q0 -15 -10.5 -26t-25.5 -11z" />
    <glyph glyph-name="uni0408" unicode="&#x408;" horiz-adv-x="401" 
d="M137 -7q-58 0 -100 20v47q48 -21 97 -21q129 0 129 144v532h56v-534q0 -95 -49.5 -141.5t-132.5 -46.5z" />
    <glyph glyph-name="uni0409" unicode="&#x409;" horiz-adv-x="994" 
d="M524 668h-295q0 -185 -16 -418q-9 -130 -40.5 -193.5t-107.5 -63.5q-22 0 -31 4q-4 1 -10 5v54l11 -4q11 -3 29 -3q46 0 67 48t30 160q7 104 14 305q2 104 2 153h402v-301h132q111 0 177 -49.5t66 -149.5v-4q0 -101 -63.5 -156t-166.5 -55h-200v668zM727 46
q82 0 126.5 42.5t44.5 122.5v4q0 75 -47 114.5t-137 39.5h-135v-323h148z" />
    <glyph glyph-name="uni040A" unicode="&#x40a;" horiz-adv-x="1024" 
d="M757 46q83 0 127.5 41.5t44.5 120.5v4q0 76 -47.5 116.5t-136.5 40.5h-136v-323h148zM554 335h-406v-335h-56v715h56v-333h406v333h55v-301h132q110 0 177 -51t67 -151v-4q0 -101 -64 -154.5t-167 -53.5h-200v335z" />
    <glyph glyph-name="uni040B" unicode="&#x40b;" horiz-adv-x="779" 
d="M307 355q17 21 42 39q58 40 141 40q112 0 163 -61.5t51 -191.5v-181h-56v186q0 106 -36.5 154.5t-126.5 48.5q-81 0 -137 -46q-24 -18 -41 -45v-298h-55v669h-222v46h514v-46h-237v-314z" />
    <glyph glyph-name="uni040C" unicode="&#x40c;" horiz-adv-x="599" 
d="M339 893h66l-88 -122h-42zM92 715h56v-352l347 353h64l-346 -349l363 -367h-68l-360 361v-361h-56v715z" />
    <glyph glyph-name="uni040D" unicode="&#x40d;" horiz-adv-x="727" 
d="M92 0v715h56v-637l432 637h55v-715h-56v637l-431 -637h-56zM266 893h66l64 -122h-42z" />
    <glyph glyph-name="uni040E" unicode="&#x40e;" horiz-adv-x="576" 
d="M302 771q-51 0 -86.5 34.5t-39.5 87.5h47q3 -37 24 -61t55 -24q35 0 57.5 24t25.5 61h46q-4 -52 -40.5 -87t-88.5 -35zM136 -7q-24 0 -35 4q-5 1 -11 5l1 51l4 -1q4 -2 7 -3q10 -3 33 -3q44 0 74 26t57 83l-240 560h58l211 -495l211 495h53l-237 -549q-38 -87 -78 -130
t-108 -43z" />
    <glyph glyph-name="uni040F" unicode="&#x40f;" horiz-adv-x="707" 
d="M92 0v715h56v-668h411v668h56v-715h-236l-2 -130h-46l-2 130h-237z" />
    <glyph glyph-name="uni0410" unicode="&#x410;" horiz-adv-x="654" 
d="M290 715h74l257 -715h-56l-79 219h-322l-78 -219h-53zM180 264h290l-145 405z" />
    <glyph glyph-name="uni0411" unicode="&#x411;" 
d="M547 205q0 -98 -59 -151.5t-163 -53.5h-233v715h404v-46h-349v-261h165q110 0 172.5 -50.5t62.5 -148.5v-4zM324 45q83 0 126 42t43 118v4q0 75 -47 114.5t-139 39.5h-160v-318h177z" />
    <glyph glyph-name="uni0412" unicode="&#x412;" 
d="M92 715h203q100 0 158.5 -44t58.5 -137v-4q0 -120 -122 -155q157 -29 157 -174v-4q0 -96 -59 -146.5t-163 -50.5h-233v715zM324 45q169 0 169 152v4q0 148 -188 148h-158v-304h177zM296 393q161 0 161 138v4q0 135 -163 135h-147v-277h149z" />
    <glyph glyph-name="uni0413" unicode="&#x413;" horiz-adv-x="527" 
d="M92 715h397v-48h-341v-667h-56v715z" />
    <glyph glyph-name="uni0414" unicode="&#x414;" horiz-adv-x="694" 
d="M191 268q-15 -175 -61 -221h399v622h-315q-1 -11 -4 -84t-8 -160t-11 -157zM56 -130h-46v177h49q36 13 53.5 68.5t27.5 159.5q11 126 19 296q3 48 5 144h420v-668h89v-177h-46l-4 130h-563z" />
    <glyph glyph-name="uni0415" unicode="&#x415;" horiz-adv-x="566" 
d="M92 715h411v-46h-355v-279h288v-46h-288v-298h373v-46h-429v715z" />
    <glyph glyph-name="uni0416" unicode="&#x416;" horiz-adv-x="869" 
d="M407 715h54v-715h-54v715zM780 0l-318 362l306 353h62l-307 -348l323 -367h-66zM23 0l322 364l-309 351h63l306 -353l-318 -362h-64z" />
    <glyph glyph-name="uni0417" unicode="&#x417;" horiz-adv-x="587" 
d="M288 -8q-113 0 -173.5 59t-73.5 154h54q24 -167 193 -167q91 0 139 44t48 121q0 76 -44.5 111t-143.5 35h-93v43h93q78 0 118 38.5t40 105.5q0 68 -40.5 104.5t-115.5 36.5q-74 0 -114.5 -33t-53.5 -101h-51q12 87 68.5 133.5t154.5 46.5q94 0 150.5 -49.5t56.5 -137.5
q0 -62 -34.5 -105t-94.5 -58q160 -23 160 -170q0 -95 -66.5 -153t-176.5 -58z" />
    <glyph glyph-name="uni0418" unicode="&#x418;" horiz-adv-x="727" 
d="M92 0v715h56v-637l432 637h55v-715h-56v637l-431 -637h-56z" />
    <glyph glyph-name="uni0419" unicode="&#x419;" horiz-adv-x="727" 
d="M369 771q-51 0 -87.5 35t-38.5 87h47q2 -37 23 -61t56 -24t57 24t26 61h46q-4 -52 -41 -87t-88 -35zM92 0v715h56v-637l432 637h55v-715h-56v637l-431 -637h-56z" />
    <glyph glyph-name="uni041A" unicode="&#x41a;" horiz-adv-x="599" 
d="M92 715h56v-352l347 353h64l-346 -349l363 -367h-68l-360 361v-361h-56v715z" />
    <glyph glyph-name="uni041B" unicode="&#x41b;" horiz-adv-x="682" 
d="M213 250q-9 -130 -40.5 -193.5t-107.5 -63.5q-22 0 -31 4q-4 1 -10 5v54l11 -4q11 -3 29 -3q46 0 67 48t30 160q7 104 14 305q2 104 2 153h412v-715h-55v668h-305q0 -185 -16 -418z" />
    <glyph glyph-name="uni041C" unicode="&#x41c;" horiz-adv-x="851" 
d="M92 715h80l252 -614l253 614h78v-715h-55v645l-269 -645h-18l-269 645v-645h-52v715z" />
    <glyph glyph-name="uni041D" unicode="&#x41d;" horiz-adv-x="717" 
d="M92 715h56v-333h421v333h56v-715h-56v335h-421v-335h-56v715z" />
    <glyph glyph-name="uni041E" unicode="&#x41e;" horiz-adv-x="801" 
d="M403 39q127 0 207.5 89.5t80.5 227.5v8q0 133 -80.5 223t-209.5 90q-130 0 -210.5 -89t-80.5 -226v-8q0 -136 84 -225.5t209 -89.5zM403 -8q-151 0 -250.5 104.5t-99.5 256.5v8q0 153 99 257.5t249 104.5t249 -104t99 -256v-8q0 -153 -98.5 -258t-247.5 -105z" />
    <glyph glyph-name="uni041F" unicode="&#x41f;" horiz-adv-x="707" 
d="M559 668h-411v-668h-56v715h523v-715h-56v668z" />
    <glyph glyph-name="uni0420" unicode="&#x420;" horiz-adv-x="568" 
d="M92 715h189q111 0 177.5 -49t66.5 -152v-4q0 -106 -65.5 -155t-177.5 -49h-134v-306h-56v715zM286 351q183 0 183 159v4q0 83 -48 119t-137 36h-136v-318h138z" />
    <glyph glyph-name="uni0421" unicode="&#x421;" horiz-adv-x="725" 
d="M385 -8q-152 0 -242 99t-90 262v8q0 157 95.5 260t236.5 103q114 0 194 -58.5t95 -165.5h-56q-35 179 -232 179q-121 0 -198.5 -88t-77.5 -229v-8q0 -145 74 -230t202 -85q98 0 162.5 49.5t81.5 141.5h52q-20 -114 -99.5 -176t-197.5 -62z" />
    <glyph glyph-name="uni0422" unicode="&#x422;" horiz-adv-x="559" 
d="M252 669h-222v46h499v-46h-222v-669h-55v669z" />
    <glyph glyph-name="uni0423" unicode="&#x423;" horiz-adv-x="576" 
d="M136 -7q-24 0 -35 4q-5 1 -11 5l1 51l4 -1q4 -2 7 -3q10 -3 33 -3q44 0 74 26t57 83l-240 560h58l211 -495l211 495h53l-237 -549q-38 -87 -78 -130t-108 -43z" />
    <glyph glyph-name="uni0424" unicode="&#x424;" horiz-adv-x="790" 
d="M422 628q148 -2 234.5 -68t86.5 -196v-8q-2 -131 -89 -197.5t-232 -68.5v-100h-54v100q-148 2 -234.5 68t-86.5 195v7q0 131 87.5 198.5t233.5 69.5v97h54v-97zM422 133q260 5 264 224v8q0 216 -264 221v-453zM368 585q-264 -5 -264 -226v-6q0 -216 264 -221v453z" />
    <glyph glyph-name="uni0425" unicode="&#x425;" horiz-adv-x="646" 
d="M293 370l-226 345h61l200 -303l198 303h58l-228 -346l244 -369h-63l-217 328l-217 -328h-57z" />
    <glyph glyph-name="uni0426" unicode="&#x426;" horiz-adv-x="725" 
d="M658 -130l-4 130h-562v715h56v-668h411v668h56v-668h89v-177h-46z" />
    <glyph glyph-name="uni0427" unicode="&#x427;" horiz-adv-x="649" 
d="M501 0v368q-5 -8 -19.5 -19.5t-40 -26.5t-66 -25t-86.5 -10q-109 0 -167 63t-58 188v177h56v-181q0 -202 172 -202q31 0 59 5t48.5 13t37 17.5t28 20t19 18t12.5 14.5l5 7v288h56v-715h-56z" />
    <glyph glyph-name="uni0428" unicode="&#x428;" horiz-adv-x="974" 
d="M92 715h56v-668h311v668h56v-668h311v668h56v-715h-790v715z" />
    <glyph glyph-name="uni0429" unicode="&#x429;" horiz-adv-x="992" 
d="M925 -130l-4 130h-829v715h56v-668h311v668h56v-668h311v668h56v-668h89v-177h-46z" />
    <glyph glyph-name="uni042A" unicode="&#x42a;" horiz-adv-x="709" 
d="M229 668h-199v47h254v-301h142q110 0 176.5 -51t66.5 -151v-4q0 -101 -63.5 -154.5t-166.5 -53.5h-210v668zM442 46q82 0 127 41.5t45 120.5v4q0 76 -47.5 116.5t-137.5 40.5h-145v-323h158z" />
    <glyph glyph-name="uni042B" unicode="&#x42b;" horiz-adv-x="779" 
d="M686 0h-55v715h55v-715zM92 715h56v-301h134q110 0 177 -51t67 -151v-4q0 -101 -64 -154.5t-167 -53.5h-203v715zM298 46q83 0 127.5 41.5t44.5 120.5v4q0 76 -47.5 116.5t-136.5 40.5h-138v-323h150z" />
    <glyph glyph-name="uni042C" unicode="&#x42c;" horiz-adv-x="573" 
d="M92 715h56v-301h142q110 0 176.5 -51t66.5 -151v-4q0 -101 -63.5 -154.5t-167.5 -53.5h-210v715zM305 46q83 0 127.5 41.5t44.5 120.5v4q0 76 -47 116.5t-137 40.5h-145v-323h157z" />
    <glyph glyph-name="uni042D" unicode="&#x42d;" horiz-adv-x="723" 
d="M339 -8q-116 0 -198 59t-97 165h55q17 -87 78 -133t161 -46q118 0 194 84t80 220h-379v46h379q-6 135 -76.5 213t-191.5 78q-97 0 -160.5 -50t-82.5 -142h-52q21 115 99.5 176.5t197.5 61.5q151 0 237.5 -98.5t86.5 -262.5v-8q0 -157 -95 -260t-236 -103z" />
    <glyph glyph-name="uni042E" unicode="&#x42e;" horiz-adv-x="1015" 
d="M627 -8q-145 0 -239.5 98t-100.5 245h-139v-335h-56v715h56v-333h139q6 147 100 244t238 97q149 0 243 -103.5t94 -256.5v-8q0 -154 -93.5 -258.5t-241.5 -104.5zM627 39q126 0 202 89t76 228v8q0 134 -76 223.5t-204 89.5q-129 0 -205 -88.5t-76 -226.5v-8
q0 -137 79 -226t204 -89z" />
    <glyph glyph-name="uni042F" unicode="&#x42f;" horiz-adv-x="612" 
d="M307 669q-172 0 -172 -151v-4q0 -75 47.5 -115t136.5 -40h146v310h-158zM520 0h-55v314h-137q-12 0 -15 1l-223 -315h-63l228 319q-82 15 -129 63.5t-47 131.5v4q0 100 63 148.5t168 48.5h210v-715z" />
    <glyph glyph-name="uni0430" unicode="&#x430;" horiz-adv-x="529" 
d="M221 -8q-81 0 -129 38.5t-48 110.5q0 84 68 121t177 37h109v47q0 74 -31.5 107t-100.5 33q-130 0 -147 -111h-52q8 77 64.5 116.5t136.5 39.5q86 0 134.5 -44.5t48.5 -140.5v-346h-53v80q-57 -88 -177 -88zM225 35q73 0 123 38.5t50 95.5v89h-107q-59 0 -99.5 -9
t-67.5 -36t-27 -72q0 -106 128 -106z" />
    <glyph glyph-name="uni0431" unicode="&#x431;" horiz-adv-x="601" 
d="M304 -8q-111 0 -181 77t-70 217v62q0 74 8 133.5t28 113t52 90t82.5 59t117.5 24.5l35 1q105 4 144 18v-46q-38 -15 -142 -20l-34 -1q-131 -6 -187 -88t-62 -251h3q25 69 84.5 109.5t137.5 40.5q105 0 171 -73t66 -190v-6q0 -121 -72.5 -195.5t-180.5 -74.5zM305 37
q86 0 142 60.5t56 163.5v5q0 103 -51.5 161.5t-136.5 58.5q-89 0 -148.5 -59.5t-59.5 -161.5v-2q0 -103 56 -164.5t142 -61.5z" />
    <glyph glyph-name="uni0432" unicode="&#x432;" horiz-adv-x="514" 
d="M83 523h187q76 0 122.5 -32t46.5 -100v-3q0 -90 -92 -113q118 -19 118 -123v-3q0 -74 -46 -111.5t-132 -37.5h-204v523zM136 480v-187h134q113 0 113 93v3q0 91 -114 91h-133zM136 250v-207h146q127 0 127 103v3q0 101 -131 101h-142z" />
    <glyph glyph-name="uni0433" unicode="&#x433;" horiz-adv-x="442" 
d="M136 478v-478h-53v523h332v-45h-279z" />
    <glyph glyph-name="uni0434" unicode="&#x434;" horiz-adv-x="570" 
d="M168 233q-9 -81 -19.5 -124t-30.5 -64h301v434h-233q-8 -155 -18 -246zM58 -127h-43v172h35q33 9 46 54t23 139q3 25 14 182l6 103h332v-478h75v-172h-43l-4 127h-437z" />
    <glyph glyph-name="uni0435" unicode="&#x435;" horiz-adv-x="554" 
d="M291 -8q-113 0 -180.5 73t-67.5 191v8q0 118 67.5 192.5t172.5 74.5q100 0 164.5 -65.5t64.5 -189.5v-19h-414q2 -107 51 -163.5t142 -56.5q136 0 164 109h53q-17 -74 -74 -114t-143 -40zM457 300q-4 94 -49.5 140t-124.5 46q-77 0 -126 -50t-57 -136h357z" />
    <glyph glyph-name="uni0436" unicode="&#x436;" horiz-adv-x="678" 
d="M313 523h52v-523h-52v523zM599 0l-233 273l218 250h59l-222 -247l239 -276h-61zM18 0l239 276l-222 247h58l219 -250l-233 -273h-61z" />
    <glyph glyph-name="uni0437" unicode="&#x437;" horiz-adv-x="481" 
d="M406 392q0 -45 -24.5 -77t-68.5 -40q55 -7 86.5 -38.5t31.5 -84.5v-5q0 -68 -51.5 -112t-137.5 -44q-89 0 -141 42.5t-59 116.5h52q18 -114 148 -114q64 0 99 29.5t35 78.5v5q0 101 -130 101h-86v43h79q111 0 111 97v3q0 44 -28.5 68.5t-83.5 24.5q-109 0 -127 -105h-51
q8 74 58 112t123 38t119 -36t46 -100v-3z" />
    <glyph glyph-name="uni0438" unicode="&#x438;" horiz-adv-x="577" 
d="M83 0v523h53v-445l311 445h53v-523h-53v446l-311 -446h-53z" />
    <glyph glyph-name="uni0439" unicode="&#x439;" horiz-adv-x="577" 
d="M288 616q-51 0 -86.5 34.5t-39.5 88.5h48q2 -37 23 -61t55 -24q35 0 57.5 24t25.5 61h47q-4 -53 -41 -88t-89 -35zM83 0v523h53v-445l311 445h53v-523h-53v446l-311 -446h-53z" />
    <glyph glyph-name="uni043A" unicode="&#x43a;" horiz-adv-x="487" 
d="M135 273v-273h-53v523h53v-250l255 250h63l-255 -247l272 -276h-66z" />
    <glyph glyph-name="uni043B" unicode="&#x43b;" horiz-adv-x="552" 
d="M175 233q-10 -122 -37.5 -179.5t-86.5 -57.5q-19 0 -28 3l-10 4v51l10 -4q9 -3 24 -3q20 0 33.5 13t22 41.5t13.5 58.5t10 78q6 61 12 182q2 35 4 103h327v-523h-53v478h-226q-11 -210 -15 -245z" />
    <glyph glyph-name="uni043C" unicode="&#x43c;" horiz-adv-x="685" 
d="M129 468v-468h-46v523h76l182 -439l188 439h73v-523h-53v468l-199 -468h-25z" />
    <glyph glyph-name="uni043D" unicode="&#x43d;" horiz-adv-x="573" 
d="M437 248h-301v-248h-53v523h53v-230h301v230h53v-523h-53v248z" />
    <glyph glyph-name="uni043E" unicode="&#x43e;" horiz-adv-x="591" 
d="M296 37q86 0 141.5 60t55.5 160v8q0 102 -55.5 161.5t-141.5 59.5t-142 -60.5t-56 -160.5v-8q0 -99 55.5 -159.5t142.5 -60.5zM295 -8q-107 0 -179.5 75t-72.5 190v8q0 116 73 191t180 75q108 0 180 -74t72 -191v-8q0 -116 -73 -191t-180 -75z" />
    <glyph glyph-name="uni043F" unicode="&#x43f;" horiz-adv-x="563" 
d="M427 478h-291v-478h-53v523h397v-523h-53v478z" />
    <glyph glyph-name="uni0440" unicode="&#x440;" horiz-adv-x="612" 
d="M82 523h53v-122q23 53 78 91.5t121 38.5q101 0 168 -72t67 -192v-8q0 -121 -65.5 -194t-169.5 -73q-72 0 -124.5 37t-74.5 90v-301h-53v705zM330 37q85 0 134.5 58t49.5 162v8q0 104 -53 162.5t-132 58.5q-81 0 -138 -59t-57 -162v-8q0 -103 55.5 -161.5t140.5 -58.5z
" />
    <glyph glyph-name="uni0441" unicode="&#x441;" horiz-adv-x="556" 
d="M293 -8q-107 0 -178.5 73.5t-71.5 190.5v8q0 118 72 192.5t178 74.5q85 0 147 -45t71 -129h-52q-9 63 -54.5 96t-111.5 33q-84 0 -139.5 -60.5t-55.5 -161.5v-8q0 -101 55 -160t140 -59q68 0 116.5 38t57.5 106h49q-10 -84 -72 -136.5t-151 -52.5z" />
    <glyph glyph-name="uni0442" unicode="&#x442;" horiz-adv-x="465" 
d="M440 478h-181v-478h-53v478h-181v45h415v-45z" />
    <glyph glyph-name="uni0443" unicode="&#x443;" horiz-adv-x="508" 
d="M232 45l-207 478h57l179 -417l167 417h54l-290 -705h-55z" />
    <glyph glyph-name="uni0444" unicode="&#x444;" horiz-adv-x="685" 
d="M369 530q120 -4 196.5 -75t76.5 -189v-8q0 -119 -76.5 -190.5t-196.5 -75.5v-174h-53v174q-120 4 -196.5 75.5t-76.5 189.5v8q0 120 76.5 190.5t196.5 74.5v243h53v-243zM316 489q-98 -2 -158.5 -61.5t-60.5 -161.5v-8q0 -103 60.5 -162.5t158.5 -61.5v455zM369 33
q98 2 158.5 61.5t60.5 162.5v7q0 103 -60.5 162t-158.5 63v-456z" />
    <glyph glyph-name="uni0445" unicode="&#x445;" horiz-adv-x="511" 
d="M223 270l-182 253h63l151 -213l149 213h59l-179 -249l198 -274h-63l-166 234l-166 -234h-58z" />
    <glyph glyph-name="uni0446" unicode="&#x446;" horiz-adv-x="579" 
d="M512 -127l-4 127h-425v523h53v-478h291v478h53v-478h75v-172h-43z" />
    <glyph glyph-name="uni0447" unicode="&#x447;" horiz-adv-x="558" 
d="M412 0v263q-67 -74 -167 -74q-80 0 -128 49t-48 152v133h53v-131q0 -157 135 -157q17 0 33 3t28.5 7t25 11t20 12.5t17.5 14.5t13.5 12.5t10.5 12.5l7 8v207h53v-523h-53z" />
    <glyph glyph-name="uni0448" unicode="&#x448;" horiz-adv-x="798" 
d="M83 523h53v-478h236v478h53v-478h237v478h53v-523h-632v523z" />
    <glyph glyph-name="uni0449" unicode="&#x449;" horiz-adv-x="814" 
d="M747 -127l-4 127h-660v523h53v-478h236v478h53v-478h237v478h53v-478h75v-172h-43z" />
    <glyph glyph-name="uni044A" unicode="&#x44a;" horiz-adv-x="578" 
d="M182 478h-157v45h210v-192h114q88 0 141 -40.5t53 -120.5v-3q0 -81 -50.5 -124t-133.5 -43h-177v478zM361 43q129 0 129 124v3q0 119 -138 119h-117v-246h126z" />
    <glyph glyph-name="uni044B" unicode="&#x44b;" horiz-adv-x="668" 
d="M533 523h53v-523h-53v523zM83 523h53v-192h113q88 0 141 -40.5t53 -120.5v-3q0 -81 -50.5 -124t-133.5 -43h-176v523zM262 43q128 0 128 124v3q0 119 -138 119h-116v-246h126z" />
    <glyph glyph-name="uni044C" unicode="&#x44c;" horiz-adv-x="478" 
d="M83 523h53v-192h113q88 0 141 -42t53 -122v-3q0 -81 -50.5 -122.5t-133.5 -41.5h-176v523zM262 42q128 0 128 122v3q0 122 -138 122h-116v-247h126z" />
    <glyph glyph-name="uni044D" unicode="&#x44d;" horiz-adv-x="556" 
d="M269 -8q-89 0 -153 46.5t-75 135.5h52q12 -69 58.5 -103t117.5 -34q82 0 133 57t55 155h-283v43h283q-7 92 -59.5 143t-133.5 51q-65 0 -111 -35t-61 -102h-50q14 82 75 132t148 50q109 0 178.5 -71.5t69.5 -190.5v-8q0 -119 -69.5 -194t-174.5 -75z" />
    <glyph glyph-name="uni044E" unicode="&#x44e;" horiz-adv-x="772" 
d="M485 -8q-101 0 -167.5 68t-72.5 179q0 1 -0.5 4t-0.5 5h-108v-248h-53v523h53v-230h109q8 106 75.5 172t166.5 66q106 0 173.5 -73.5t67.5 -191.5v-8q0 -117 -68.5 -191.5t-174.5 -74.5zM486 37q85 0 136.5 59.5t51.5 160.5v8q0 103 -51.5 162t-135.5 59q-85 0 -137 -60
t-52 -161v-8q0 -100 51.5 -160t136.5 -60z" />
    <glyph glyph-name="uni044F" unicode="&#x44f;" horiz-adv-x="509" 
d="M247 480q-128 0 -128 -113v-3q0 -110 138 -110h116v226h-126zM96 0h-62l161 222q-129 22 -129 142v3q0 78 50 117t134 39h177v-523h-54v213h-125z" />
    <glyph glyph-name="uni0451" unicode="&#x451;" horiz-adv-x="554" 
d="M291 -8q-113 0 -180.5 73t-67.5 191v8q0 118 67.5 192.5t172.5 74.5q100 0 164.5 -65.5t64.5 -189.5v-19h-414q2 -107 51 -163.5t142 -56.5q136 0 164 109h53q-17 -74 -74 -114t-143 -40zM457 300q-4 94 -49.5 140t-124.5 46q-77 0 -126 -50t-57 -136h357zM199 636
q-16 0 -26.5 11t-10.5 26t10.5 25.5t26.5 10.5q15 0 25.5 -10.5t10.5 -25.5t-10.5 -26t-25.5 -11zM365 636q-15 0 -25.5 11t-10.5 26t10.5 25.5t25.5 10.5q16 0 26.5 -10.5t10.5 -25.5t-10.5 -26t-26.5 -11z" />
    <glyph glyph-name="uni0452" unicode="&#x452;" horiz-adv-x="583" 
d="M453 325q0 160 -145 160q-70 0 -121.5 -45t-51.5 -123v-317h-53v623h-78v41h78v109h53v-109h189v-41h-189v-202q19 46 68.5 78t116.5 32q87 0 136.5 -51t49.5 -158v-370q0 -70 -30 -103.5t-100 -36.5v45q43 4 60 25.5t17 65.5v377z" />
    <glyph glyph-name="uni0453" unicode="&#x453;" horiz-adv-x="442" 
d="M136 478v-478h-53v523h332v-45h-279zM284 752h65l-92 -147h-41z" />
    <glyph glyph-name="uni0454" unicode="&#x454;" horiz-adv-x="556" 
d="M516 181q-10 -84 -72 -136.5t-151 -52.5q-107 0 -178.5 73.5t-71.5 190.5v8q0 118 72 192.5t178 74.5q85 0 147 -45t71 -129h-52q-9 63 -54.5 96t-111.5 33q-77 0 -131.5 -53t-62.5 -141h282v-42h-283q2 -100 57 -156.5t138 -56.5q68 0 116.5 38t57.5 106h49z" />
    <glyph glyph-name="uni0455" unicode="&#x455;" horiz-adv-x="465" 
d="M239 -9q-91 0 -143.5 44.5t-57.5 120.5h51q15 -120 150 -120q65 0 99 27t34 76q0 48 -29.5 69.5t-107.5 36.5q-99 19 -139.5 49.5t-40.5 96.5q0 63 51 101.5t121 38.5q164 0 182 -142h-51q-19 97 -132 97q-55 0 -88.5 -25.5t-33.5 -67.5q0 -44 31 -65.5t112 -35.5
q94 -18 135 -47.5t41 -101.5q0 -68 -48 -110t-136 -42z" />
    <glyph glyph-name="uni0456" unicode="&#x456;" horiz-adv-x="221" 
d="M84 523h53v-523h-53v523zM110 635q-16 0 -27 11t-11 27q0 15 11 26t27 11t26.5 -11t10.5 -26q0 -16 -10.5 -27t-26.5 -11z" />
    <glyph glyph-name="uni0457" unicode="&#x457;" horiz-adv-x="221" 
d="M36 636q-15 0 -25.5 11t-10.5 26t10.5 25.5t25.5 10.5t26 -10.5t11 -25.5t-11 -26t-26 -11zM185 636q-15 0 -26 11t-11 26t11 25.5t26 10.5t25.5 -10.5t10.5 -25.5t-10.5 -26t-25.5 -11zM84 523h53v-523h-53v523z" />
    <glyph glyph-name="uni0458" unicode="&#x458;" horiz-adv-x="221" 
d="M7 -143q43 4 60 25.5t17 65.5v575h53v-571q0 -70 -29.5 -103.5t-100.5 -36.5v45zM110 635q-16 0 -27 11t-11 27q0 15 11 26t27 11t26.5 -11t10.5 -26q0 -16 -10.5 -27t-26.5 -11z" />
    <glyph glyph-name="uni0459" unicode="&#x459;" horiz-adv-x="791" 
d="M405 478h-215q-11 -210 -15 -245q-10 -122 -37.5 -179.5t-86.5 -57.5q-19 0 -28 3l-10 4v51l10 -4q9 -3 24 -3q20 0 33.5 13t22 41.5t13.5 58.5t10 78q6 61 12 182q2 35 4 103h316v-192h104q88 0 141 -40.5t53 -120.5v-3q0 -81 -50.5 -124t-133.5 -43h-167v478zM574 43
q129 0 129 124v3q0 119 -138 119h-107v-246h116z" />
    <glyph glyph-name="uni045A" unicode="&#x45a;" horiz-adv-x="813" 
d="M596 43q63 0 96 32t33 92v3q0 119 -139 119h-106v-246h116zM427 248h-291v-248h-53v523h53v-230h291v230h53v-192h104q88 0 141 -40.5t53 -120.5v-3q0 -81 -51 -124t-134 -43h-166v248z" />
    <glyph glyph-name="uni045B" unicode="&#x45b;" horiz-adv-x="583" 
d="M4 664h78v109h53v-109h189v-41h-189v-202q19 46 68.5 78t116.5 32q87 0 136.5 -51t49.5 -158v-322h-53v325q0 160 -145 160q-70 0 -121.5 -45t-51.5 -123v-317h-53v623h-78v41z" />
    <glyph glyph-name="uni045C" unicode="&#x45c;" horiz-adv-x="487" 
d="M300 752h65l-92 -147h-41zM135 273v-273h-53v523h53v-250l255 250h63l-255 -247l272 -276h-66z" />
    <glyph glyph-name="uni045D" unicode="&#x45d;" horiz-adv-x="583" 
d="M83 0v523h53v-445l311 445h53v-523h-53v446l-311 -446h-53zM192 752h65l68 -147h-41z" />
    <glyph glyph-name="uni045E" unicode="&#x45e;" horiz-adv-x="508" 
d="M261 616q-51 0 -86.5 34.5t-39.5 88.5h47q3 -37 24 -61t55 -24q35 0 57.5 24t25.5 61h46q-4 -54 -40.5 -88.5t-88.5 -34.5zM232 45l-207 478h57l179 -417l167 417h54l-290 -705h-55z" />
    <glyph glyph-name="uni045F" unicode="&#x45f;" horiz-adv-x="563" 
d="M83 0v523h53v-478h291v478h53v-523h-176l-2 -127h-41l-3 127h-175z" />
    <glyph glyph-name="uni0490" unicode="&#x490;" horiz-adv-x="530" 
d="M148 668v-668h-56v715h346l5 134h46v-181h-341z" />
    <glyph glyph-name="uni0491" unicode="&#x491;" horiz-adv-x="431" 
d="M136 478v-478h-53v523h269l5 134h42v-179h-263z" />
    <glyph glyph-name="Wgrave" unicode="&#x1e80;" horiz-adv-x="924" 
d="M33 715h56l164 -630l189 630h39l182 -632l173 632h51l-196 -715h-54l-176 616l-186 -616h-53zM358 893h66l64 -122h-42z" />
    <glyph glyph-name="wgrave" unicode="&#x1e81;" horiz-adv-x="780" 
d="M29 523h57l140 -458l143 458h45l138 -458l141 458h54l-165 -523h-61l-130 438l-139 -438h-60zM286 752h65l68 -147h-41z" />
    <glyph glyph-name="Wacute" unicode="&#x1e82;" horiz-adv-x="924" 
d="M33 715h56l164 -630l189 630h39l182 -632l173 632h51l-196 -715h-54l-176 616l-186 -616h-53zM503 893h66l-88 -122h-42z" />
    <glyph glyph-name="wacute" unicode="&#x1e83;" horiz-adv-x="780" 
d="M29 523h57l140 -458l143 458h45l138 -458l141 458h54l-165 -523h-61l-130 438l-139 -438h-60zM434 752h65l-92 -147h-41z" />
    <glyph glyph-name="Wdieresis" unicode="&#x1e84;" horiz-adv-x="924" 
d="M33 715h56l164 -630l189 630h39l182 -632l173 632h51l-196 -715h-54l-176 616l-186 -616h-53zM371 788q-16 0 -26.5 11t-10.5 26t11 25.5t26 10.5t25.5 -11t10.5 -25q0 -15 -10.5 -26t-25.5 -11zM551 788q-15 0 -25.5 11t-10.5 26q0 14 10.5 25t25.5 11t25.5 -11
t10.5 -25q0 -15 -10.5 -26t-25.5 -11z" />
    <glyph glyph-name="wdieresis" unicode="&#x1e85;" horiz-adv-x="780" 
d="M29 523h57l140 -458l143 458h45l138 -458l141 458h54l-165 -523h-61l-130 438l-139 -438h-60zM308 636q-16 0 -26.5 11t-10.5 26t10.5 25.5t26.5 10.5q15 0 25.5 -10.5t10.5 -25.5t-10.5 -26t-25.5 -11zM474 636q-15 0 -25.5 11t-10.5 26t10.5 25.5t25.5 10.5
q16 0 26.5 -10.5t10.5 -25.5t-10.5 -26t-26.5 -11z" />
    <glyph glyph-name="Ygrave" unicode="&#x1ef2;" horiz-adv-x="582" 
d="M268 318l-245 397h62l212 -350l202 350h56l-231 -398v-317h-56v318zM194 893h66l64 -122h-42z" />
    <glyph glyph-name="ygrave" unicode="&#x1ef3;" horiz-adv-x="512" 
d="M232 45l-207 478h57l179 -417l167 417h54l-290 -705h-55zM150 752h65l68 -147h-41z" />
    <glyph glyph-name="uni2009" unicode="&#x2009;" horiz-adv-x="114" 
 />
    <glyph glyph-name="endash" unicode="&#x2013;" horiz-adv-x="507" 
d="M46 300h411v-45h-411v45z" />
    <glyph glyph-name="emdash" unicode="&#x2014;" horiz-adv-x="873" 
d="M46 300h777v-45h-777v45z" />
    <glyph glyph-name="quoteleft" unicode="&#x2018;" horiz-adv-x="218" 
d="M42 551l92 171l34 -16l-75 -178z" />
    <glyph glyph-name="quoteright" unicode="&#x2019;" horiz-adv-x="218" 
d="M46 545l75 177l51 -22l-92 -172z" />
    <glyph glyph-name="quotesinglbase" unicode="&#x201a;" horiz-adv-x="218" 
d="M46 -70l75 177l51 -22l-92 -172z" />
    <glyph glyph-name="quotedblleft" unicode="&#x201c;" horiz-adv-x="358" 
d="M42 551l92 171l34 -16l-75 -178zM182 551l92 171l34 -16l-75 -178z" />
    <glyph glyph-name="quotedblright" unicode="&#x201d;" horiz-adv-x="358" 
d="M46 545l75 177l51 -22l-92 -172zM185 545l76 177l51 -22l-92 -172z" />
    <glyph glyph-name="quotedblbase" unicode="&#x201e;" horiz-adv-x="358" 
d="M46 -70l75 177l51 -22l-92 -172zM185 -70l76 177l51 -22l-92 -172z" />
    <glyph glyph-name="dagger" unicode="&#x2020;" horiz-adv-x="353" 
d="M150 536h-118v44h118v135h49v-135h118v-44h-118v-315h-49v315z" />
    <glyph glyph-name="daggerdbl" unicode="&#x2021;" horiz-adv-x="353" 
d="M150 536h-118v44h118v135h49v-135h118v-44h-118v-136h118v-44h-118v-135h-49v135h-118v44h118v136z" />
    <glyph glyph-name="bullet" unicode="&#x2022;" horiz-adv-x="320" 
d="M158 199q-45 0 -75.5 31t-30.5 75t30.5 75t75.5 31t75.5 -30.5t30.5 -75.5q0 -44 -30.5 -75t-75.5 -31z" />
    <glyph glyph-name="ellipsis" unicode="&#x2026;" horiz-adv-x="701" 
d="M114 -5q-17 0 -29.5 12.5t-12.5 29.5q0 18 12.5 30.5t29.5 12.5q18 0 30.5 -12.5t12.5 -30.5q0 -17 -12.5 -29.5t-30.5 -12.5zM348 -5q-17 0 -29.5 12.5t-12.5 29.5q0 18 12.5 30.5t29.5 12.5q18 0 30.5 -12.5t12.5 -30.5q0 -17 -12.5 -29.5t-30.5 -12.5zM582 -5
q-17 0 -29.5 12.5t-12.5 29.5q0 18 12.5 30.5t29.5 12.5q18 0 30.5 -12.5t12.5 -30.5q0 -17 -12.5 -29.5t-30.5 -12.5z" />
    <glyph glyph-name="perthousand" unicode="&#x2030;" horiz-adv-x="1113" 
d="M194 446q46 0 75.5 31t29.5 85q0 53 -29.5 84.5t-75.5 31.5t-75.5 -31t-29.5 -86q0 -53 29.5 -84t75.5 -31zM194 404q-61 0 -107.5 44.5t-46.5 111.5q0 70 45.5 115t108.5 45q64 0 109 -45t45 -113q0 -69 -45.5 -113.5t-108.5 -44.5zM580 715h50l-455 -715h-50zM557 35
q46 0 75.5 31t29.5 85q0 53 -29.5 84.5t-75.5 31.5t-75.5 -31t-29.5 -86q0 -53 29.5 -84t75.5 -31zM557 -7q-62 0 -108 44.5t-46 111.5q0 70 45 115t109 45t109 -45t45 -113q0 -69 -46 -113.5t-108 -44.5zM915 35q46 0 75.5 31t29.5 85q0 53 -29.5 84.5t-75.5 31.5
t-75.5 -31t-29.5 -86q0 -53 29.5 -84t75.5 -31zM915 -7q-61 0 -107 44.5t-46 111.5q0 70 45 115t108 45q64 0 109 -45t45 -113q0 -69 -45.5 -113.5t-108.5 -44.5z" />
    <glyph glyph-name="uni2032" unicode="&#x2032;" horiz-adv-x="178" 
d="M73 715h58l-48 -209h-40z" />
    <glyph glyph-name="uni2033" unicode="&#x2033;" horiz-adv-x="309" 
d="M73 715h58l-48 -209h-40zM204 715h57l-47 -209h-40z" />
    <glyph glyph-name="guilsinglleft" unicode="&#x2039;" horiz-adv-x="294" 
d="M54 261l135 178h54l-132 -178l132 -178h-54z" />
    <glyph glyph-name="guilsinglright" unicode="&#x203a;" horiz-adv-x="294" 
d="M179 261l-132 178h54l135 -178l-135 -178h-54z" />
    <glyph glyph-name="fraction" unicode="&#x2044;" horiz-adv-x="117" 
d="M292 715h45l-516 -715h-45z" />
    <glyph glyph-name="Euro" unicode="&#x20ac;" horiz-adv-x="661" 
d="M32 444h69q9 125 77.5 202t184.5 77q102 0 163 -54.5t73 -152.5h-53q-24 162 -183 162q-92 0 -146.5 -63t-60.5 -171h252l-7 -38h-246v-98h227l-7 -38h-219q7 -110 60 -170.5t148 -60.5q83 0 131.5 45.5t60.5 130.5h52q-13 -106 -76.5 -164.5t-167.5 -58.5
q-115 0 -185 76t-78 202h-69v38h68v98h-68v38z" />
    <glyph glyph-name="uni20B4" unicode="&#x20b4;" horiz-adv-x="579" 
d="M281 -8q-101 0 -161.5 44.5t-60.5 128.5q0 68 42 116h-71v39h118q42 27 140 71q28 12 56 26h-314v39h375q43 39 43 110q0 111 -145 111q-149 0 -173 -128h-51q11 84 68.5 129t155.5 45q91 0 145 -40.5t54 -116.5q0 -67 -37 -110h84v-39h-130q-28 -18 -121 -62
q-64 -31 -72 -35h323v-39h-384q-50 -40 -50 -114q0 -63 45 -96t121 -33q171 0 195 162h54q-10 -92 -72.5 -150t-176.5 -58z" />
    <glyph glyph-name="uni20B8" unicode="&#x20b8;" horiz-adv-x="559" 
d="M30 676v39h499v-39h-499zM252 539h-222v46h499v-46h-222v-539h-55v539z" />
    <glyph glyph-name="uni20BD" unicode="&#x20bd;" horiz-adv-x="608" 
d="M326 351q183 0 183 159v4q0 83 -48 119t-137 36h-136v-318h138zM188 176v-176h-56v176h-100v38h100v98h-100v38h100v365h189q111 0 177.5 -49t66.5 -152v-4q0 -106 -65.5 -155t-177.5 -49h-134v-92h256v-38h-256z" />
    <glyph glyph-name="uni2116" unicode="&#x2116;" horiz-adv-x="1056" 
d="M845 344q-77 0 -127.5 52t-50.5 134v6q0 83 51 134.5t128 51.5t127.5 -51t50.5 -134v-6q0 -84 -51 -135.5t-128 -51.5zM846 386q56 0 91.5 39.5t35.5 105.5v5q0 67 -35.5 106t-91.5 39q-55 0 -91 -39.5t-36 -105.5v-5q0 -66 35 -105.5t92 -39.5zM92 715h76l359 -635v635
h53v-715h-66l-368 650v-650h-54v715zM683 262h325v-43h-325v43z" />
    <glyph glyph-name="trademark" unicode="&#x2122;" horiz-adv-x="679" 
d="M324 715h54l101 -248l100 248h54v-315h-38v267l-111 -267h-14l-111 267v-267h-35v315zM128 684h-98v31h234v-31h-97v-284h-39v284z" />
    <glyph glyph-name="Omega" unicode="&#x2126;" horiz-adv-x="805" 
d="M110 359q0 -224 215 -333v-26h-270v44h174q-74 40 -125 122t-51 193v8q0 91 40.5 171.5t122 132.5t187.5 52t187 -51.5t121.5 -131.5t40.5 -172v-8q0 -116 -50.5 -195t-124.5 -121h173v-44h-270v26q214 103 214 335v8q0 58 -19 112t-54 98.5t-92 71t-126 26.5
q-92 0 -160.5 -45.5t-100.5 -115t-32 -149.5v-8z" />
    <glyph glyph-name="onethird" unicode="&#x2153;" horiz-adv-x="707" 
d="M115 668l-88 -61v41l96 67h37v-343h-45v296zM550 715h45l-516 -715h-45zM544 -4q-59 0 -93 29t-36 76h41q4 -32 25.5 -51.5t61.5 -19.5q78 0 78 67q0 30 -19 47.5t-54 17.5h-27v33h25q33 0 49.5 16t16.5 43t-17.5 43t-49.5 16q-34 0 -53.5 -18t-23.5 -48h-40
q3 44 34.5 72t83.5 28q50 0 79.5 -25.5t29.5 -65.5q0 -56 -59 -75q31 -7 50.5 -29t19.5 -56q0 -48 -32.5 -74t-89.5 -26z" />
    <glyph glyph-name="twothirds" unicode="&#x2154;" horiz-adv-x="747" 
d="M18 381l130 131q33 35 47.5 58.5t14.5 49.5q0 30 -18 47t-48 17q-64 0 -75 -78h-41q3 54 34.5 83.5t82.5 29.5t80 -26.5t29 -71.5q0 -33 -16.5 -61t-55.5 -66l-90 -87h166v-35h-240v9zM609 715h45l-516 -715h-45zM584 -4q-59 0 -93 29t-36 76h41q4 -32 25.5 -51.5
t61.5 -19.5q78 0 78 67q0 30 -19 47.5t-54 17.5h-27v33h25q33 0 49.5 16t16.5 43t-17.5 43t-49.5 16q-34 0 -53.5 -18t-23.5 -48h-40q3 44 34.5 72t83.5 28q50 0 79.5 -25.5t29.5 -65.5q0 -56 -59 -75q31 -7 50.5 -29t19.5 -56q0 -48 -32.5 -74t-89.5 -26z" />
    <glyph glyph-name="oneeighth" unicode="&#x215b;" horiz-adv-x="700" 
d="M112 668l-88 -61v41l96 67h37v-343h-45v296zM553 715h45l-516 -715h-45zM535 -4q-55 0 -90.5 25.5t-35.5 73.5q0 34 20 56.5t54 31.5q-27 9 -43.5 28.5t-16.5 46.5q0 41 32.5 65t79.5 24t79.5 -24.5t32.5 -63.5q0 -56 -59 -75q73 -22 73 -88q0 -48 -35 -74t-91 -26z
M535 30q37 0 59 17.5t22 51.5q0 31 -22.5 49.5t-57.5 18.5t-58.5 -18.5t-23.5 -50.5q0 -34 22.5 -51t58.5 -17zM536 198q30 0 49 15.5t19 43.5q0 26 -19 41t-50 15q-30 0 -49.5 -15.5t-19.5 -41.5q0 -28 20.5 -43t49.5 -15z" />
    <glyph glyph-name="threeeighths" unicode="&#x215c;" horiz-adv-x="735" 
d="M156 368q-59 0 -93 29t-36 76h41q4 -32 25.5 -51.5t61.5 -19.5q78 0 78 67q0 30 -19 47.5t-54 17.5h-27v33h25q33 0 49.5 16t16.5 43t-17.5 43t-49.5 16q-34 0 -53.5 -18t-23.5 -48h-40q3 44 34.5 72t83.5 28q50 0 79.5 -25.5t29.5 -65.5q0 -56 -59 -75q31 -7 50.5 -29
t19.5 -56q0 -48 -32.5 -74t-89.5 -26zM599 715h45l-516 -715h-45zM570 -4q-55 0 -90.5 25.5t-35.5 73.5q0 34 20 56.5t54 31.5q-27 9 -43.5 28.5t-16.5 46.5q0 41 32.5 65t79.5 24t79.5 -24.5t32.5 -63.5q0 -56 -59 -75q73 -22 73 -88q0 -48 -35 -74t-91 -26zM570 30
q37 0 59 17.5t22 51.5q0 31 -22.5 49.5t-57.5 18.5t-58.5 -18.5t-23.5 -50.5q0 -34 22.5 -51t58.5 -17zM571 198q30 0 49 15.5t19 43.5q0 26 -19 41t-50 15q-30 0 -49.5 -15.5t-19.5 -41.5q0 -28 20.5 -43t49.5 -15z" />
    <glyph glyph-name="fiveeighths" unicode="&#x215d;" horiz-adv-x="724" 
d="M145 368q-55 0 -85 26.5t-34 70.5h43q9 -62 76 -62q35 0 55 22t20 59q0 36 -20 58t-53 22q-53 0 -80 -34h-23l2 185h200v-35h-164l-1 -112q30 30 79 30q47 0 76.5 -31t29.5 -83q0 -53 -33 -84.5t-88 -31.5zM588 715h45l-516 -715h-45zM559 -4q-55 0 -90.5 25.5
t-35.5 73.5q0 34 20 56.5t54 31.5q-27 9 -43.5 28.5t-16.5 46.5q0 41 32.5 65t79.5 24t79.5 -24.5t32.5 -63.5q0 -56 -59 -75q73 -22 73 -88q0 -48 -35 -74t-91 -26zM559 30q37 0 59 17.5t22 51.5q0 31 -22.5 49.5t-57.5 18.5t-58.5 -18.5t-23.5 -50.5q0 -34 22.5 -51
t58.5 -17zM560 198q30 0 49 15.5t19 43.5q0 26 -19 41t-50 15q-30 0 -49.5 -15.5t-19.5 -41.5q0 -28 20.5 -43t49.5 -15z" />
    <glyph glyph-name="seveneighths" unicode="&#x215e;" horiz-adv-x="697" 
d="M202 678h-180v37h237v-6l-135 -337h-46zM544 715h45l-516 -715h-45zM532 -4q-55 0 -90.5 25.5t-35.5 73.5q0 34 20 56.5t54 31.5q-27 9 -43.5 28.5t-16.5 46.5q0 41 32.5 65t79.5 24t79.5 -24.5t32.5 -63.5q0 -56 -59 -75q73 -22 73 -88q0 -48 -35 -74t-91 -26zM532 30
q37 0 59 17.5t22 51.5q0 31 -22.5 49.5t-57.5 18.5t-58.5 -18.5t-23.5 -50.5q0 -34 22.5 -51t58.5 -17zM533 198q30 0 49 15.5t19 43.5q0 26 -19 41t-50 15q-30 0 -49.5 -15.5t-19.5 -41.5q0 -28 20.5 -43t49.5 -15z" />
    <glyph glyph-name="Delta" unicode="&#x2206;" horiz-adv-x="658" 
d="M37 11l253 704h79l252 -704v-11h-584v11zM102 48h451l-226 628z" />
    <glyph glyph-name="minus" unicode="&#x2212;" horiz-adv-x="514" 
d="M36 365h438v-46h-438v46z" />
    <glyph glyph-name="approxequal" unicode="&#x2248;" horiz-adv-x="499" 
d="M40 180q5 48 32.5 75t70.5 27q41 0 110.5 -26.5t99.5 -26.5q26 0 41.5 15t18.5 40h42q-5 -48 -32.5 -75t-69.5 -27q-41 0 -111 26.5t-100 26.5q-51 0 -60 -55h-42zM40 347q5 48 32.5 75t70.5 27q41 0 110.5 -27t99.5 -27q25 0 41 15.5t19 40.5h42q-5 -48 -32.5 -75
t-69.5 -27q-41 0 -111 26.5t-100 26.5q-51 0 -60 -55h-42z" />
    <glyph glyph-name="notequal" unicode="&#x2260;" horiz-adv-x="488" 
d="M40 426h225l50 117h49l-51 -117h131v-46h-150l-52 -121h202v-46h-222l-50 -117h-49l50 117h-133v46h153l52 121h-205v46z" />
    <glyph glyph-name="lessequal" unicode="&#x2264;" horiz-adv-x="500" 
d="M51 322v13l384 205v-52l-304 -160l304 -159v-52zM51 45h384v-45h-384v45z" />
    <glyph glyph-name="greaterequal" unicode="&#x2265;" horiz-adv-x="500" 
d="M61 169l305 159l-305 160v52l384 -205v-13l-384 -205v52zM61 45h384v-45h-384v45z" />
    <glyph glyph-name="uni24C5" unicode="&#x24c5;" horiz-adv-x="848" 
d="M310 562h119q146 0 146 -119v-3q0 -61 -38.5 -90t-105.5 -29h-69v-165h-52v406zM429 360q95 0 95 80v3q0 78 -95 78h-67v-161h67zM421 23q137 0 234 96t97 240q0 143 -95 238t-234 95t-235 -96t-96 -239q0 -144 97 -239t232 -95zM421 -9q-154 0 -260 105.5t-106 260.5
q0 153 107 260t261 107q155 0 260.5 -106t105.5 -259q0 -156 -106.5 -262t-261.5 -106z" />
    <glyph glyph-name="zero.tab" unicode="&#xe44f;" 
d="M303 39q96 0 141.5 60t45.5 188v146q0 118 -49 181t-141 63q-93 0 -141 -63t-48 -186v-143q0 -246 192 -246zM303 -8q-115 0 -181.5 76t-66.5 216v143q0 142 65 219t180 77t180.5 -75.5t65.5 -215.5v-145q0 -143 -63 -219t-180 -76z" />
    <glyph glyph-name="one.tab" unicode="&#xe450;" 
d="M326 655l-224 -178v53l226 185h53v-715h-55v655z" />
    <glyph glyph-name="two.tab" unicode="&#xe451;" 
d="M51 13l287 297q58 61 85 112.5t27 107.5q0 71 -41 109t-111 38q-149 0 -171 -170h-52q8 100 68.5 158t154.5 58q95 0 151.5 -51.5t56.5 -143.5q0 -120 -135 -253l-232 -229h377v-46h-465v13z" />
    <glyph glyph-name="three.tab" unicode="&#xe452;" 
d="M293 -8q-106 0 -169.5 60.5t-67.5 149.5h52q6 -73 52 -118.5t134 -45.5q86 0 132 42t46 118q0 71 -41 112t-123 41h-52v47h48q74 0 110 37.5t36 98.5q0 63 -37.5 102.5t-107.5 39.5q-73 0 -118.5 -41t-52.5 -108h-49q4 82 66 139t154 57t146 -54t54 -134q0 -58 -32 -98.5
t-87 -58.5q66 -15 104.5 -61t38.5 -119q0 -96 -65 -151t-171 -55z" />
    <glyph glyph-name="four.tab" unicode="&#xe453;" 
d="M402 161h-358v17l336 537h77v-508h91v-46h-91v-161h-55v161zM402 207v465l-287 -465h287z" />
    <glyph glyph-name="five.tab" unicode="&#xe454;" 
d="M287 -8q-104 0 -162.5 54t-67.5 138h53q24 -146 177 -146q86 0 134 51.5t48 142.5q0 83 -48.5 135t-123.5 52q-110 0 -178 -78h-20v374h390v-48h-343v-262q60 60 160 60q95 0 157.5 -64t62.5 -169q0 -110 -67 -175t-172 -65z" />
    <glyph glyph-name="six.tab" unicode="&#xe455;" 
d="M310 -8q-128 0 -188.5 82.5t-60.5 218.5v52q0 189 73 283.5t196 94.5q82 0 135.5 -41t65.5 -122h-53q-24 116 -151 116q-98 0 -153.5 -76t-57.5 -238v-29q23 57 79 89.5t121 32.5q108 0 171 -65t63 -164q0 -105 -66 -169.5t-174 -64.5zM310 37q83 0 133 51.5t50 135.5
q0 85 -48.5 135.5t-136.5 50.5q-78 0 -132 -48.5t-54 -128.5q0 -85 49.5 -140.5t138.5 -55.5z" />
    <glyph glyph-name="seven.tab" unicode="&#xe456;" 
d="M461 669h-385v46h457v-9l-288 -706h-57z" />
    <glyph glyph-name="eight.tab" unicode="&#xe457;" 
d="M301 -8q-100 0 -170 54.5t-70 152.5q0 73 43 121t114 67q-57 16 -92 56.5t-35 99.5q0 80 62.5 130t147.5 50q84 0 146.5 -50t62.5 -128q0 -60 -33.5 -100t-91.5 -58q72 -19 113.5 -66t41.5 -120q0 -99 -69 -154t-170 -55zM301 39q82 0 132 42.5t50 121.5q0 75 -51 117
t-129 42t-131.5 -43t-53.5 -118q0 -78 52 -120t131 -42zM304 407q66 0 108 36.5t42 101.5q0 58 -43.5 95.5t-109.5 37.5q-67 0 -110.5 -37t-43.5 -98q0 -63 46.5 -99.5t110.5 -36.5z" />
    <glyph glyph-name="nine.tab" unicode="&#xe458;" 
d="M282 -7q-89 0 -147 44t-73 127h55q27 -125 166 -125q99 0 151 70t52 230v38q-23 -56 -79.5 -86.5t-122.5 -30.5q-108 0 -170.5 64t-62.5 166q0 105 66 169t174 64q124 0 186.5 -79t62.5 -216v-82q0 -184 -66 -268.5t-192 -84.5zM291 305q80 0 134.5 47.5t54.5 124.5
q0 87 -49.5 144.5t-139.5 57.5q-83 0 -133 -51.5t-50 -135.5q0 -85 48 -136t135 -51z" />
    <glyph glyph-name="cent.tab" unicode="&#xe459;" 
d="M295 -7q-101 6 -164.5 77.5t-63.5 185.5v8q0 114 65 187t163 79v99h39v-99q79 -4 135.5 -49t65.5 -124h-52q-9 58 -49 90t-100 38v-447q62 4 104.5 41.5t52.5 101.5h49q-10 -79 -67 -130.5t-139 -57.5v-128h-39v128zM122 256q0 -97 48 -154.5t125 -63.5v447
q-77 -9 -125 -67t-48 -154v-8z" />
    <glyph glyph-name="dollar.tab" unicode="&#xe45a;" 
d="M280 -7q-114 6 -171.5 63t-68.5 149h54q20 -158 186 -168v315q-110 18 -161.5 61.5t-51.5 123.5q0 78 59.5 129.5t153.5 55.5v91h40v-91q89 -6 142 -52.5t64 -126.5h-51q-25 124 -155 134v-283q119 -19 172.5 -63t53.5 -137q0 -84 -62 -141t-164 -61v-127h-40v128z
M492 191q0 70 -38 104t-134 50v-309q79 4 125.5 47.5t46.5 107.5zM119 540q0 -57 35 -89.5t126 -49.5v276q-77 -4 -119 -39.5t-42 -97.5z" />
    <glyph glyph-name="Euro.tab" unicode="&#xe45b;" 
d="M27 444h61q4 130 66 204.5t174 74.5q93 0 146.5 -52.5t65.5 -150.5h-53q-23 158 -159 158q-89 0 -135.5 -60t-49.5 -174h229l-8 -38h-221v-98h203l-8 -38h-195q8 -231 186 -231q76 0 117 42.5t54 129.5h51q-12 -106 -69.5 -162.5t-152.5 -56.5q-112 0 -174.5 72.5
t-66.5 205.5h-61v38h61v98h-61v38z" />
    <glyph glyph-name="a.alt" unicode="&#xe4c0;" horiz-adv-x="606" 
d="M274 -8q-97 0 -164 71t-67 191v8q0 118 69.5 193.5t169.5 75.5q68 0 114 -34t70 -88v114h54v-523h-54v120q-22 -51 -74.5 -89.5t-117.5 -38.5zM279 37q79 0 134 59t55 162v8q0 105 -50.5 162.5t-131.5 57.5t-134.5 -60t-53.5 -162v-8q0 -103 51.5 -161t129.5 -58z" />
    <glyph glyph-name="t.alt" unicode="&#xe4d3;" horiz-adv-x="323" 
d="M112 478h-87v45h87v119h53v-119h127v-45h-127v-478h-53v478z" />
    <glyph glyph-name="f_i" unicode="&#xfb01;" horiz-adv-x="552" 
d="M105 478h-79v45h79v94q0 80 38.5 119.5t105.5 39.5q34 0 55 -8v-45q-24 8 -54 8q-92 0 -92 -109v-99h146v-45h-146v-478h-53v478zM410 523h53v-523h-53v523zM436 635q-16 0 -27 11t-11 27q0 15 11 26t27 11t26.5 -11t10.5 -26q0 -16 -10.5 -27t-26.5 -11z" />
    <glyph glyph-name="f_l" unicode="&#xfb02;" horiz-adv-x="552" 
d="M105 478h-79v45h79v94q0 80 38.5 119.5t105.5 39.5q34 0 55 -8v-45q-24 8 -54 8q-92 0 -92 -109v-99h146v-45h-146v-478h-53v478zM410 773h54v-773h-54v773z" />
    <glyph glyph-name="three.sub" horiz-adv-x="313" 
d="M153 -90q-59 0 -93 29t-36 76h41q4 -32 25.5 -51.5t61.5 -19.5q78 0 78 67q0 30 -19 47.5t-54 17.5h-27v33h25q33 0 49.5 16t16.5 43t-17.5 43t-49.5 16q-34 0 -53.5 -18t-23.5 -48h-40q3 44 34.5 72t83.5 28q50 0 79.5 -25.5t29.5 -65.5q0 -56 -59 -75q31 -7 50.5 -29
t19.5 -56q0 -48 -32.5 -74t-89.5 -26z" />
    <glyph glyph-name="two.den" horiz-adv-x="290" 
d="M15 9l130 131q33 35 47.5 58.5t14.5 49.5q0 30 -18 47t-48 17q-64 0 -75 -78h-41q3 54 34.5 83.5t82.5 29.5t80 -26.5t29 -71.5q0 -33 -16.5 -61t-55.5 -66l-90 -87h166v-35h-240v9z" />
    <glyph glyph-name="dotaccent.uc" horiz-adv-x="404" 
d="M200 787q-16 0 -27 11t-11 27q0 15 11 26t27 11t27 -11t11 -26q0 -16 -11 -27t-27 -11z" />
    <glyph glyph-name="two.oldtab" horiz-adv-x="600" 
d="M61 13l252 229q69 59 101.5 105t32.5 103q0 63 -39 98t-107 35q-69 0 -112.5 -41.5t-54.5 -121.5h-49q8 93 67 150t149 57t145.5 -48t55.5 -129q0 -45 -24 -89.5t-51 -72t-85 -80.5l-182 -163h353v-45h-452v13z" />
    <glyph glyph-name="uni044C.bgr" horiz-adv-x="480" 
d="M261 -7q-85 0 -133 46.5t-48 132.5v351h53v-200q59 11 112 11q93 0 146.5 -42t53.5 -123v-3q0 -81 -53 -127t-131 -46zM261 34q62 0 96.5 36t34.5 94v3q0 125 -146 125q-65 0 -113 -12v-108q0 -64 33 -101t95 -37z" />
    <glyph glyph-name="breve.uc" horiz-adv-x="404" 
d="M199 771q-51 0 -87.5 35t-38.5 87h44q4 -36 25.5 -57t56.5 -21t58 21t28 57h43q-4 -52 -40.5 -87t-88.5 -35z" />
    <glyph glyph-name="uni0439.bgr" horiz-adv-x="579" 
d="M286 616q-51 0 -87.5 35t-38.5 88h47q2 -37 23 -61t56 -24t57 24t26 61h46q-4 -53 -41 -88t-88 -35zM261 -8q-86 0 -135 48.5t-49 151.5v331h53v-328q0 -82 36 -119.5t107 -37.5q68 0 119.5 44.5t51.5 122.5v318h53v-523h-53v100q-19 -45 -68.5 -76.5t-114.5 -31.5z" />
    <glyph glyph-name="caron.uc" horiz-adv-x="404" 
d="M65 893h42l93 -77l94 77h41l-111 -122h-50z" />
    <glyph glyph-name="circumflex.uc" horiz-adv-x="404" 
d="M176 893h50l108 -122h-42l-92 78l-93 -78h-41z" />
    <glyph glyph-name="uni0414.bgr" horiz-adv-x="684" 
d="M117 47h447l-224 622zM46 -130h-46v177h65l240 668h74l240 -668h65v-177h-46l-4 130h-584z" />
    <glyph glyph-name="uni0416.bgr" horiz-adv-x="869" 
d="M407 715h54v-715h-54v715zM780 0l-318 362l306 353h62l-307 -348l323 -367h-66zM23 0l322 364l-309 351h63l306 -353l-318 -362h-64z" />
    <glyph glyph-name="four.oldtab" horiz-adv-x="600" 
d="M402 66h-363v17l338 535h78v-508h96v-44h-96v-163h-53v163zM402 110v467l-293 -467h293z" />
    <glyph glyph-name="one.oldtab" horiz-adv-x="600" 
d="M327 560l-219 -164v52l226 171h47v-619h-54v560z" />
    <glyph glyph-name="acute.uc" horiz-adv-x="404" 
d="M238 893h66l-88 -122h-42z" />
    <glyph glyph-name="uni041A.bgr" horiz-adv-x="599" 
d="M148 361v-361h-56v715h56v-352l347 352h64l-346 -348l363 -367h-68z" />
    <glyph glyph-name="uni0436.bgr" horiz-adv-x="678" 
d="M313 773h52v-773h-52v773zM599 0l-233 273l219 250h58l-221 -247l239 -276h-62zM18 0l239 276l-222 247h58l219 -250l-233 -273h-61z" />
    <glyph glyph-name="macron.uc" horiz-adv-x="404" 
d="M76 833h248v-42h-248v42z" />
    <glyph glyph-name="dieresis.uc" horiz-adv-x="404" 
d="M110 788q-16 0 -26.5 11t-10.5 26t10.5 25.5t26.5 10.5q15 0 25.5 -11t10.5 -25q0 -15 -10.5 -26t-25.5 -11zM290 788q-15 0 -25.5 11t-10.5 26q0 14 10.5 25t25.5 11t25.5 -11t10.5 -25q0 -15 -10.5 -26t-25.5 -11z" />
    <glyph glyph-name="six.oldtab" horiz-adv-x="600" 
d="M309 -8q-122 0 -180.5 79t-58.5 211v77q0 182 70 273t188 91q80 0 131 -41t65 -118h-53q-24 114 -146 114q-93 0 -146 -76t-55 -238v-38q23 56 75 87t116 31q106 0 166 -63.5t60 -161.5q0 -101 -64 -164t-168 -63zM309 35q79 0 127.5 50t48.5 132q0 84 -46.5 133.5
t-130.5 49.5q-74 0 -126.5 -48.5t-52.5 -124.5q0 -83 47.5 -137.5t132.5 -54.5z" />
    <glyph glyph-name="uni0432.bgr" horiz-adv-x="504" 
d="M61 530q0 122 49.5 186t140.5 64q88 0 136.5 -52t48.5 -137v-3q0 -64 -33.5 -112t-86.5 -58q63 -10 104 -59.5t41 -131.5v-5q0 -104 -57 -167t-143 -63q-200 0 -200 248v290zM114 438h133q66 0 99.5 43t33.5 107v3q0 64 -32.5 104t-97.5 40q-136 0 -136 -202v-95zM259 37
q67 0 107.5 48.5t40.5 136.5v5q0 78 -40.5 123t-119.5 45h-133v-159q0 -199 145 -199z" />
    <glyph glyph-name="grave.uc" horiz-adv-x="404" 
d="M96 893h66l64 -122h-42z" />
    <glyph glyph-name="at.uc" horiz-adv-x="902" 
d="M454 -58q-187 0 -294.5 115t-107.5 279q0 175 122.5 295t289.5 120q171 0 277 -101t106 -254q0 -122 -51 -183t-120 -61q-104 0 -110 98q-20 -43 -60 -74t-90 -31q-70 0 -112 45.5t-42 122.5q0 96 55 160.5t133 64.5q51 0 84 -25.5t43 -64.5l8 82h54l-27 -233
q-15 -106 64 -106q54 0 88.5 51t34.5 152q0 141 -89.5 227t-245.5 86q-152 0 -256.5 -105t-104.5 -265q0 -149 92.5 -250t258.5 -101t261 98h52q-37 -62 -120.5 -102t-192.5 -40zM426 186q57 0 99 51.5t42 127.5q0 62 -30.5 96.5t-82.5 34.5q-56 0 -97 -50.5t-41 -131.5
q0 -60 30 -94t80 -34z" />
    <glyph glyph-name="bar.uc" horiz-adv-x="245" 
d="M98 778h45v-862h-45v862z" />
    <glyph glyph-name="backslash.uc" horiz-adv-x="395" 
d="M37 778h50l271 -862h-50z" />
    <glyph glyph-name="uni0424.bgr" horiz-adv-x="800" 
d="M427 657q148 -2 234.5 -75.5t86.5 -217.5v-8q0 -143 -87.5 -216t-233.5 -75v-75h-54v75q-148 2 -234.5 74t-86.5 214v7q0 146 87 220.5t234 76.5v68h54v-68zM427 108q264 5 264 249v8q0 245 -264 250v-507zM373 614q-264 -5 -264 -255v-6q0 -241 264 -246v507z" />
    <glyph glyph-name="yen.oldtab" horiz-adv-x="600" 
d="M101 334h167l-205 360h59l183 -330l173 330h52l-191 -360h165v-38h-174v-94h174v-38h-174v-164h-53v164h-176v38h176v94h-176v38z" />
    <glyph glyph-name="slash.uc" horiz-adv-x="395" 
d="M304 778h50l-272 -862h-50z" />
    <glyph glyph-name="braceright.uc" horiz-adv-x="368" 
d="M42 -46q80 0 112 32t18 116l-16 103q-21 114 94 141q-115 27 -94 141l16 103q14 84 -18 116t-112 32v41q106 0 152 -43.5t29 -145.5l-17 -97q-11 -56 17 -91.5t99 -35.5v-40q-72 0 -99.5 -35t-16.5 -92l17 -97q17 -102 -29 -145.5t-152 -43.5v41z" />
    <glyph glyph-name="braceleft.uc" horiz-adv-x="368" 
d="M322 -87q-107 0 -152.5 43t-28.5 146l16 97q20 127 -115 127v40q135 0 115 127l-16 97q-17 103 28.5 146t152.5 43v-41q-82 0 -113.5 -32t-17.5 -116l17 -103q18 -114 -94 -141q112 -27 94 -141l-17 -103q-14 -84 17.5 -116t113.5 -32v-41z" />
    <glyph glyph-name="Euro.oldtab" horiz-adv-x="600" 
d="M34 431h60q4 125 66 197.5t170 72.5q91 0 143.5 -51t64.5 -146h-51q-11 77 -49 115t-108 38q-86 0 -132.5 -58t-49.5 -168h227l-8 -38h-219v-94h201l-7 -38h-194q8 -224 183 -224q142 0 168 168h50q-12 -102 -69 -157.5t-149 -55.5q-109 0 -171 70.5t-66 198.5h-60v38h60
v94h-60v38z" />
    <glyph glyph-name="uni0442.bgr" horiz-adv-x="904" 
d="M82 523h53v-99q19 46 64.5 76.5t106.5 30.5q128 0 160 -117q24 55 74.5 86t111.5 31q81 0 128 -49t47 -155v-327h-53v330q0 82 -33 118.5t-98 36.5t-113.5 -44.5t-48.5 -121.5v-319h-53v330q0 82 -33 118.5t-98 36.5t-113.5 -44.5t-48.5 -121.5v-319h-53v523z" />
    <glyph glyph-name="bracketright.uc" horiz-adv-x="344" 
d="M42 -41h152v776h-152v43h205v-862h-205v43z" />
    <glyph glyph-name="bracketleft.uc" horiz-adv-x="344" 
d="M93 778h206v-43h-153v-776h153v-43h-206v862z" />
    <glyph glyph-name="parenright.uc" horiz-adv-x="301" 
d="M26 -98q158 203 158 441q0 237 -158 440h53q72 -85 116 -198t44 -242q0 -130 -44.5 -243.5t-115.5 -197.5h-53z" />
    <glyph glyph-name="parenleft.uc" horiz-adv-x="301" 
d="M218 -98q-72 84 -116.5 197.5t-44.5 242.5t45 243t116 198h53q-158 -202 -158 -441q0 -238 158 -440h-53z" />
    <glyph glyph-name="guillemotright.uc" horiz-adv-x="452" 
d="M179 301l-132 183h54l135 -183l-135 -183h-54zM337 301l-132 183h54l135 -183l-135 -183h-54z" />
    <glyph glyph-name="guillemotleft.uc" horiz-adv-x="452" 
d="M54 301l135 183h54l-132 -183l132 -183h-54zM212 301l135 183h54l-132 -183l132 -183h-54z" />
    <glyph glyph-name="guilsinglright.uc" horiz-adv-x="294" 
d="M179 301l-132 183h54l135 -183l-135 -183h-54z" />
    <glyph glyph-name="guilsinglleft.uc" horiz-adv-x="294" 
d="M54 301l135 183h54l-132 -183l132 -183h-54z" />
    <glyph glyph-name="emdash.uc" horiz-adv-x="873" 
d="M46 355h777v-46h-777v46z" />
    <glyph glyph-name="endash.uc" horiz-adv-x="507" 
d="M46 355h411v-46h-411v46z" />
    <glyph glyph-name="hyphen.uc" horiz-adv-x="362" 
d="M62 358h235v-50h-235v50z" />
    <glyph glyph-name="exclamdown.uc" horiz-adv-x="276" 
d="M136 719q18 0 30.5 -12t12.5 -29q0 -18 -12.5 -30.5t-30.5 -12.5q-17 0 -29.5 12.5t-12.5 30.5q0 17 12.5 29t29.5 12zM165 0h-59l8 536h42z" />
    <glyph glyph-name="questiondown.uc" horiz-adv-x="481" 
d="M288 479q0 -38 -15.5 -71.5t-32 -52.5t-52.5 -55q-31 -31 -44 -45.5t-27 -43t-14 -57.5q0 -53 33 -85t97 -32q66 0 107.5 40t47.5 110h51q-6 -88 -62.5 -141.5t-144.5 -53.5q-89 0 -136.5 46t-47.5 114q0 12 1.5 23.5t3.5 20.5t7.5 19.5t8 17t11 17.5t11.5 15.5t14 16
t14 15t16 16t16 15.5q34 34 48 49.5t27.5 44.5t13.5 61v53h48v-57zM265 719q18 0 30.5 -12t12.5 -29q0 -18 -12.5 -30.5t-30.5 -12.5q-17 0 -29.5 12.5t-12.5 30.5q0 17 12.5 29t29.5 12z" />
    <glyph glyph-name="caron.alt" horiz-adv-x="338" 
d="M156 773h60l-33 -162h-39z" />
    <glyph glyph-name="registered.alt" horiz-adv-x="848" 
d="M296 566h123q145 0 145 -114v-2q0 -94 -98 -109l122 -183h-57l-119 176h-64v-176h-52v408zM418 373q95 0 95 75v3q0 40 -24 57t-71 17h-70v-152h70zM421 23q137 0 234 96t97 240q0 143 -95 238t-234 95t-235 -96t-96 -239q0 -144 97 -239t232 -95zM421 -9
q-154 0 -260 105.5t-106 260.5q0 153 107 260t261 107q155 0 260.5 -106t105.5 -259q0 -156 -106.5 -262t-261.5 -106z" />
    <glyph glyph-name="space_uni0326.alt" horiz-adv-x="404" 
d="M163 622l75 148l35 -17l-58 -146z" />
    <glyph glyph-name="tcommaaccent.alt" horiz-adv-x="323" 
d="M64 -188l58 147l51 -15l-75 -148zM112 478h-87v45h87v119h53v-119h127v-45h-127v-478h-53v478z" />
    <glyph glyph-name="tcaron.alt" horiz-adv-x="323" 
d="M112 478h-87v45h87v119h53v-119h127v-45h-127v-478h-53v478zM255 773h60l-33 -162h-39z" />
    <glyph glyph-name="germandbls.alt" horiz-adv-x="599" 
d="M391 -7q-75 0 -121 41t-48 103h51q4 -42 34 -70.5t84 -28.5q52 0 83 28t31 81q0 22 -7.5 39.5t-27 33.5t-34.5 25t-47 26t-49.5 28t-37.5 27t-28.5 34.5t-8.5 41.5q0 26 17 50.5t41 44l48 39t41 44t17 51.5q0 48 -34 74.5t-94 26.5q-78 0 -122 -48.5t-44 -135.5v-548h-53
v546q0 104 60.5 167t158.5 63q80 0 129.5 -39t49.5 -105q0 -40 -26 -75t-56.5 -55t-56.5 -46.5t-26 -52.5q0 -6 1 -11t4.5 -10.5t6.5 -9.5t10 -9t12.5 -9t15.5 -10t17.5 -10t21 -11.5t23.5 -13.5q66 -37 99.5 -71.5t33.5 -89.5q0 -72 -46.5 -113.5t-122.5 -41.5z" />
    <glyph glyph-name="atilde.alt" horiz-adv-x="606" 
d="M274 -8q-97 0 -164 71t-67 191v8q0 118 69.5 193.5t169.5 75.5q68 0 114 -34t70 -88v114h54v-523h-54v120q-22 -51 -74.5 -89.5t-117.5 -38.5zM279 37q79 0 134 59t55 162v8q0 105 -50.5 162.5t-131.5 57.5t-134.5 -60t-53.5 -162v-8q0 -103 51.5 -161t129.5 -58z
M354 616q-25 0 -66.5 26.5t-57.5 26.5t-28.5 -14.5t-16.5 -38.5h-41q6 47 29.5 73t57.5 26q25 0 66 -26.5t57 -26.5q17 0 29.5 14t16.5 39h40q-6 -47 -29.5 -73t-56.5 -26z" />
    <glyph glyph-name="aringacute.alt" horiz-adv-x="606" 
d="M274 -8q-97 0 -164 71t-67 191v8q0 118 69.5 193.5t169.5 75.5q68 0 114 -34t70 -88v114h54v-523h-54v120q-22 -51 -74.5 -89.5t-117.5 -38.5zM279 37q79 0 134 59t55 162v8q0 105 -50.5 162.5t-131.5 57.5t-134.5 -60t-53.5 -162v-8q0 -103 51.5 -161t129.5 -58z
M290 623q26 0 43.5 18t17.5 45q0 28 -17.5 46t-43.5 18t-43.5 -18t-17.5 -46q0 -27 17.5 -45t43.5 -18zM290 591q-39 0 -68.5 28t-29.5 67t29.5 67.5t68.5 28.5q40 0 69 -28.5t29 -67.5t-29 -67t-69 -28zM332 951h66l-88 -122h-42z" />
    <glyph glyph-name="uni20B4.old" horiz-adv-x="563" 
d="M274 -8q-100 0 -158 43t-58 125q0 69 40 112h-68v38h114q34 23 136 69q40 18 54 25h-304v38h363q42 37 42 107q0 54 -37 81t-104 27q-144 0 -167 -125h-49q11 82 66 125.5t150 43.5q89 0 141.5 -39t52.5 -113q0 -64 -37 -107h82v-38h-126q-39 -25 -117 -60
q-43 -19 -70 -34h313v-38h-373q-48 -41 -48 -111q0 -61 44 -93t118 -32q165 0 189 157h52q-10 -90 -70.5 -145.5t-170.5 -55.5z" />
    <glyph glyph-name="aring.alt" horiz-adv-x="606" 
d="M274 -8q-97 0 -164 71t-67 191v8q0 118 69.5 193.5t169.5 75.5q68 0 114 -34t70 -88v114h54v-523h-54v120q-22 -51 -74.5 -89.5t-117.5 -38.5zM279 37q79 0 134 59t55 162v8q0 105 -50.5 162.5t-131.5 57.5t-134.5 -60t-53.5 -162v-8q0 -103 51.5 -161t129.5 -58z
M290 633q26 0 43.5 18t17.5 45q0 28 -17.5 46t-43.5 18t-43.5 -18t-17.5 -46q0 -27 17.5 -45t43.5 -18zM290 601q-39 0 -68.5 28t-29.5 67t29.5 67.5t68.5 28.5q40 0 69 -28.5t29 -67.5t-29 -67t-69 -28z" />
    <glyph glyph-name="aogonek.alt" horiz-adv-x="606" 
d="M482 -182q-44 0 -68.5 20.5t-24.5 54.5q0 32 22 60t55 47v120q-22 -51 -74.5 -89.5t-117.5 -38.5q-97 0 -164 71t-67 191v8q0 118 69.5 193.5t169.5 75.5q68 0 114 -34t70 -88v114h54v-520q-80 -51 -80 -101q0 -44 49 -44q29 0 50 10v-39q-24 -11 -57 -11zM279 37
q79 0 134 59t55 162v8q0 105 -50.5 162.5t-131.5 57.5t-134.5 -60t-53.5 -162v-8q0 -103 51.5 -161t129.5 -58z" />
    <glyph glyph-name="amacron.alt" horiz-adv-x="606" 
d="M274 -8q-97 0 -164 71t-67 191v8q0 118 69.5 193.5t169.5 75.5q68 0 114 -34t70 -88v114h54v-523h-54v120q-22 -51 -74.5 -89.5t-117.5 -38.5zM279 37q79 0 134 59t55 162v8q0 105 -50.5 162.5t-131.5 57.5t-134.5 -60t-53.5 -162v-8q0 -103 51.5 -161t129.5 -58z
M172 689h242v-42h-242v42z" />
    <glyph glyph-name="agrave.alt" horiz-adv-x="606" 
d="M274 -8q-97 0 -164 71t-67 191v8q0 118 69.5 193.5t169.5 75.5q68 0 114 -34t70 -88v114h54v-523h-54v120q-22 -51 -74.5 -89.5t-117.5 -38.5zM279 37q79 0 134 59t55 162v8q0 105 -50.5 162.5t-131.5 57.5t-134.5 -60t-53.5 -162v-8q0 -103 51.5 -161t129.5 -58z
M186 752h65l68 -147h-41z" />
    <glyph glyph-name="adieresis.alt" horiz-adv-x="606" 
d="M274 -8q-97 0 -164 71t-67 191v8q0 118 69.5 193.5t169.5 75.5q68 0 114 -34t70 -88v114h54v-523h-54v120q-22 -51 -74.5 -89.5t-117.5 -38.5zM279 37q79 0 134 59t55 162v8q0 105 -50.5 162.5t-131.5 57.5t-134.5 -60t-53.5 -162v-8q0 -103 51.5 -161t129.5 -58z
M211 636q-16 0 -26.5 11t-10.5 26t10.5 25.5t26.5 10.5q15 0 25.5 -10.5t10.5 -25.5t-10.5 -26t-25.5 -11zM377 636q-15 0 -25.5 11t-10.5 26t10.5 25.5t25.5 10.5q16 0 26.5 -10.5t10.5 -25.5t-10.5 -26t-26.5 -11z" />
    <glyph glyph-name="acircumflex.alt" horiz-adv-x="606" 
d="M274 -8q-97 0 -164 71t-67 191v8q0 118 69.5 193.5t169.5 75.5q68 0 114 -34t70 -88v114h54v-523h-54v120q-22 -51 -74.5 -89.5t-117.5 -38.5zM279 37q79 0 134 59t55 162v8q0 105 -50.5 162.5t-131.5 57.5t-134.5 -60t-53.5 -162v-8q0 -103 51.5 -161t129.5 -58z
M269 740h50l108 -135h-42l-92 90l-93 -90h-41z" />
    <glyph glyph-name="abreve.alt" horiz-adv-x="606" 
d="M274 -8q-97 0 -164 71t-67 191v8q0 118 69.5 193.5t169.5 75.5q68 0 114 -34t70 -88v114h54v-523h-54v120q-22 -51 -74.5 -89.5t-117.5 -38.5zM279 37q79 0 134 59t55 162v8q0 105 -50.5 162.5t-131.5 57.5t-134.5 -60t-53.5 -162v-8q0 -103 51.5 -161t129.5 -58z
M292 616q-51 0 -85 33.5t-37 87.5h44q4 -36 24 -56.5t54 -20.5q35 0 56.5 20.5t26.5 56.5h42q-3 -54 -38.5 -87.5t-86.5 -33.5z" />
    <glyph glyph-name="aacute.alt" horiz-adv-x="606" 
d="M274 -8q-97 0 -164 71t-67 191v8q0 118 69.5 193.5t169.5 75.5q68 0 114 -34t70 -88v114h54v-523h-54v120q-22 -51 -74.5 -89.5t-117.5 -38.5zM279 37q79 0 134 59t55 162v8q0 105 -50.5 162.5t-131.5 57.5t-134.5 -60t-53.5 -162v-8q0 -103 51.5 -161t129.5 -58z
M332 752h65l-92 -147h-41z" />
    <glyph glyph-name="ring.uc" horiz-adv-x="404" 
d="M200 786q26 0 43.5 18.5t17.5 45.5t-17.5 45.5t-43.5 18.5t-43.5 -18.5t-17.5 -45.5t17.5 -45.5t43.5 -18.5zM200 754q-39 0 -68.5 28.5t-29.5 67.5t29.5 67t68.5 28q40 0 69 -28t29 -67t-29 -67.5t-69 -28.5z" />
    <glyph glyph-name="uni043F.locl" horiz-adv-x="563" 
d="M427 478h-291v-478h-53v523h397v-523h-53v478z" />
    <glyph glyph-name="minus.sup" horiz-adv-x="327" 
d="M38 618h248v-36h-248v36z" />
    <glyph glyph-name="uni041B.bgr" horiz-adv-x="654" 
d="M325 669l-239 -669h-53l257 715h74l257 -715h-56z" />
    <glyph glyph-name="plus.sup" horiz-adv-x="327" 
d="M142 582h-104v36h104v109h38v-109h106v-36h-106v-109h-38v109z" />
    <glyph glyph-name="nine.sup" horiz-adv-x="321" 
d="M149 426q-46 0 -76.5 23t-36.5 65h42q12 -53 72 -53q89 0 89 128v15q-27 -52 -92 -52q-53 0 -84 30t-31 80q0 52 33.5 83.5t89.5 31.5q65 0 97 -40.5t32 -111.5v-29q0 -170 -135 -170zM154 585q35 0 58 20.5t23 54.5q0 36 -21.5 59.5t-58.5 23.5q-35 0 -57 -22t-22 -58
q0 -35 21 -56.5t57 -21.5z" />
    <glyph glyph-name="eight.sup" horiz-adv-x="318" 
d="M157 426q-55 0 -90.5 25.5t-35.5 73.5q0 34 20 56.5t54 31.5q-27 9 -43.5 28.5t-16.5 46.5q0 41 32.5 65t79.5 24t79.5 -24.5t32.5 -63.5q0 -56 -59 -75q73 -22 73 -88q0 -48 -35 -74t-91 -26zM157 460q37 0 59 17.5t22 51.5q0 31 -22.5 49.5t-57.5 18.5t-58.5 -18.5
t-23.5 -50.5q0 -34 22.5 -51t58.5 -17zM158 628q30 0 49 15.5t19 43.5q0 26 -19 41t-50 15q-30 0 -49.5 -15.5t-19.5 -41.5q0 -28 20.5 -43t49.5 -15z" />
    <glyph glyph-name="seven.sup" horiz-adv-x="274" 
d="M197 736h-180v37h237v-6l-135 -337h-46z" />
    <glyph glyph-name="six.sup" horiz-adv-x="322" 
d="M163 426q-66 0 -97 41t-31 111v18q0 89 37.5 135t100.5 46q43 0 70.5 -21.5t33.5 -63.5h-41q-9 50 -65 50q-43 0 -67 -34t-25 -102v-8q12 24 37 38t56 14q52 0 83.5 -30.5t31.5 -79.5q0 -52 -33.5 -83t-90.5 -31zM163 459q35 0 57 22t22 58t-21 57.5t-57 21.5
q-35 0 -58.5 -21t-23.5 -55q0 -36 21.5 -59.5t59.5 -23.5z" />
    <glyph glyph-name="five.sup" horiz-adv-x="300" 
d="M142 426q-55 0 -85 26.5t-34 70.5h43q9 -62 76 -62q35 0 55 22t20 59q0 36 -20 58t-53 22q-53 0 -80 -34h-23l2 185h200v-35h-164l-1 -112q30 30 79 30q47 0 76.5 -31t29.5 -83q0 -53 -33 -84.5t-88 -31.5z" />
    <glyph glyph-name="four.sup" horiz-adv-x="314" 
d="M196 504h-178v15l164 254h57v-235h47v-34h-47v-74h-43v74zM197 538v201l-128 -201h128z" />
    <glyph glyph-name="three.sup" horiz-adv-x="313" 
d="M153 426q-59 0 -93 29t-36 76h41q4 -32 25.5 -51.5t61.5 -19.5q78 0 78 67q0 30 -19 47.5t-54 17.5h-27v33h25q33 0 49.5 16t16.5 43t-17.5 43t-49.5 16q-34 0 -53.5 -18t-23.5 -48h-40q3 44 34.5 72t83.5 28q50 0 79.5 -25.5t29.5 -65.5q0 -56 -59 -75q31 -7 50.5 -29
t19.5 -56q0 -48 -32.5 -74t-89.5 -26z" />
    <glyph glyph-name="two.sup" horiz-adv-x="290" 
d="M15 439l130 131q33 35 47.5 58.5t14.5 49.5q0 30 -18 47t-48 17q-64 0 -75 -78h-41q3 54 34.5 83.5t82.5 29.5t80 -26.5t29 -71.5q0 -33 -16.5 -61t-55.5 -66l-90 -87h166v-35h-240v9z" />
    <glyph glyph-name="one.sup" horiz-adv-x="224" 
d="M109 726l-88 -61v41l96 67h37v-343h-45v296z" />
    <glyph glyph-name="zero.sup" horiz-adv-x="354" 
d="M176 462q95 0 95 129v23q0 61 -25.5 94t-71.5 33q-45 0 -70 -33t-25 -95v-24q0 -127 97 -127zM175 426q-66 0 -103.5 43t-37.5 120v23q0 77 38 121t102 44q65 0 103.5 -43t38.5 -120v-24q0 -77 -37.5 -120.5t-103.5 -43.5z" />
    <glyph glyph-name="minus.sub" horiz-adv-x="327" 
d="M38 100h248v-36h-248v36z" />
    <glyph glyph-name="plus.sub" horiz-adv-x="327" 
d="M142 64h-104v36h104v109h38v-109h106v-36h-106v-109h-38v109z" />
    <glyph glyph-name="nine.sub" horiz-adv-x="321" 
d="M149 -90q-46 0 -76.5 23t-36.5 65h42q12 -53 72 -53q89 0 89 128v15q-27 -52 -92 -52q-53 0 -84 30t-31 80q0 52 33.5 83.5t89.5 31.5q65 0 97 -40.5t32 -111.5v-29q0 -170 -135 -170zM154 69q35 0 58 20.5t23 54.5q0 36 -21.5 59.5t-58.5 23.5q-35 0 -57 -22t-22 -58
q0 -35 21 -56.5t57 -21.5z" />
    <glyph glyph-name="eight.sub" horiz-adv-x="318" 
d="M157 -90q-55 0 -90.5 25.5t-35.5 73.5q0 34 20 56.5t54 31.5q-27 9 -43.5 28.5t-16.5 46.5q0 41 32.5 65t79.5 24t79.5 -24.5t32.5 -63.5q0 -56 -59 -75q73 -22 73 -88q0 -48 -35 -74t-91 -26zM157 -56q37 0 59 17.5t22 51.5q0 31 -22.5 49.5t-57.5 18.5t-58.5 -18.5
t-23.5 -50.5q0 -34 22.5 -51t58.5 -17zM158 112q30 0 49 15.5t19 43.5q0 26 -19 41t-50 15q-30 0 -49.5 -15.5t-19.5 -41.5q0 -28 20.5 -43t49.5 -15z" />
    <glyph glyph-name="seven.sub" horiz-adv-x="274" 
d="M197 220h-180v37h237v-6l-135 -337h-46z" />
    <glyph glyph-name="six.sub" horiz-adv-x="322" 
d="M163 -90q-66 0 -97 41t-31 111v18q0 89 37.5 135t100.5 46q43 0 70.5 -21.5t33.5 -63.5h-41q-9 50 -65 50q-43 0 -67 -34t-25 -102v-8q12 24 37 38t56 14q52 0 83.5 -30.5t31.5 -79.5q0 -52 -33.5 -83t-90.5 -31zM163 -57q35 0 57 22t22 58t-21 57.5t-57 21.5
q-35 0 -58.5 -21t-23.5 -55q0 -36 21.5 -59.5t59.5 -23.5z" />
    <glyph glyph-name="five.sub" horiz-adv-x="300" 
d="M142 -90q-55 0 -85 26.5t-34 70.5h43q9 -62 76 -62q35 0 55 22t20 59q0 36 -20 58t-53 22q-53 0 -80 -34h-23l2 185h200v-35h-164l-1 -112q30 30 79 30q47 0 76.5 -31t29.5 -83q0 -53 -33 -84.5t-88 -31.5z" />
    <glyph glyph-name="four.sub" horiz-adv-x="314" 
d="M196 -12h-178v15l164 254h57v-235h47v-34h-47v-74h-43v74zM197 22v201l-128 -201h128z" />
    <glyph glyph-name="uni043F.bgr" horiz-adv-x="583" 
d="M82 523h53v-102q19 46 68.5 78t116.5 32q87 0 136.5 -51t49.5 -158v-322h-53v325q0 160 -145 160q-70 0 -121.5 -45t-51.5 -123v-317h-53v523z" />
    <glyph glyph-name="two.sub" horiz-adv-x="290" 
d="M15 -77l130 131q33 35 47.5 58.5t14.5 49.5q0 30 -18 47t-48 17q-64 0 -75 -78h-41q3 54 34.5 83.5t82.5 29.5t80 -26.5t29 -71.5q0 -33 -16.5 -61t-55.5 -66l-90 -87h166v-35h-240v9z" />
    <glyph glyph-name="one.sub" horiz-adv-x="224" 
d="M109 210l-88 -61v41l96 67h37v-343h-45v296z" />
    <glyph glyph-name="zero.sub" horiz-adv-x="354" 
d="M176 -54q95 0 95 129v23q0 61 -25.5 94t-71.5 33q-45 0 -70 -33t-25 -95v-24q0 -127 97 -127zM175 -90q-66 0 -103.5 43t-37.5 120v23q0 77 38 121t102 44q65 0 103.5 -43t38.5 -120v-24q0 -77 -37.5 -120.5t-103.5 -43.5z" />
    <glyph glyph-name="nine.den" horiz-adv-x="321" 
d="M149 -4q-46 0 -76.5 23t-36.5 65h42q12 -53 72 -53q89 0 89 128v15q-27 -52 -92 -52q-53 0 -84 30t-31 80q0 52 33.5 83.5t89.5 31.5q65 0 97 -40.5t32 -111.5v-29q0 -170 -135 -170zM154 155q35 0 58 20.5t23 54.5q0 36 -21.5 59.5t-58.5 23.5q-35 0 -57 -22t-22 -58
q0 -35 21 -56.5t57 -21.5z" />
    <glyph glyph-name="eight.den" horiz-adv-x="318" 
d="M157 -4q-55 0 -90.5 25.5t-35.5 73.5q0 34 20 56.5t54 31.5q-27 9 -43.5 28.5t-16.5 46.5q0 41 32.5 65t79.5 24t79.5 -24.5t32.5 -63.5q0 -56 -59 -75q73 -22 73 -88q0 -48 -35 -74t-91 -26zM157 30q37 0 59 17.5t22 51.5q0 31 -22.5 49.5t-57.5 18.5t-58.5 -18.5
t-23.5 -50.5q0 -34 22.5 -51t58.5 -17zM158 198q30 0 49 15.5t19 43.5q0 26 -19 41t-50 15q-30 0 -49.5 -15.5t-19.5 -41.5q0 -28 20.5 -43t49.5 -15z" />
    <glyph glyph-name="seven.den" horiz-adv-x="274" 
d="M197 306h-180v37h237v-6l-135 -337h-46z" />
    <glyph glyph-name="six.den" horiz-adv-x="322" 
d="M163 -4q-66 0 -97 41t-31 111v18q0 89 37.5 135t100.5 46q43 0 70.5 -21.5t33.5 -63.5h-41q-9 50 -65 50q-43 0 -67 -34t-25 -102v-8q12 24 37 38t56 14q52 0 83.5 -30.5t31.5 -79.5q0 -52 -33.5 -83t-90.5 -31zM163 29q35 0 57 22t22 58t-21 57.5t-57 21.5
q-35 0 -58.5 -21t-23.5 -55q0 -36 21.5 -59.5t59.5 -23.5z" />
    <glyph glyph-name="five.den" horiz-adv-x="300" 
d="M142 -4q-55 0 -85 26.5t-34 70.5h43q9 -62 76 -62q35 0 55 22t20 59q0 36 -20 58t-53 22q-53 0 -80 -34h-23l2 185h200v-35h-164l-1 -112q30 30 79 30q47 0 76.5 -31t29.5 -83q0 -53 -33 -84.5t-88 -31.5z" />
    <glyph glyph-name="four.den" horiz-adv-x="314" 
d="M196 74h-178v15l164 254h57v-235h47v-34h-47v-74h-43v74zM197 108v201l-128 -201h128z" />
    <glyph glyph-name="three.den" horiz-adv-x="313" 
d="M153 -4q-59 0 -93 29t-36 76h41q4 -32 25.5 -51.5t61.5 -19.5q78 0 78 67q0 30 -19 47.5t-54 17.5h-27v33h25q33 0 49.5 16t16.5 43t-17.5 43t-49.5 16q-34 0 -53.5 -18t-23.5 -48h-40q3 44 34.5 72t83.5 28q50 0 79.5 -25.5t29.5 -65.5q0 -56 -59 -75q31 -7 50.5 -29
t19.5 -56q0 -48 -32.5 -74t-89.5 -26z" />
    <glyph glyph-name="uni0442.locl" horiz-adv-x="465" 
d="M440 478h-181v-478h-53v478h-181v45h415v-45z" />
    <glyph glyph-name="uni20BD.old" horiz-adv-x="590" 
d="M322 346q180 0 180 157v4q0 153 -181 153h-135v-314h136zM186 170v-170h-55v170h-99v38h99v94h-99v38h99v365h186q111 0 176 -48t65 -150v-4q0 -103 -65 -152.5t-174 -49.5h-133v-93h245v-38h-245z" />
    <glyph glyph-name="one.den" horiz-adv-x="224" 
d="M109 296l-88 -61v41l96 67h37v-343h-45v296z" />
    <glyph glyph-name="zero.den" horiz-adv-x="354" 
d="M176 32q95 0 95 129v23q0 61 -25.5 94t-71.5 33q-45 0 -70 -33t-25 -95v-24q0 -127 97 -127zM175 -4q-66 0 -103.5 43t-37.5 120v23q0 77 38 121t102 44q65 0 103.5 -43t38.5 -120v-24q0 -77 -37.5 -120.5t-103.5 -43.5z" />
    <glyph glyph-name="nine.num" horiz-adv-x="321" 
d="M149 368q-46 0 -76.5 23t-36.5 65h42q12 -53 72 -53q89 0 89 128v15q-27 -52 -92 -52q-53 0 -84 30t-31 80q0 52 33.5 83.5t89.5 31.5q65 0 97 -40.5t32 -111.5v-29q0 -170 -135 -170zM154 527q35 0 58 20.5t23 54.5q0 36 -21.5 59.5t-58.5 23.5q-35 0 -57 -22t-22 -58
q0 -35 21 -56.5t57 -21.5z" />
    <glyph glyph-name="eight.num" horiz-adv-x="318" 
d="M157 368q-55 0 -90.5 25.5t-35.5 73.5q0 34 20 56.5t54 31.5q-27 9 -43.5 28.5t-16.5 46.5q0 41 32.5 65t79.5 24t79.5 -24.5t32.5 -63.5q0 -56 -59 -75q73 -22 73 -88q0 -48 -35 -74t-91 -26zM157 402q37 0 59 17.5t22 51.5q0 31 -22.5 49.5t-57.5 18.5t-58.5 -18.5
t-23.5 -50.5q0 -34 22.5 -51t58.5 -17zM158 570q30 0 49 15.5t19 43.5q0 26 -19 41t-50 15q-30 0 -49.5 -15.5t-19.5 -41.5q0 -28 20.5 -43t49.5 -15z" />
    <glyph glyph-name="seven.num" horiz-adv-x="273" 
d="M197 678h-180v37h237v-6l-135 -337h-46z" />
    <glyph glyph-name="six.num" horiz-adv-x="321" 
d="M163 368q-66 0 -97 41t-31 111v18q0 89 37.5 135t100.5 46q43 0 70.5 -21.5t33.5 -63.5h-41q-9 50 -65 50q-43 0 -67 -34t-25 -102v-8q12 24 37 38t56 14q52 0 83.5 -30.5t31.5 -79.5q0 -52 -33.5 -83t-90.5 -31zM163 401q35 0 57 22t22 58t-21 57.5t-57 21.5
q-35 0 -58.5 -21t-23.5 -55q0 -36 21.5 -59.5t59.5 -23.5z" />
    <glyph glyph-name="five.num" horiz-adv-x="299" 
d="M142 368q-55 0 -85 26.5t-34 70.5h43q9 -62 76 -62q35 0 55 22t20 59q0 36 -20 58t-53 22q-53 0 -80 -34h-23l2 185h200v-35h-164l-1 -112q30 30 79 30q47 0 76.5 -31t29.5 -83q0 -53 -33 -84.5t-88 -31.5z" />
    <glyph glyph-name="four.num" horiz-adv-x="314" 
d="M196 446h-178v15l164 254h57v-235h47v-34h-47v-74h-43v74zM197 480v201l-128 -201h128z" />
    <glyph glyph-name="three.num" horiz-adv-x="312" 
d="M153 368q-59 0 -93 29t-36 76h41q4 -32 25.5 -51.5t61.5 -19.5q78 0 78 67q0 30 -19 47.5t-54 17.5h-27v33h25q33 0 49.5 16t16.5 43t-17.5 43t-49.5 16q-34 0 -53.5 -18t-23.5 -48h-40q3 44 34.5 72t83.5 28q50 0 79.5 -25.5t29.5 -65.5q0 -56 -59 -75q31 -7 50.5 -29
t19.5 -56q0 -48 -32.5 -74t-89.5 -26z" />
    <glyph glyph-name="two.num" horiz-adv-x="289" 
d="M15 381l130 131q33 35 47.5 58.5t14.5 49.5q0 30 -18 47t-48 17q-64 0 -75 -78h-41q3 54 34.5 83.5t82.5 29.5t80 -26.5t29 -71.5q0 -33 -16.5 -61t-55.5 -66l-90 -87h166v-35h-240v9z" />
    <glyph glyph-name="one.num" horiz-adv-x="223" 
d="M109 668l-88 -61v41l96 67h37v-343h-45v296z" />
    <glyph glyph-name="zero.num" horiz-adv-x="354" 
d="M176 404q95 0 95 129v23q0 61 -25.5 94t-71.5 33q-45 0 -70 -33t-25 -95v-24q0 -127 97 -127zM175 368q-66 0 -103.5 43t-37.5 120v23q0 77 38 121t102 44q65 0 103.5 -43t38.5 -120v-24q0 -77 -37.5 -120.5t-103.5 -43.5z" />
    <glyph glyph-name="uni045D.bgr" horiz-adv-x="579" 
d="M261 -8q-86 0 -135 48.5t-49 151.5v331h53v-328q0 -82 36 -119.5t107 -37.5q68 0 119.5 44.5t51.5 122.5v318h53v-523h-53v100q-19 -45 -68.5 -76.5t-114.5 -31.5zM182 752h65l68 -147h-41z" />
    <glyph glyph-name="braceright.tab" horiz-adv-x="304" 
d="M39 -106q69 0 97.5 34.5t11.5 121.5l-24 120q-20 105 90 144q-110 38 -90 144l24 120q17 87 -11 121.5t-98 34.5v42q96 0 138 -46.5t21 -152.5l-23 -114q-24 -112 98 -129v-40q-122 -17 -98 -129l23 -114q21 -106 -21 -152.5t-138 -46.5v42z" />
    <glyph glyph-name="braceleft.tab" horiz-adv-x="304" 
d="M261 -148q-96 0 -138 46.5t-21 152.5l23 114q24 112 -98 129v40q122 17 98 129l-23 114q-21 106 21 152.5t138 46.5v-42q-70 0 -98 -34.5t-11 -121.5l24 -120q20 -106 -90 -144q110 -39 90 -144l-24 -120q-17 -87 11.5 -121.5t97.5 -34.5v-42z" />
    <glyph glyph-name="bracketright.tab" horiz-adv-x="304" 
d="M39 -105h132v838h-132v43h185v-924h-185v43z" />
    <glyph glyph-name="bracketleft.tab" horiz-adv-x="304" 
d="M76 776h185v-43h-132v-838h132v-43h-185v924z" />
    <glyph glyph-name="parenright.tab" horiz-adv-x="304" 
d="M35 -148q147 207 147 460q0 257 -147 461h53q149 -202 149 -461q0 -261 -149 -460h-53z" />
    <glyph glyph-name="parenleft.tab" horiz-adv-x="304" 
d="M212 -148q-148 198 -148 460q0 259 148 461h54q-147 -204 -147 -461q0 -253 147 -460h-54z" />
    <glyph glyph-name="semicolon.tab" horiz-adv-x="304" 
d="M54 -99l77 183l53 -24l-94 -177zM154 320q-17 0 -29.5 12t-12.5 30t12.5 30t29.5 12q18 0 30.5 -12t12.5 -30t-12.5 -30t-30.5 -12z" />
    <glyph glyph-name="uni20B8.tab" horiz-adv-x="600" 
d="M56 674v41h488v-41h-488zM272 539h-216v46h488v-46h-216v-539h-56v539z" />
    <glyph glyph-name="colon.tab" horiz-adv-x="304" 
d="M149 -5q-17 0 -29.5 12.5t-12.5 29.5q0 18 12.5 30.5t29.5 12.5q18 0 30.5 -12.5t12.5 -30.5q0 -17 -12.5 -29.5t-30.5 -12.5zM149 320q-17 0 -29.5 12t-12.5 30t12.5 30t29.5 12q18 0 30.5 -12t12.5 -30t-12.5 -30t-30.5 -12z" />
    <glyph glyph-name="comma.tab" horiz-adv-x="304" 
d="M69 -99l77 183l52 -24l-93 -177z" />
    <glyph glyph-name="period.tab" horiz-adv-x="304" 
d="M150 -5q-17 0 -29.5 12.5t-12.5 29.5q0 18 12.5 30.5t29.5 12.5q18 0 30 -12.5t12 -30.5q0 -17 -12 -29.5t-30 -12.5z" />
    <glyph glyph-name="greaterequal.tab" 
d="M114 169l305 159l-305 160v52l384 -205v-13l-384 -205v52zM114 45h384v-45h-384v45z" />
    <glyph glyph-name="eight.oldtab" horiz-adv-x="600" 
d="M301 -8q-96 0 -165 54.5t-69 150.5q0 72 42.5 119t111.5 66q-57 18 -90.5 58.5t-33.5 100.5q0 82 60.5 132t143.5 50q82 0 142.5 -50.5t60.5 -129.5q0 -121 -123 -160q71 -20 112 -66t41 -118q0 -97 -68 -152t-165 -55zM304 402q64 0 104.5 37t40.5 104q0 60 -42 98
t-106 38q-65 0 -107.5 -38.5t-42.5 -99.5q0 -65 45.5 -102t107.5 -37zM301 38q79 0 128.5 42t49.5 120q0 73 -50.5 115.5t-125.5 42.5q-76 0 -128.5 -43t-52.5 -117q0 -77 51.5 -118.5t127.5 -41.5z" />
    <glyph glyph-name="lessequal.tab" 
d="M103 322v13l384 205v-52l-304 -160l304 -159v-52zM103 45h384v-45h-384v45z" />
    <glyph glyph-name="greater.tab" 
d="M114 156l306 166l-306 166v52l384 -211v-14l-384 -211v52z" />
    <glyph glyph-name="less.tab" 
d="M103 315v14l384 211v-52l-306 -166l306 -166v-52z" />
    <glyph glyph-name="approxequal.tab" 
d="M93 180q5 48 32.5 75t70.5 27q41 0 110.5 -26.5t99.5 -26.5q26 0 41.5 15t18.5 40h42q-5 -48 -32.5 -75t-69.5 -27q-41 0 -111 26.5t-100 26.5q-51 0 -60 -55h-42zM93 347q5 48 32.5 75t70.5 27q41 0 110.5 -27t99.5 -27q25 0 41 15.5t19 40.5h42q-5 -48 -32.5 -75
t-69.5 -27q-41 0 -111 26.5t-100 26.5q-51 0 -60 -55h-42z" />
    <glyph glyph-name="uni043A.bgr" horiz-adv-x="487" 
d="M135 275v-275h-53v773h53v-498l255 248h63l-255 -246l272 -277h-66z" />
    <glyph glyph-name="notequal.tab" 
d="M97 426h225l50 117h49l-51 -117h131v-46h-150l-52 -121h202v-46h-222l-50 -117h-49l50 117h-133v46h153l52 121h-205v46z" />
    <glyph glyph-name="five.oldtab" horiz-adv-x="600" 
d="M291 -104q-101 0 -159.5 52.5t-67.5 134.5h51q9 -65 52.5 -104t123.5 -39q84 0 132 51t48 141q0 83 -47 133.5t-121 50.5q-112 0 -176 -76h-20v379h383v-47h-338v-270q54 58 160 58q93 0 153.5 -62.5t60.5 -165.5q0 -107 -66.5 -171.5t-168.5 -64.5z" />
    <glyph glyph-name="uni043D.bgr" horiz-adv-x="573" 
d="M437 248h-301v-248h-53v523h53v-230h301v230h53v-523h-53v248z" />
    <glyph glyph-name="equal.tab" 
d="M98 259h404v-46h-404v46zM98 426h404v-46h-404v46z" />
    <glyph glyph-name="divide.tab" 
d="M301 122q-18 0 -30.5 12.5t-12.5 30.5q0 17 12.5 29.5t30.5 12.5q17 0 29.5 -12.5t12.5 -29.5q0 -18 -12.5 -30.5t-29.5 -12.5zM82 365h438v-46h-438v46zM301 477q-18 0 -30.5 12.5t-12.5 30.5q0 17 12.5 29.5t30.5 12.5q17 0 29.5 -12.5t12.5 -29.5q0 -18 -12.5 -30.5
t-29.5 -12.5z" />
    <glyph glyph-name="multiply.tab" 
d="M104 174l161 160l-161 161l31 32l161 -161l161 161l31 -32l-161 -161l161 -160l-31 -31l-161 160l-161 -160z" />
    <glyph glyph-name="plusminus.tab" 
d="M276 330h-195v45h195v199h48v-199h195v-45h-195v-199h-48v199zM81 45h438v-45h-438v45z" />
    <glyph glyph-name="minus.tab" 
d="M82 365h438v-46h-438v46z" />
    <glyph glyph-name="plus.tab" 
d="M276 319h-195v46h195v209h48v-209h195v-46h-195v-209h-48v209z" />
    <glyph glyph-name="uni0433.locl" horiz-adv-x="445" 
d="M136 478v-478h-53v523h332v-45h-279z" />
    <glyph glyph-name="perthousand.tab" horiz-adv-x="1004" 
d="M185 455q40 0 65.5 31t25.5 81q0 51 -25.5 82t-65.5 31t-65.5 -31.5t-25.5 -82.5q0 -50 25.5 -80.5t65.5 -30.5zM185 413q-58 0 -99 42t-41 110q0 70 41 113t99 43t98.5 -43t40.5 -111q0 -69 -41 -111.5t-98 -42.5zM540 715h51l-456 -715h-50zM492 35q40 0 65.5 31
t25.5 82t-25.5 81.5t-65.5 30.5t-65.5 -31t-25.5 -82t25.5 -81.5t65.5 -30.5zM492 -7q-57 0 -98 42.5t-41 110.5q0 70 40.5 113t98.5 43t98.5 -43t40.5 -111q0 -70 -40.5 -112.5t-98.5 -42.5zM815 35q40 0 65.5 31t25.5 82t-25 81.5t-66 30.5q-40 0 -65 -31t-25 -82
t25 -81.5t65 -30.5zM815 -7q-56 0 -97 42.5t-41 110.5q0 70 41 113t97 43q59 0 99.5 -43t40.5 -111q0 -70 -41 -112.5t-99 -42.5z" />
    <glyph glyph-name="uni0446.bgr" horiz-adv-x="599" 
d="M529 -127l-5 127h-80v100q-19 -45 -68.5 -76.5t-114.5 -31.5q-86 0 -135 48.5t-49 151.5v331h53v-328q0 -82 36 -119.5t107 -37.5q68 0 119.5 44.5t51.5 122.5v318h53v-478h75v-172h-43z" />
    <glyph glyph-name="percent.tab" horiz-adv-x="804" 
d="M205 440q47 0 77 31.5t30 87.5q0 54 -30 86.5t-77 32.5q-46 0 -76.5 -32.5t-30.5 -88.5q0 -55 30 -86t77 -31zM205 398q-63 0 -110 44.5t-47 114.5t46.5 116.5t110.5 46.5q65 0 110.5 -46t45.5 -115q0 -71 -46 -116t-110 -45zM603 715h50l-456 -715h-50zM595 36
q47 0 77 31.5t30 87.5q0 54 -29.5 86t-77.5 32q-46 0 -76.5 -32.5t-30.5 -87.5t30 -86t77 -31zM595 -7q-63 0 -109.5 45t-46.5 115q0 71 46 117t110 46q65 0 111 -46t46 -115q0 -72 -46.5 -117t-110.5 -45z" />
    <glyph glyph-name="tilde.uc" horiz-adv-x="404" 
d="M264 774q-26 0 -67 26.5t-56 26.5q-38 0 -46 -54h-41q6 47 29.5 73t57.5 26q25 0 65.5 -26.5t57.5 -26.5q38 0 46 54h40q-6 -47 -29.5 -73t-56.5 -26z" />
    <glyph glyph-name="uni0447.bgr" horiz-adv-x="558" 
d="M412 0v263q-67 -74 -167 -74q-80 0 -128 49t-48 152v133h53v-131q0 -157 135 -157q17 0 33 3t28.5 7t25 11t20 12.5t17.5 14.5t13.5 12.5t10.5 12.5l7 8v207h53v-523h-53z" />
    <glyph glyph-name="hungarumlaut.uc" horiz-adv-x="404" 
d="M157 893h60l-65 -122h-40zM289 893h60l-65 -122h-40z" />
    <glyph glyph-name="uni0438.bgr" horiz-adv-x="579" 
d="M261 -8q-86 0 -135 48.5t-49 151.5v331h53v-328q0 -82 36 -119.5t107 -37.5q68 0 119.5 44.5t51.5 122.5v318h53v-523h-53v100q-19 -45 -68.5 -76.5t-114.5 -31.5z" />
    <glyph glyph-name="f.short" horiz-adv-x="324" 
d="M105 478h-79v45h79v94q0 80 38.5 119.5t105.5 39.5q34 0 55 -8v-45q-24 8 -54 8q-92 0 -92 -109v-99h146v-45h-146v-478h-53v478z" />
    <glyph glyph-name="f_f.short" horiz-adv-x="602" 
d="M105 478h-79v45h79v86q0 79 39.5 119t108.5 40q34 0 58 -9v-45q-27 9 -56 9q-97 0 -97 -109v-91h226v94q0 80 38 119.5t105 39.5q34 0 55 -8v-45q-24 8 -53 8q-92 0 -92 -109v-99h145v-45h-145v-478h-53v478h-226v-478h-53v478z" />
    <glyph glyph-name="uni021B.alt" horiz-adv-x="323" 
d="M64 -188l58 147l51 -15l-75 -148zM112 478h-87v45h87v119h53v-119h127v-45h-127v-478h-53v478z" />
    <glyph glyph-name="tbar.alt" horiz-adv-x="319" 
d="M25 341h87v137h-87v45h87v119h53v-119h127v-45h-127v-137h127v-40h-127v-301h-53v301h-87v40z" />
    <glyph glyph-name="uni043B.bgr" horiz-adv-x="518" 
d="M492 0h-57l-178 470l-177 -470h-55l198 523h69z" />
    <glyph glyph-name="uni0437.bgr" horiz-adv-x="468" 
d="M424 25q0 -102 -54.5 -157.5t-140.5 -55.5q-90 0 -138.5 46.5t-57.5 120.5h54q9 -57 44 -89.5t97 -32.5q65 0 104 41.5t39 126.5v5q0 76 -39 117t-116 41h-62v43h61q65 0 97 34.5t32 96.5v3q0 55 -29.5 88t-87.5 33q-102 0 -122 -105h-51q9 73 56.5 111.5t118.5 38.5
q78 0 124.5 -45.5t46.5 -120.5v-3q0 -61 -32 -101.5t-81 -49.5q61 -11 99 -56t38 -125v-5z" />
    <glyph glyph-name="uni20B4.oldtab" horiz-adv-x="600" 
d="M293 -8q-99 0 -157 43t-58 125q0 69 40 112h-68v38h114q34 23 136 69q40 18 54 25h-304v38h363q42 37 42 107q0 54 -37 81t-104 27q-144 0 -168 -125h-49q11 82 66.5 125.5t150.5 43.5q89 0 141 -39t52 -113q0 -64 -37 -107h83v-38h-127q-41 -27 -116 -60
q-40 -18 -71 -34h314v-38h-373q-48 -41 -48 -111q0 -61 43.5 -93t117.5 -32q165 0 189 157h53q-10 -90 -70.5 -145.5t-171.5 -55.5z" />
    <glyph glyph-name="nine.oldtab" horiz-adv-x="600" 
d="M294 219q75 0 126.5 47.5t51.5 125.5q0 84 -47 137.5t-132 53.5q-79 0 -128 -51t-49 -131q0 -83 47 -132.5t131 -49.5zM282 -104q-87 0 -143 44.5t-68 124.5h52q12 -59 53 -91.5t110 -32.5q93 0 141 74t50 235v43q-21 -56 -74 -87t-116 -31q-103 0 -164.5 64t-61.5 160
q0 102 64 165t168 63q122 0 180 -78t58 -212v-84q0 -357 -249 -357z" />
    <glyph glyph-name="uni0434.bgr" horiz-adv-x="612" 
d="M284 62q82 0 138 56.5t56 151.5v8q0 97 -51.5 152.5t-135.5 55.5q-86 0 -139.5 -56.5t-53.5 -153.5v-8q0 -95 53 -150.5t133 -55.5zM288 -188q-107 0 -165 44.5t-69 113.5h54q25 -113 179 -113q89 0 139.5 43.5t50.5 136.5v107q-24 -52 -77 -89.5t-121 -37.5
q-102 0 -169 69t-67 181v7q0 111 69 184t174 73q136 0 191 -121v113h53v-488q0 -112 -66 -167.5t-176 -55.5z" />
    <glyph glyph-name="uni20BD.tab" horiz-adv-x="600" 
d="M319 351q183 0 183 159v4q0 155 -185 155h-126v-318h128zM191 176v-176h-55v176h-100v38h100v98h-100v38h100v365h178q111 0 177 -49t66 -152v-4q0 -106 -65.5 -155t-176.5 -49h-124v-92h246v-38h-246z" />
    <glyph glyph-name="florin.tab" 
d="M111 403h121l24 155q24 166 171 166q40 0 70 -11v-46q-26 12 -69 12q-101 0 -120 -124l-23 -152h168v-44h-175l-82 -541h-53l82 541h-114v44z" />
    <glyph glyph-name="yen.tab" 
d="M98 344h173l-212 371h61l189 -340l177 340h55l-198 -371h171v-39h-180v-97h180v-39h-180v-169h-54v169h-182v39h182v97h-182v39z" />
    <glyph glyph-name="sterling.tab" 
d="M52 368h71q-24 83 -24 151q0 91 60 147.5t154 56.5q93 0 146 -49.5t62 -133.5h-54q-12 69 -48 102.5t-106 33.5t-113.5 -43.5t-43.5 -113.5q0 -61 23 -151h229v-41h-218q19 -71 19 -137q0 -46 -19 -81q31 -6 104 -37.5t108 -31.5q94 0 101 104h48q-5 -70 -43 -111
t-101 -41q-48 0 -128 36.5t-110 36.5q-33 0 -52.5 -18.5t-23.5 -46.5h-48q5 38 29 69t66 40q19 34 19 81q0 54 -24 137h-83v41z" />
    <glyph glyph-name="uni0449.bgr" horiz-adv-x="926" 
d="M856 -127l-4 127h-81v101q-19 -46 -64.5 -77.5t-106.5 -31.5q-128 0 -160 117q-24 -55 -74.5 -86t-111.5 -31q-81 0 -128 49t-47 155v327h54v-330q0 -82 32.5 -118.5t98.5 -36.5q65 0 113 44.5t48 121.5v319h53v-330q0 -82 33 -118.5t99 -36.5q65 0 113 45t48 123v317h53
v-478h75v-172h-43z" />
    <glyph glyph-name="uni044A.bgr" horiz-adv-x="575" 
d="M23 478v45h205v-200q59 11 112 11q92 0 146 -42.5t54 -122.5v-3q0 -81 -53 -127t-132 -46q-85 0 -132.5 46.5t-47.5 132.5v306h-152zM355 34q62 0 97 36t35 94v3q0 125 -147 125q-64 0 -112 -12v-108q0 -64 32.5 -101t94.5 -37z" />
    <glyph glyph-name="uni0431.locl" horiz-adv-x="591" 
d="M295 -8q-106 0 -179 73t-73 182v8q0 109 72 180t174 71q11 0 15 -1q-44 21 -60 29t-48.5 25t-44.5 27.5t-29 27.5t-22.5 34t-5.5 37q0 41 32 64.5t85 23.5h152q102 0 137 8v-46q-39 -10 -138 -10h-141q-36 0 -55 -14t-19 -38q0 -19 13 -36.5t42.5 -35.5t56.5 -31.5
t74 -35.5q5 -2 8 -3.5t7.5 -3.5t8.5 -4q94 -46 142.5 -104.5t48.5 -162.5v-8q0 -111 -73 -183.5t-180 -72.5zM296 37q85 0 141 58.5t56 151.5v7q0 96 -54.5 154t-142.5 58q-85 0 -141.5 -59t-56.5 -152v-8q0 -92 56 -151t142 -59z" />
    <glyph glyph-name="space.tab" horiz-adv-x="304" 
 />
    <glyph glyph-name="nine.old" horiz-adv-x="586" 
d="M273 -104q-88 0 -145 44.5t-69 124.5h52q12 -58 53.5 -91t111.5 -33q98 0 146.5 73t50.5 236v43q-23 -56 -76.5 -87t-118.5 -31q-106 0 -167.5 63.5t-61.5 160.5q0 102 64.5 165t169.5 63q127 0 185.5 -80.5t58.5 -216.5v-69q0 -365 -254 -365zM285 219q77 0 130 47.5
t53 125.5q0 84 -48.5 137.5t-136.5 53.5q-81 0 -130 -50.5t-49 -131.5q0 -83 47.5 -132.5t133.5 -49.5z" />
    <glyph glyph-name="eight.old" horiz-adv-x="576" 
d="M287 -8q-97 0 -168 54.5t-71 150.5q0 71 43.5 118.5t113.5 66.5q-58 18 -92.5 58.5t-34.5 100.5q0 81 62.5 131.5t146.5 50.5q83 0 145 -51t62 -129q0 -120 -125 -160q71 -19 113 -66.5t42 -117.5q0 -97 -69 -152t-168 -55zM287 38q80 0 131 42t51 120q0 73 -52 115.5
t-128 42.5q-78 0 -131.5 -43t-53.5 -117q0 -77 52.5 -118.5t130.5 -41.5zM290 402q66 0 108 37t42 104q0 59 -44 97.5t-109 38.5q-66 0 -110 -38.5t-44 -99.5q0 -65 46.5 -102t110.5 -37z" />
    <glyph glyph-name="uni20B8.old" horiz-adv-x="544" 
d="M30 656v38h484v-38h-484zM245 523h-215v44h484v-44h-215v-523h-54v523z" />
    <glyph glyph-name="seven.old" horiz-adv-x="503" 
d="M409 574h-382v44h450v-9l-290 -706h-55z" />
    <glyph glyph-name="six.old" horiz-adv-x="586" 
d="M298 -8q-127 0 -185.5 81t-58.5 214v66q0 185 72 277.5t193 92.5q79 0 130 -41t65 -118h-52q-24 114 -146 114q-95 0 -150 -76.5t-57 -237.5v-38q21 54 76 86t119 32q106 0 167.5 -63.5t61.5 -161.5q0 -101 -65 -164t-170 -63zM298 35q81 0 130.5 50t49.5 132
q0 85 -47.5 134t-133.5 49q-77 0 -130 -48.5t-53 -124.5q0 -83 48.5 -137.5t135.5 -54.5z" />
    <glyph glyph-name="five.old" horiz-adv-x="554" 
d="M264 -104q-102 0 -161.5 52.5t-65.5 134.5h50q9 -64 52.5 -103.5t123.5 -39.5q84 0 132 51.5t48 141.5q0 83 -47 133t-120 50q-113 0 -177 -76h-20v379h383v-47h-338v-270q54 58 160 58q93 0 153.5 -61.5t60.5 -165.5q0 -108 -65.5 -172.5t-168.5 -64.5z" />
    <glyph glyph-name="uni20B4.tab" horiz-adv-x="600" 
d="M291 -8q-97 0 -154 44.5t-57 128.5q0 68 39 116h-68v39h112q37 26 135 71q21 9 55 26h-302v39h357q39 39 39 110q0 111 -134 111q-138 0 -162 -128h-51q11 84 65.5 129t147.5 45q86 0 137 -40.5t51 -116.5q0 -66 -35 -110h82v-39h-124q-34 -26 -116 -62q-33 -15 -70 -35
h310v-39h-367q-45 -41 -45 -114q0 -63 42 -96t113 -33q160 0 184 162h54q-11 -93 -69.5 -150.5t-168.5 -57.5z" />
    <glyph glyph-name="four.old" horiz-adv-x="599" 
d="M402 66h-373v17l350 535h77v-508h100v-44h-100v-163h-54v163zM402 110v467l-302 -467h302z" />
    <glyph glyph-name="three.old" horiz-adv-x="569" 
d="M279 -104q-108 0 -173 60.5t-69 149.5h51q6 -74 54.5 -120t137.5 -46q87 0 133.5 41.5t46.5 119.5q0 73 -43.5 114t-126.5 41h-52v46h48q74 0 111 38t37 99q0 65 -39 104t-109 39q-73 0 -118.5 -41.5t-53.5 -109.5h-48q4 82 66 139t154 57t146.5 -53.5t54.5 -132.5
q0 -60 -31.5 -100.5t-86.5 -58.5q66 -15 106 -62t40 -119q0 -95 -65 -150t-171 -55z" />
    <glyph glyph-name="two.old" horiz-adv-x="531" 
d="M24 13l252 229q69 59 101.5 105t32.5 103q0 63 -39 98t-107 35q-69 0 -112.5 -41.5t-53.5 -121.5h-50q8 93 67 150t149 57t145.5 -48t55.5 -129q0 -45 -24 -89.5t-51 -72t-85 -80.5l-182 -163h353v-45h-452v13z" />
    <glyph glyph-name="three.oldtab" horiz-adv-x="600" 
d="M296 -104q-108 0 -173 60.5t-69 149.5h51q6 -74 54.5 -120t137.5 -46q87 0 133.5 42t46.5 119q0 73 -43.5 114t-126.5 41h-52v46h48q74 0 111 38t37 99q0 65 -39 104t-109 39q-73 0 -118.5 -41.5t-53.5 -109.5h-48q4 82 66 139t154 57t146.5 -53.5t54.5 -132.5
q0 -60 -31.5 -100.5t-86.5 -58.5q66 -15 106 -62t40 -119q0 -95 -65 -150t-171 -55z" />
    <glyph glyph-name="one.old" horiz-adv-x="365" 
d="M191 561l-162 -112v51l170 119h46v-619h-54v561z" />
    <glyph glyph-name="zero.old" horiz-adv-x="630" 
d="M314 38q96 0 151 65.5t55 187.5v40q0 117 -56.5 184t-150.5 67t-150.5 -67t-56.5 -185v-41q0 -119 56.5 -185t151.5 -66zM313 -8q-117 0 -190 81t-73 216v41q0 136 72.5 216.5t190.5 80.5t190 -80t72 -215v-41q0 -137 -71.5 -218t-190.5 -81z" />
    <glyph glyph-name="uni0430.alt" horiz-adv-x="602" 
d="M274 -8q-97 0 -164 71t-67 191v8q0 118 69.5 193.5t169.5 75.5q68 0 114 -34t70 -88v114h54v-523h-54v120q-22 -51 -74.5 -89.5t-117.5 -38.5zM279 37q79 0 134 59t55 162v8q0 105 -50.5 162.5t-131.5 57.5t-134.5 -60t-53.5 -162v-8q0 -103 51.5 -161t129.5 -58z" />
    <glyph glyph-name="yen.old" horiz-adv-x="540" 
d="M68 334h166l-209 360h59l188 -330l178 330h53l-196 -360h165v-38h-174v-94h174v-38h-174v-164h-54v164h-176v38h176v94h-176v38z" />
    <glyph glyph-name="uni20B8.oldtab" horiz-adv-x="600" 
d="M57 656v38h484v-38h-484zM272 523h-215v44h484v-44h-215v-523h-54v523z" />
    <glyph glyph-name="sterling.old" horiz-adv-x="583" 
d="M48 358h68q-23 82 -23 145q0 89 59.5 143.5t150.5 54.5t143.5 -47t60.5 -130h-52q-12 66 -47.5 99t-104.5 33t-111.5 -42t-42.5 -111q0 -64 22 -145h222v-40h-212q18 -80 18 -133q0 -42 -18 -80q33 -5 103.5 -35.5t104.5 -30.5q93 0 100 100h46q-4 -67 -41.5 -107
t-99.5 -40q-48 0 -125 35.5t-106 35.5q-66 0 -75 -63h-47q4 36 27 65.5t64 38.5q19 40 19 81q0 54 -24 133h-79v40z" />
    <glyph glyph-name="Euro.old" horiz-adv-x="650" 
d="M31 431h67q9 121 75 195.5t179 74.5q99 0 158 -52.5t71 -147.5h-51q-24 156 -178 156q-90 0 -142 -60.5t-59 -165.5h245l-7 -38h-239v-94h221l-7 -38h-213q7 -107 58.5 -165.5t143.5 -58.5q160 0 187 172h49q-11 -103 -73 -160t-163 -57q-111 0 -179 74t-76 195h-67v38
h66v94h-66v38z" />
    <glyph glyph-name="dollar.old" horiz-adv-x="592" 
d="M274 -7q-110 6 -165.5 62t-66.5 144h53q9 -70 49.5 -113.5t129.5 -49.5v305q-106 18 -156 60t-50 119t56.5 126t149.5 55v88h40v-89q86 -6 137.5 -51t61.5 -122h-49q-12 61 -48.5 92.5t-101.5 36.5v-274q116 -19 167 -60.5t51 -132.5q0 -81 -60.5 -137t-157.5 -60v-125
h-40v126zM480 185q0 68 -36 100t-130 49v-298q77 5 121.5 45.5t44.5 103.5zM118 524q0 -56 33.5 -87.5t122.5 -48.5v268q-73 -3 -114.5 -37.5t-41.5 -94.5z" />
    <glyph glyph-name="uni0434.locl" horiz-adv-x="570" 
d="M168 233q-9 -81 -19.5 -124t-30.5 -64h301v434h-233q-8 -155 -18 -246zM58 -127h-43v172h35q33 9 46 54t23 139q3 25 14 182l6 103h332v-478h75v-172h-43l-4 127h-437z" />
    <glyph glyph-name="space_uni0326" horiz-adv-x="404" 
d="M140 -188l58 147l51 -15l-75 -148z" />
    <glyph glyph-name="seven.oldtab" horiz-adv-x="600" 
d="M458 574h-380v44h450v-9l-296 -706h-56z" />
    <glyph glyph-name="dollar.oldtab" horiz-adv-x="600" 
d="M126 524q0 -56 33.5 -87.5t122.5 -48.5v268q-73 -3 -114.5 -37.5t-41.5 -94.5zM487 185q0 68 -36 100t-130 49v-298q76 4 121 45t45 104zM282 -7q-110 6 -166.5 62.5t-65.5 143.5h52q21 -153 180 -163v305q-107 18 -156.5 59t-49.5 120q0 77 57 127t149 54v88h39v-89
q87 -6 138 -50.5t62 -122.5h-49q-24 119 -151 129v-274q116 -19 167.5 -60.5t51.5 -132.5q0 -82 -60.5 -137.5t-158.5 -59.5v-125h-39v126z" />
    <glyph glyph-name="uni20BD.oldtab" horiz-adv-x="600" 
d="M314 340q180 0 180 154v4q0 81 -46.5 115.5t-134.5 34.5h-119v-308h120zM194 164v-164h-55v164h-99v37h99v95h-99v37h99v361h171q110 0 175 -47t65 -149v-4q0 -103 -64.5 -151t-174.5 -48h-117v-94h230v-37h-230z" />
    <glyph glyph-name="idotaccent" horiz-adv-x="225" 
d="M110 635q-16 0 -27 11t-11 27q0 15 11 26t27 11t26.5 -11t10.5 -26q0 -16 -10.5 -27t-26.5 -11zM84 523h53v-523h-53v523z" />
    <glyph glyph-name="uni0433.bgr" horiz-adv-x="460" 
d="M224 -9q-88 0 -136 38.5t-48 100.5q0 68 43 100.5t128 53.5q74 17 107.5 41t33.5 72q0 42 -30.5 65.5t-82.5 23.5q-110 0 -131 -101h-51q11 74 60 110t122 36q74 0 120.5 -34.5t46.5 -97.5q0 -36 -12 -61.5t-38 -42.5t-53 -27t-72 -21q-71 -17 -103 -42t-32 -74
q0 -45 33 -70t96 -25q130 0 143 115h52q-5 -75 -55 -117.5t-141 -42.5z" />
    <glyph glyph-name="sterling.oldtab" horiz-adv-x="600" 
d="M58 358h68q-22 79 -22 145q0 89 59.5 143.5t150.5 54.5t143.5 -47t60.5 -130h-52q-12 66 -47.5 99t-104.5 33t-112 -42t-43 -111q0 -57 22 -145h223v-40h-212q18 -65 18 -133q0 -42 -18 -80q34 -5 104.5 -35.5t102.5 -30.5q94 0 100 100h47q-4 -67 -41.5 -107t-99.5 -40
q-48 0 -125 35.5t-106 35.5q-66 0 -75 -63h-48q4 36 27.5 66t64.5 39q18 38 18 80q0 51 -23 133h-80v40z" />
    <glyph glyph-name="zero.oldtab" horiz-adv-x="600" 
d="M302 -8q-113 0 -179 74.5t-66 198.5v88q0 124 66 199t177 75t177.5 -74.5t66.5 -197.5v-87q0 -127 -64.5 -201.5t-177.5 -74.5zM302 38q92 0 139 59.5t47 170.5v87q0 104 -49.5 165.5t-138.5 61.5q-90 0 -139 -60.5t-49 -168.5v-87q0 -109 49.5 -168.5t140.5 -59.5z" />
    <glyph glyph-name="uni044E.bgr" horiz-adv-x="772" 
d="M485 -8q-103 0 -170 71.5t-71 184.5h-108v-248h-53v773h53v-480h109q8 106 75.5 172t166.5 66q106 0 173.5 -73.5t67.5 -191.5v-8q0 -117 -68.5 -191.5t-174.5 -74.5zM486 37q85 0 136.5 59.5t51.5 160.5v8q0 103 -51.5 162t-135.5 59q-85 0 -137 -60t-52 -161v-8
q0 -100 51.5 -160t136.5 -60z" />
    <glyph glyph-name="uni0448.bgr" horiz-adv-x="904" 
d="M824 0h-53v101q-19 -46 -64.5 -77.5t-106.5 -31.5q-128 0 -160 117q-24 -55 -74.5 -86t-111.5 -31q-81 0 -128 49t-47 155v327h54v-330q0 -82 32.5 -118.5t98.5 -36.5q65 0 113 44.5t48 121.5v319h53v-330q0 -82 33 -118.5t99 -36.5q65 0 113 45t48 123v317h53v-523z" />
    </font>
</defs>
</svg>
